<?xml version="1.0" encoding="utf-8"?>
<!-- Generator: Adobe Illustrator 16.0.0, SVG Export Plug-In . SVG Version: 6.00 Build 0)  -->
<!DOCTYPE svg PUBLIC "-//W3C//DTD SVG 1.1//EN" "http://www.w3.org/Graphics/SVG/1.1/DTD/svg11.dtd">
<svg version="1.1" id="Layer_1" xmlns="http://www.w3.org/2000/svg" xmlns:xlink="http://www.w3.org/1999/xlink" x="0px" y="0px"
	 width="1124px" height="630px" viewBox="0 0 1124 630" enable-background="new 0 0 1124 630" xml:space="preserve">
<rect fill="#04A9D3" width="1124" height="630"/>
<g>
	
		<image overflow="visible" opacity="0.2" width="870" height="781" xlink:href="CC0B65A5.png"  transform="matrix(0.24 0 0 0.24 675.5459 51.917)">
	</image>
	<g>
		<path fill="#005198" d="M786.513,59.917c-41.771,0-75.631,33.861-75.631,75.631c0,10.757,2.26,20.981,6.308,30.246l-33.644,51.505
			l55.269-23.068c13.014,10.591,29.61,16.948,47.698,16.948c41.77,0,75.63-33.861,75.63-75.631S828.282,59.917,786.513,59.917z"/>
	</g>
</g>
<g>
	
		<image overflow="visible" opacity="0.2" width="978" height="756" xlink:href="CC0B65A7.png"  transform="matrix(0.24 0 0 0.24 761.4814 183.2061)">
	</image>
	<g>
		<path fill="#0076B6" d="M932.747,199.492c-37.203-18.992-82.756-4.229-101.748,32.973c-4.891,9.581-7.526,19.715-8.134,29.808
			l-53.384,30.576l59.714,4.584c6.775,15.351,18.668,28.558,34.775,36.782c37.203,18.991,82.757,4.23,101.749-32.975
			C984.712,264.039,969.95,218.484,932.747,199.492z"/>
	</g>
</g>
<g>
	
		<image overflow="visible" opacity="0.2" width="943" height="756" xlink:href="CC0B65A2.png"  transform="matrix(0.24 0 0 0.24 747.2939 350.1094)">
	</image>
	<g>
		<path fill="#79C2E1" d="M942.603,398.212c-19.631-36.87-65.433-50.846-102.301-31.215c-9.496,5.054-17.458,11.854-23.734,19.782
			l-61.273-5.492l46.335,37.943c-3.233,16.465-1.044,34.103,7.455,50.067c19.631,36.87,65.432,50.846,102.303,31.217
			C948.256,480.886,962.232,435.081,942.603,398.212z"/>
	</g>
</g>
<path fill="#FFFFFF" d="M773.506,152.072c-0.439,0.439-1.114,0.439-1.555,0l-15.747-15.747c-0.439-0.439-0.439-1.115,0-1.555
	l15.747-15.746c0.44-0.439,1.115-0.439,1.555,0l1.689,1.689c0.439,0.438,0.439,1.115,0,1.554l-13.279,13.28l13.279,13.28
	c0.439,0.439,0.439,1.115,0,1.555L773.506,152.072z M782.562,157.952c-0.169,0.574-0.777,0.912-1.317,0.743l-2.095-0.574
	c-0.575-0.169-0.913-0.777-0.745-1.352l12.605-43.625c0.169-0.575,0.777-0.913,1.318-0.744l2.095,0.575
	c0.575,0.169,0.912,0.776,0.743,1.352L782.562,157.952z M801.62,152.072c-0.439,0.439-1.114,0.439-1.555,0l-1.689-1.689
	c-0.438-0.439-0.438-1.115,0-1.555l13.28-13.28l-13.28-13.28c-0.438-0.438-0.438-1.115,0-1.554l1.689-1.689
	c0.44-0.439,1.115-0.439,1.555,0l15.746,15.746c0.44,0.439,0.44,1.115,0,1.555L801.62,152.072z"/>
<path fill="#FFFFFF" d="M897.695,450.546c0,5.981-4.832,10.813-10.813,10.813c-5.98,0-10.813-4.832-10.813-10.813
	c0-0.371,0.033-0.777,0.067-1.148l-12.165-6.083c-1.926,1.791-4.528,2.907-7.366,2.907c-5.981,0-10.813-4.832-10.813-10.813
	c0-5.982,4.832-10.813,10.813-10.813c2.838,0,5.44,1.116,7.366,2.906l12.165-6.083c-0.034-0.371-0.067-0.777-0.067-1.149
	c0-5.98,4.832-10.813,10.813-10.813c5.981,0,10.813,4.832,10.813,10.813c0,5.981-4.832,10.815-10.813,10.815
	c-2.838,0-5.439-1.116-7.366-2.907l-12.165,6.083c0.033,0.371,0.067,0.777,0.067,1.148c0,0.372-0.034,0.777-0.067,1.149
	l12.165,6.081c1.927-1.79,4.528-2.904,7.366-2.904C892.863,439.734,897.695,444.565,897.695,450.546z"/>
<path fill="#FFFFFF" d="M931.858,265.421c0.643,0.812,0.574,1.993-0.136,2.771l-32.439,34.602c-0.405,0.44-0.979,0.677-1.589,0.677
	c-0.607,0-1.182-0.236-1.587-0.677l-32.439-34.602c-0.71-0.777-0.778-1.96-0.136-2.771l12.976-17.301
	c0.405-0.575,1.048-0.879,1.724-0.879h38.928c0.676,0,1.318,0.304,1.724,0.879L931.858,265.421z M888.166,251.565h-8.854
	l-9.731,12.977h11.692L888.166,251.565z M891.309,291.339l-10.138-22.472h-10.914L891.309,291.339z M909.488,268.867h-23.587
	l11.793,26.087L909.488,268.867z M909.218,264.542l-6.894-12.977h-9.258l-6.894,12.977H909.218z M925.134,268.867H914.22
	l-10.138,22.472L925.134,268.867z M925.81,264.542l-9.731-12.977h-8.854l6.893,12.977H925.81z"/>
<g>
	
		<image overflow="visible" opacity="0.2" width="870" height="781" xlink:href="CC0B65A3.png"  transform="matrix(0.24 0 0 0.24 253.7471 31.6602)">
	</image>
	<g>
		<path fill="#79C2E1" d="M337.377,39.66c41.771,0,75.631,33.861,75.631,75.631c0,10.757-2.26,20.981-6.308,30.246l33.644,51.505
			l-55.269-23.068c-13.014,10.591-29.61,16.948-47.698,16.948c-41.77,0-75.63-33.861-75.63-75.631S295.607,39.66,337.377,39.66z"/>
	</g>
</g>
<g>
	
		<image overflow="visible" opacity="0.2" width="978" height="756" xlink:href="CC0B65AD.png"  transform="matrix(0.24 0 0 0.24 141.8838 162.9492)">
	</image>
	<g>
		<path fill="#005198" d="M191.143,179.235c37.203-18.992,82.756-4.229,101.748,32.973c4.891,9.581,7.526,19.715,8.134,29.808
			l53.384,30.576l-59.714,4.584c-6.775,15.351-18.668,28.558-34.775,36.782c-37.203,18.991-82.757,4.23-101.749-32.975
			C139.178,243.782,153.939,198.228,191.143,179.235z"/>
	</g>
</g>
<g>
	
		<image overflow="visible" opacity="0.2" width="943" height="756" xlink:href="CC0B65AF.png"  transform="matrix(0.24 0 0 0.24 164.4004 329.8525)">
	</image>
	<g>
		<path fill="#0076B6" d="M181.287,377.955c19.631-36.87,65.433-50.846,102.301-31.215c9.496,5.054,17.458,11.854,23.734,19.782
			l61.273-5.492l-46.335,37.943c3.233,16.465,1.044,34.103-7.455,50.067c-19.631,36.87-65.432,50.846-102.303,31.217
			C175.634,460.629,161.657,414.824,181.287,377.955z"/>
	</g>
</g>
<path fill="#FFFFFF" d="M272.198,427.884c-3.77,7.627-14.138,8.369-21.564,8.369c-7.542,0-18.537-0.657-22.451-8.369
	c-1.456-2.885-1.771-6.283-1.771-9.454c0-4.17,1.143-8.111,3.885-11.311c-0.515-1.571-0.771-3.229-0.771-4.856
	c0-2.143,0.485-4.284,1.457-6.227c4.512,0,7.397,1.971,10.825,4.655c2.884-0.686,5.855-0.999,8.826-0.999
	c2.685,0,5.398,0.285,7.998,0.914c3.399-2.656,6.283-4.57,10.739-4.57c0.971,1.942,1.457,4.084,1.457,6.227
	c0,1.628-0.256,3.257-0.771,4.799c2.742,3.228,3.885,7.198,3.885,11.368C273.94,421.601,273.626,424.971,272.198,427.884z
	 M260.23,415.23c-1.885,0-3.685,0.343-5.57,0.6c-1.485,0.229-2.971,0.314-4.484,0.314c-1.514,0-3-0.086-4.485-0.314
	c-1.856-0.257-3.685-0.6-5.57-0.6c-4.655,0-7.312,3.856-7.312,8.226c0,8.741,7.998,10.084,14.967,10.084h4.798
	c6.969,0,14.967-1.343,14.967-10.084C267.542,419.087,264.886,415.23,260.23,415.23z M241.036,428.94
	c-2.571,0-3.656-3.398-3.656-5.484c0-2.084,1.085-5.484,3.656-5.484s3.656,3.4,3.656,5.484
	C244.691,425.542,243.606,428.94,241.036,428.94z M259.316,428.94c-2.571,0-3.656-3.398-3.656-5.484
	c0-2.084,1.085-5.484,3.656-5.484s3.656,3.4,3.656,5.484C262.973,425.542,261.887,428.94,259.316,428.94z"/>
<path fill="#FFFFFF" d="M243.013,243.368l-28.418,28.418h-14.209v-14.209l28.418-28.418L243.013,243.368z M215.893,264.306
	l-8.027-8.027l-3.108,3.108v3.655h4.372v4.372h3.654L215.893,264.306z M229.896,234.965c-0.205,0-0.41,0.068-0.581,0.239
	l-18.513,18.513c-0.171,0.171-0.239,0.375-0.239,0.581c0,0.444,0.307,0.752,0.751,0.752c0.205,0,0.41-0.068,0.581-0.239
	l18.513-18.513c0.171-0.17,0.239-0.375,0.239-0.581C230.648,235.272,230.34,234.965,229.896,234.965z M250.869,235.511l-5.67,5.67
	l-14.209-14.209l5.67-5.636c0.785-0.82,1.913-1.298,3.074-1.298s2.289,0.479,3.108,1.298l8.027,7.993
	c0.786,0.819,1.264,1.947,1.264,3.108C252.133,233.599,251.654,234.726,250.869,235.511z"/>
<path fill="#FFFFFF" d="M361.548,137.099c0,2.156-1.786,3.942-3.942,3.942h-43.363c-2.156,0-3.942-1.786-3.942-3.942V97.678
	c0-2.156,1.786-3.942,3.942-3.942h3.942v-2.957c0-2.71,2.217-4.927,4.927-4.927h1.971c2.71,0,4.928,2.217,4.928,4.927v2.957h11.826
	v-2.957c0-2.71,2.217-4.927,4.928-4.927h1.971c2.71,0,4.927,2.217,4.927,4.927v2.957h3.942c2.156,0,3.942,1.786,3.942,3.942V137.099
	z M323.112,114.432v-8.87h-8.87v8.87H323.112z M323.112,126.258v-9.855h-8.87v9.855H323.112z M323.112,137.099v-8.87h-8.87v8.87
	H323.112z M326.069,90.779c0-0.523-0.462-0.985-0.986-0.985h-1.971c-0.523,0-0.985,0.462-0.985,0.985v8.87
	c0,0.524,0.462,0.986,0.985,0.986h1.971c0.523,0,0.986-0.462,0.986-0.986V90.779z M334.939,114.432v-8.87h-9.855v8.87H334.939z
	 M334.939,126.258v-9.855h-9.855v9.855H334.939z M334.939,137.099v-8.87h-9.855v8.87H334.939z M346.765,114.432v-8.87h-9.855v8.87
	H346.765z M346.765,126.258v-9.855h-9.855v9.855H346.765z M346.765,137.099v-8.87h-9.855v8.87H346.765z M349.722,90.779
	c0-0.523-0.462-0.985-0.985-0.985h-1.971c-0.523,0-0.986,0.462-0.986,0.985v8.87c0,0.524,0.462,0.986,0.986,0.986h1.971
	c0.523,0,0.985-0.462,0.985-0.986V90.779z M357.606,114.432v-8.87h-8.87v8.87H357.606z M357.606,126.258v-9.855h-8.87v9.855H357.606
	z M357.606,137.099v-8.87h-8.87v8.87H357.606z"/>
<g>
	
		<image overflow="visible" opacity="0.2" width="1754" height="2317" xlink:href="CC0B65A0.png"  transform="matrix(0.24 0 0 0.24 353.2593 55.0645)">
	</image>
	<g>
		<g>
			<path fill="#005198" d="M556.803,508.308c32.282,2.236,64.34,7.46,95.527,16.091c11.127,3.08,27.523,6.652,31.948,19.009
				c4.497,12.555-3.546,18.432-15.019,20.082c-15.832,2.279-21.442-15.358-31.517-23.507c-11.54-9.333-24.99-14.772-39.356-18.436
				c-13.366-3.407-27.828-4.485-41.584-4.718V508.308z"/>
			<path fill="#005198" d="M560.958,508.308c-32.282,2.236-64.342,7.46-95.526,16.091c-11.128,3.08-27.524,6.652-31.949,19.009
				c-4.496,12.555,3.547,18.432,15.019,20.082c15.833,2.279,21.442-15.358,31.518-23.507c11.54-9.333,24.987-14.772,39.355-18.436
				c13.366-3.407,27.828-4.485,41.584-4.718V508.308z"/>
			<g>
				<path fill="#005198" d="M513.443,501.591c0,0-102.646-23.086-113.509-99.128c0,0-5.134-17.584-21.894-13.046
					c0,0-55.985,26.209,36.558,78.061c0,0,60.835,35.23,96.642,38.411L513.443,501.591z"/>
			</g>
			<g>
				<path fill="#005198" d="M587.312,505.726c0,0,105.026-6.215,128.02-79.507c0,0,7.904-16.526,23.712-9.34
					c0,0,51.023,34.904-48.678,71.135c0,0-65.722,24.949-101.574,22.31L587.312,505.726z"/>
			</g>
			<g>
				<g>
					<ellipse fill="#0076B6" cx="561.024" cy="516.639" rx="52.444" ry="52.543"/>
				</g>
				<defs>
					<filter id="Adobe_OpacityMaskFilter" filterUnits="userSpaceOnUse" x="508.58" y="464.091" width="104.889" height="105.091">
						
							<feColorMatrix  type="matrix" values="-1 0 0 0 1  0 -1 0 0 1  0 0 -1 0 1  0 0 0 1 0" color-interpolation-filters="sRGB" result="source"/>
					</filter>
				</defs>
				<mask maskUnits="userSpaceOnUse" x="508.58" y="464.091" width="104.889" height="105.091" id="SVGID_1_">
					<g filter="url(#Adobe_OpacityMaskFilter)">
						
							<image overflow="visible" width="454" height="455" xlink:href="CC0B65A3.jpg"  transform="matrix(0.24 0 0 0.24 506.5801 462.0908)">
						</image>
					</g>
				</mask>
				<g opacity="0.44" mask="url(#SVGID_1_)">
					<ellipse fill="#939598" cx="561.024" cy="516.639" rx="52.444" ry="52.543"/>
				</g>
			</g>
			<g>
				<g>
					<path fill="#005198" d="M604.897,228.751c0,0,94.697,21.602,109.565,104.071c0,0,23.593,93.402-71.427,143.173
						c0,0-84.032,38.462-167.419-3.554c0,0-51.064-24.239-63.992-85c0,0-28.119-109.239,95.666-154.485
						c0,0,15.611-7.389,50.699-8.68C557.99,224.276,579.905,222.895,604.897,228.751"/>
				</g>
				<defs>
					
						<filter id="Adobe_OpacityMaskFilter_1_" filterUnits="userSpaceOnUse" x="408.881" y="224.134" width="308.18" height="267.949">
						
							<feColorMatrix  type="matrix" values="-1 0 0 0 1  0 -1 0 0 1  0 0 -1 0 1  0 0 0 1 0" color-interpolation-filters="sRGB" result="source"/>
					</filter>
				</defs>
				<mask maskUnits="userSpaceOnUse" x="408.881" y="224.134" width="308.18" height="267.949" id="SVGID_2_">
					<g filter="url(#Adobe_OpacityMaskFilter_1_)">
						
							<image overflow="visible" width="1301" height="1134" xlink:href="CC0B65A5.jpg"  transform="matrix(0.24 0 0 0.24 406.8809 222.1343)">
						</image>
					</g>
				</mask>
				<g opacity="0.44" mask="url(#SVGID_2_)">
					<path fill="#939598" d="M604.897,228.751c0,0,94.697,21.602,109.565,104.071c0,0,23.593,93.402-71.427,143.173
						c0,0-84.032,38.462-167.419-3.554c0,0-51.064-24.239-63.992-85c0,0-28.119-109.239,95.666-154.485
						c0,0,15.611-7.389,50.699-8.68C557.99,224.276,579.905,222.895,604.897,228.751"/>
				</g>
			</g>
			<g>
				<path fill="#005198" d="M519.82,159.251l17.608,75.948l-13.505,8.302c0,0,5.709-51.431-20.396-75.071"/>
			</g>
			<g>
				<path fill="#005198" d="M593.698,141.248l-16.79,93.297l14.567,8.956c0,0-2.33-76.959,21.993-104.589"/>
			</g>
			<g>
				<g>
					<path fill="#005198" d="M511.937,498.116c0,0,40.637,18.909,98.18,0c0,0,8.031,18.519-0.793,38.997c0,0-42.304,26.283-96.711,0
						C512.612,537.113,504.06,519.029,511.937,498.116z"/>
				</g>
				<defs>
					
						<filter id="Adobe_OpacityMaskFilter_2_" filterUnits="userSpaceOnUse" x="508.603" y="498.116" width="104.859" height="50.679">
						
							<feColorMatrix  type="matrix" values="-1 0 0 0 1  0 -1 0 0 1  0 0 -1 0 1  0 0 0 1 0" color-interpolation-filters="sRGB" result="source"/>
					</filter>
				</defs>
				<mask maskUnits="userSpaceOnUse" x="508.603" y="498.116" width="104.859" height="50.679" id="SVGID_3_">
					<g filter="url(#Adobe_OpacityMaskFilter_2_)">
						
							<image overflow="visible" width="454" height="228" xlink:href="7DA5B0EE.jpg"  transform="matrix(0.24 0 0 0.24 506.6025 496.1162)">
						</image>
					</g>
				</mask>
				<g opacity="0.44" mask="url(#SVGID_3_)">
					<path fill="#939598" d="M511.937,498.116c0,0,40.637,18.909,98.18,0c0,0,8.031,18.519-0.793,38.997c0,0-42.304,26.283-96.711,0
						C512.612,537.113,504.06,519.029,511.937,498.116z"/>
				</g>
			</g>
			<polygon fill="#0076B6" points="561.633,536 587.312,520.344 587.312,502.809 580.735,495.292 545.351,495.292 536.897,502.809 
				536.897,520.344 			"/>
			<g>
				<polygon fill="#FFFFFF" points="562.299,531.096 583.286,519.594 583.286,504.857 577.76,498.543 548.027,498.543 
					540.922,504.857 540.922,519.594 				"/>
			</g>
			<g>
				<g>
					<path fill="#005198" d="M576.238,512.226c-3.924-3.163-8.078-4.839-13.184-4.622c-5.105,0.219-9.103,2.238-12.743,5.723
						c-0.094,0.087-0.223,0.157-0.354,0.162c-0.376,0.018-2.85-2.24-2.865-2.632c-0.007-0.147,0.052-0.281,0.147-0.386
						c3.966-4.283,9.843-6.811,15.637-7.056c5.795-0.247,11.864,1.773,16.18,5.707c0.103,0.092,0.174,0.222,0.181,0.369
						c0.016,0.394-2.256,2.853-2.634,2.866C576.472,512.363,576.34,512.302,576.238,512.226z M571.975,516.865
						c-2.788-1.979-5.118-3.127-8.653-2.979c-4.941,0.211-8.559,3.843-8.738,3.849c-0.376,0.017-2.834-2.239-2.851-2.633
						c-0.006-0.132,0.055-0.266,0.148-0.367c2.806-3.055,7.156-4.862,11.263-5.035c4.109-0.175,8.596,1.257,11.65,4.061
						c0.104,0.097,0.175,0.223,0.179,0.356c0.019,0.391-2.238,2.85-2.616,2.863C572.227,516.986,572.074,516.928,571.975,516.865z
						 M563.588,520.175c-2.422,0.101-4.102,1.813-4.348,1.824c-0.394,0.017-2.867-2.239-2.884-2.633
						c-0.006-0.149,0.054-0.281,0.148-0.382c1.678-1.811,4.484-2.9,6.907-3.001c2.422-0.101,5.312,0.741,7.136,2.403
						c0.103,0.093,0.173,0.222,0.181,0.368c0.016,0.396-2.258,2.852-2.649,2.867C567.848,521.632,565.995,520.07,563.588,520.175z
						 M561.015,523.627c-0.035-0.8,2.042-1.334,2.664-1.355c0.621-0.028,2.736,0.322,2.77,1.125c0.019,0.44-2.175,2.832-2.601,2.85
						C563.423,526.262,561.034,524.07,561.015,523.627z"/>
				</g>
			</g>
			
				<ellipse transform="matrix(0.8967 -0.4425 0.4425 0.8967 -83.3231 314.3708)" fill="#FFFFFF" cx="632.044" cy="335.749" rx="52.97" ry="59.087"/>
			
				<ellipse transform="matrix(-0.8967 -0.4425 0.4425 -0.8967 792.4301 856.3853)" fill="#FFFFFF" cx="496.12" cy="335.749" rx="52.97" ry="59.086"/>
			<ellipse cx="508.602" cy="375.891" rx="10.888" ry="19.963"/>
			<ellipse cx="629.052" cy="375.891" rx="10.888" ry="19.963"/>
			<path fill="#D01E47" d="M581.078,385.546c0,4.506-7.855,8.16-17.543,8.16c-9.688,0-17.543-3.654-17.543-8.16
				c0-4.504,7.854-8.155,17.543-8.155C573.223,377.391,581.078,381.042,581.078,385.546z"/>
			<g>
				<g>
					<path fill="#005198" d="M518.145,169.349h-38.961c-13.43,0-24.36-10.932-24.36-24.361c0-13.421,10.931-24.352,24.36-24.352
						c2.598,0,5.16,0.42,7.605,1.235c5.256-12.444,17.432-20.714,31.355-20.714c18.803,0,34.09,15.29,34.09,34.091
						C552.234,154.053,536.947,169.349,518.145,169.349z M479.184,130.376c-8.064,0-14.618,6.556-14.618,14.611
						c0,8.055,6.554,14.611,14.618,14.611h38.961c13.429,0,24.348-10.921,24.348-24.351c0-13.431-10.919-24.352-24.348-24.352
						c-11.383,0-21.133,7.747-23.695,18.834c-0.354,1.539-1.449,2.813-2.919,3.413c-1.47,0.591-3.132,0.439-4.463-0.43
						C484.688,131.191,481.952,130.376,479.184,130.376z"/>
				</g>
			</g>
			<g>
				<g>
					<path fill="#005198" d="M635.27,148.41h-48.763c-16.807,0-30.488-13.681-30.488-30.489c0-16.797,13.682-30.477,30.488-30.477
						c3.25,0,6.459,0.524,9.519,1.545c6.579-15.574,21.818-25.925,39.244-25.925c23.534,0,42.667,19.137,42.667,42.667
						C677.937,129.268,658.804,148.41,635.27,148.41z M586.507,99.634c-10.093,0-18.296,8.205-18.296,18.287
						c0,10.081,8.203,18.288,18.296,18.288h48.763c16.808,0,30.474-13.669,30.474-30.478s-13.666-30.478-30.474-30.478
						c-14.247,0-26.448,9.696-29.657,23.572c-0.441,1.926-1.813,3.521-3.653,4.272c-1.837,0.738-3.919,0.549-5.585-0.538
						C593.397,100.654,589.972,99.634,586.507,99.634z"/>
				</g>
			</g>
			<path fill="none" stroke="#000000" stroke-width="7" stroke-miterlimit="10" d="M679.429,311.87
				c14.445,29.266,4.884,63.481-21.352,76.429c-26.235,12.948-59.208-0.281-73.65-29.545s-4.882-63.48,21.354-76.43
				C632.016,269.376,664.988,282.608,679.429,311.87z"/>
			
				<ellipse transform="matrix(-0.8967 -0.4425 0.4425 -0.8967 792.4048 855.5055)" fill="none" stroke="#000000" stroke-width="7" stroke-miterlimit="10" cx="496.004" cy="335.312" rx="52.971" ry="59.087"/>
			<polyline fill="none" stroke="#000000" stroke-width="6" stroke-miterlimit="10" points="391.271,241.775 412.108,230.998 
				465.827,290.151 			"/>
			<polyline fill="none" stroke="#000000" stroke-width="6" stroke-miterlimit="10" points="676.892,307.232 713.714,258.629 
				738.983,260.574 			"/>
			
				<line fill="none" stroke="#000000" stroke-width="6" stroke-miterlimit="10" x1="549.963" y1="324.659" x2="577.695" y2="324.659"/>
			<g>
				<g>
					<path fill="#B8BABC" d="M728.476,557.455c0,8.729-7.077,15.808-15.808,15.808H417.585c-8.73,0-15.808-7.079-15.808-15.808
						V401.356c0-8.73,7.077-15.807,15.808-15.807h295.083c8.73,0,15.808,7.076,15.808,15.807V557.455z"/>
				</g>
				<defs>
					
						<filter id="Adobe_OpacityMaskFilter_3_" filterUnits="userSpaceOnUse" x="401.777" y="385.55" width="326.698" height="187.713">
						
							<feColorMatrix  type="matrix" values="-1 0 0 0 1  0 -1 0 0 1  0 0 -1 0 1  0 0 0 1 0" color-interpolation-filters="sRGB" result="source"/>
					</filter>
				</defs>
				<mask maskUnits="userSpaceOnUse" x="401.777" y="385.55" width="326.698" height="187.713" id="SVGID_4_">
					<g filter="url(#Adobe_OpacityMaskFilter_3_)">
						
							<image overflow="visible" width="1378" height="799" xlink:href="7DA5B0E9.jpg"  transform="matrix(0.24 0 0 0.24 399.7773 383.5498)">
						</image>
					</g>
				</mask>
				<g opacity="0.28" mask="url(#SVGID_4_)">
					<path fill="#939598" d="M728.476,557.455c0,8.729-7.077,15.808-15.808,15.808H417.585c-8.73,0-15.808-7.079-15.808-15.808
						V401.356c0-8.73,7.077-15.807,15.808-15.807h295.083c8.73,0,15.808,7.076,15.808,15.807V557.455z"/>
				</g>
			</g>
			<path fill="#005198" d="M561.23,558.348c7.956,17.654,0.744,30.712-25.1,30.712s-30.92-11.836-26.588-30.712
				c4.568-19.895,11.571-35.058,25.844-35.058C549.661,523.29,552.535,539.053,561.23,558.348z"/>
			<path fill="#005198" d="M621.99,558.348c7.956,17.654,0.744,30.712-25.1,30.712c-25.843,0-30.919-11.836-26.587-30.712
				c4.568-19.895,11.571-35.058,25.844-35.058C610.421,523.29,613.295,539.053,621.99,558.348z"/>
			<g>
				<path fill="#FFFFFF" stroke="#FFFFFF" stroke-miterlimit="10" d="M572.638,489.945h-22.399c-7.722,0-14.007-6.284-14.007-14.006
					c0-7.717,6.285-14,14.007-14c1.492,0,2.967,0.24,4.373,0.71c3.021-7.155,10.021-11.91,18.026-11.91
					c10.81,0,19.6,8.791,19.6,19.6C592.237,481.151,583.447,489.945,572.638,489.945z M550.238,467.538
					c-4.638,0-8.405,3.771-8.405,8.401s3.768,8.4,8.405,8.4h22.399c7.721,0,13.998-6.279,13.998-14.001
					c0-7.721-6.277-13.999-13.998-13.999c-6.544,0-12.149,4.453-13.623,10.828c-0.203,0.884-0.834,1.617-1.679,1.962
					c-0.845,0.34-1.801,0.253-2.565-0.247C553.402,468.007,551.829,467.538,550.238,467.538z"/>
			</g>
		</g>
	</g>
</g>
<g>
	<path fill="#FFFFFF" d="M456.049,67.555c0,0.591-0.479,1.071-1.071,1.071h-4.64v4.64c0,0.591-0.479,1.071-1.071,1.071h-2.142
		c-0.591,0-1.071-0.479-1.071-1.071v-4.64h-4.64c-0.591,0-1.071-0.479-1.071-1.071v-2.142c0-0.591,0.479-1.071,1.071-1.071h4.64
		v-4.64c0-0.591,0.479-1.071,1.071-1.071h2.142c0.591,0,1.071,0.479,1.071,1.071v4.64h4.64c0.591,0,1.071,0.479,1.071,1.071V67.555z
		"/>
</g>
<g>
	<path fill="#FFFFFF" d="M538.525,70.264c0,0.355-0.288,0.643-0.643,0.643h-2.787v2.787c0,0.355-0.288,0.643-0.643,0.643h-1.286
		c-0.355,0-0.643-0.288-0.643-0.643v-2.787h-2.787c-0.355,0-0.643-0.288-0.643-0.643v-1.286c0-0.355,0.288-0.643,0.643-0.643h2.787
		v-2.787c0-0.355,0.288-0.643,0.643-0.643h1.286c0.355,0,0.643,0.288,0.643,0.643v2.787h2.787c0.355,0,0.643,0.288,0.643,0.643
		V70.264z"/>
</g>
<g>
	<path fill="#FFFFFF" d="M191.311,56.283c0,0.591-0.479,1.071-1.071,1.071h-4.64v4.64c0,0.591-0.479,1.071-1.071,1.071h-2.142
		c-0.591,0-1.071-0.479-1.071-1.071v-4.64h-4.64c-0.591,0-1.071-0.479-1.071-1.071v-2.142c0-0.591,0.479-1.071,1.071-1.071h4.64
		v-4.64c0-0.591,0.479-1.071,1.071-1.071h2.142c0.591,0,1.071,0.479,1.071,1.071v4.64h4.64c0.591,0,1.071,0.479,1.071,1.071V56.283z
		"/>
</g>
<g>
	<path fill="#FFFFFF" d="M215.741,126.421c0,0.325-0.264,0.589-0.589,0.589H212.6v2.552c0,0.325-0.264,0.589-0.589,0.589h-1.178
		c-0.325,0-0.589-0.264-0.589-0.589v-2.552h-2.552c-0.325,0-0.589-0.264-0.589-0.589v-1.178c0-0.325,0.264-0.589,0.589-0.589h2.552
		v-2.552c0-0.325,0.264-0.589,0.589-0.589h1.178c0.325,0,0.589,0.264,0.589,0.589v2.552h2.552c0.325,0,0.589,0.264,0.589,0.589
		V126.421z"/>
</g>
<g>
	<path fill="#FFFFFF" d="M222.809,566.481c0,0.591-0.479,1.07-1.071,1.07h-4.64v4.641c0,0.591-0.479,1.07-1.071,1.07h-2.142
		c-0.591,0-1.071-0.479-1.071-1.07v-4.641h-4.64c-0.591,0-1.071-0.479-1.071-1.07v-2.143c0-0.591,0.479-1.07,1.071-1.07h4.64v-4.641
		c0-0.591,0.479-1.07,1.071-1.07h2.142c0.591,0,1.071,0.479,1.071,1.07v4.641h4.64c0.591,0,1.071,0.479,1.071,1.07V566.481z"/>
</g>
<g>
	<path fill="#FFFFFF" d="M319.461,307.553c0,0.591-0.479,1.071-1.071,1.071h-4.64v4.64c0,0.591-0.479,1.071-1.071,1.071h-2.142
		c-0.591,0-1.071-0.479-1.071-1.071v-4.64h-4.64c-0.591,0-1.071-0.479-1.071-1.071v-2.142c0-0.591,0.479-1.071,1.071-1.071h4.64
		v-4.64c0-0.591,0.479-1.071,1.071-1.071h2.142c0.591,0,1.071,0.479,1.071,1.071v4.64h4.64c0.591,0,1.071,0.479,1.071,1.071V307.553
		z"/>
</g>
<g>
	<path fill="#FFFFFF" d="M351.629,529.218c0,0.592-0.479,1.071-1.071,1.071h-4.64v4.64c0,0.592-0.479,1.071-1.071,1.071h-2.142
		c-0.591,0-1.071-0.479-1.071-1.071v-4.64h-4.64c-0.591,0-1.071-0.479-1.071-1.071v-2.141c0-0.592,0.479-1.071,1.071-1.071h4.64
		v-4.64c0-0.592,0.479-1.071,1.071-1.071h2.142c0.591,0,1.071,0.479,1.071,1.071v4.64h4.64c0.591,0,1.071,0.479,1.071,1.071V529.218
		z"/>
</g>
<g>
	<path fill="#FFFFFF" d="M788.549,556.909c0,0.591-0.479,1.07-1.07,1.07h-4.641v4.641c0,0.591-0.479,1.07-1.07,1.07h-2.142
		c-0.591,0-1.071-0.479-1.071-1.07v-4.641h-4.64c-0.591,0-1.071-0.479-1.071-1.07v-2.143c0-0.591,0.48-1.07,1.071-1.07h4.64v-4.641
		c0-0.591,0.48-1.07,1.071-1.07h2.142c0.592,0,1.07,0.479,1.07,1.07v4.641h4.641c0.592,0,1.07,0.479,1.07,1.07V556.909z"/>
</g>
<g>
	<path fill="#FFFFFF" d="M920.543,79.07c0,0.591-0.48,1.071-1.071,1.071h-4.64v4.64c0,0.591-0.48,1.071-1.071,1.071h-2.142
		c-0.592,0-1.07-0.479-1.07-1.071v-4.64h-4.641c-0.592,0-1.07-0.479-1.07-1.071v-2.142c0-0.591,0.479-1.071,1.07-1.071h4.641v-4.64
		c0-0.591,0.479-1.071,1.07-1.071h2.142c0.591,0,1.071,0.479,1.071,1.071v4.64h4.64c0.591,0,1.071,0.479,1.071,1.071V79.07z"/>
</g>
<g>
	<path fill="#FFFFFF" d="M708.59,53.135c0,0.591-0.48,1.071-1.071,1.071h-4.64v4.64c0,0.591-0.48,1.071-1.071,1.071h-2.142
		c-0.592,0-1.07-0.479-1.07-1.071v-4.64h-4.641c-0.592,0-1.07-0.479-1.07-1.071v-2.142c0-0.591,0.479-1.071,1.07-1.071h4.641v-4.64
		c0-0.591,0.479-1.071,1.07-1.071h2.142c0.591,0,1.071,0.479,1.071,1.071v4.64h4.64c0.591,0,1.071,0.479,1.071,1.071V53.135z"/>
</g>
<g>
	<path fill="#FFFFFF" d="M782.275,354.036c0,0.355-0.289,0.644-0.644,0.644h-2.786v2.786c0,0.355-0.289,0.644-0.644,0.644h-1.286
		c-0.355,0-0.643-0.288-0.643-0.644v-2.786h-2.787c-0.355,0-0.643-0.288-0.643-0.644v-1.285c0-0.355,0.287-0.644,0.643-0.644h2.787
		v-2.786c0-0.355,0.287-0.644,0.643-0.644h1.286c0.354,0,0.644,0.288,0.644,0.644v2.786h2.786c0.354,0,0.644,0.288,0.644,0.644
		V354.036z"/>
</g>
<g>
	<path fill="#FFFFFF" d="M307.17,559.618c0,0.354-0.288,0.643-0.643,0.643h-2.787v2.787c0,0.354-0.288,0.643-0.643,0.643h-1.286
		c-0.355,0-0.643-0.288-0.643-0.643v-2.787h-2.787c-0.355,0-0.643-0.288-0.643-0.643v-1.287c0-0.354,0.288-0.643,0.643-0.643h2.787
		v-2.787c0-0.354,0.288-0.643,0.643-0.643h1.286c0.355,0,0.643,0.288,0.643,0.643v2.787h2.787c0.355,0,0.643,0.288,0.643,0.643
		V559.618z"/>
</g>
<g>
	<path fill="#FFFFFF" d="M907.127,155.441c0,0.355-0.288,0.643-0.643,0.643h-2.787v2.787c0,0.355-0.288,0.643-0.643,0.643h-1.287
		c-0.354,0-0.643-0.288-0.643-0.643v-2.787h-2.787c-0.354,0-0.643-0.288-0.643-0.643v-1.286c0-0.355,0.288-0.643,0.643-0.643h2.787
		v-2.787c0-0.355,0.288-0.643,0.643-0.643h1.287c0.354,0,0.643,0.288,0.643,0.643v2.787h2.787c0.354,0,0.643,0.288,0.643,0.643
		V155.441z"/>
</g>
<g>
	<path fill="#FFFFFF" d="M958.039,562.399c0,0.592-0.479,1.071-1.07,1.071h-4.641v4.64c0,0.592-0.479,1.071-1.07,1.071h-2.142
		c-0.591,0-1.071-0.479-1.071-1.071v-4.64h-4.64c-0.591,0-1.071-0.479-1.071-1.071v-2.141c0-0.592,0.48-1.071,1.071-1.071h4.64
		v-4.64c0-0.592,0.48-1.071,1.071-1.071h2.142c0.592,0,1.07,0.479,1.07,1.071v4.64h4.641c0.592,0,1.07,0.479,1.07,1.071V562.399z"/>
</g>
<g>
	<path fill="#FFFFFF" d="M644.758,190.26c0,0.591-0.48,1.071-1.071,1.071h-4.64v4.64c0,0.591-0.48,1.071-1.071,1.071h-2.142
		c-0.592,0-1.07-0.479-1.07-1.071v-4.64h-4.641c-0.592,0-1.07-0.479-1.07-1.071v-2.142c0-0.591,0.479-1.071,1.07-1.071h4.641v-4.64
		c0-0.591,0.479-1.071,1.07-1.071h2.142c0.591,0,1.071,0.479,1.071,1.071v4.64h4.64c0.591,0,1.071,0.479,1.071,1.071V190.26z"/>
</g>
</svg>
