<?xml version="1.0" encoding="utf-8"?>
<!-- Generator: Adobe Illustrator 16.0.0, SVG Export Plug-In . SVG Version: 6.00 Build 0)  -->
<!DOCTYPE svg PUBLIC "-//W3C//DTD SVG 1.1//EN" "http://www.w3.org/Graphics/SVG/1.1/DTD/svg11.dtd">
<svg version="1.1" id="Layer_1" xmlns="http://www.w3.org/2000/svg" xmlns:xlink="http://www.w3.org/1999/xlink" x="0px" y="0px"
	 width="128.866px" height="47.938px" viewBox="0 0 128.866 47.938" enable-background="new 0 0 128.866 47.938"
	 xml:space="preserve">
<polygon fill="#FFFFFF" points="51.473,37.794 51.488,37.784 51.473,37.775 51.473,13.845 43.444,18.499 43.444,33.103 30.74,25.71 
	10.108,37.659 17.118,42.03 30.746,33.859 44.477,42.149 51.456,37.804 51.473,37.813 "/>
<polygon fill="#FFFFFF" points="51.488,10.262 44.477,5.898 30.847,14.076 17.118,5.789 10.148,10.125 10.127,10.113 10.127,10.138 
	10.108,10.15 10.127,10.161 10.127,34.093 18.152,29.437 18.152,14.83 30.854,22.218 37.736,18.235 37.732,18.232 "/>
<g>
	<g>
		<g>
			<g>
				<g>
					<path fill="#FFFFFF" d="M73.882,8.902h0.826v13.351h-2.665l0.025-7.333l-3.369,3.527l-3.364-3.527v7.333h-2.668V8.902h0.845
						l5.188,5.781L73.882,8.902z"/>
				</g>
			</g>
			<g>
				<g>
					<path fill="#FFFFFF" d="M77.673,22.252V9.114h2.634v13.139H77.673z"/>
				</g>
			</g>
			<g>
				<g>
					<path fill="#FFFFFF" d="M83.264,9.114h2.631c0,1.747,0,3.493,0,5.231l3.308-5.231h3.073L88.015,15.6l4.629,6.652h-3.256
						l-3.493-5.144c0,1.689,0,3.454,0,5.144h-2.631V9.114z"/>
				</g>
			</g>
			<g>
				<g>
					<path fill="#FFFFFF" d="M100.922,22.252l-2.648-5.015h-1.267v5.015h-2.636V9.114h5.188c4.687,0,5.151,6.595,1.291,7.722
						l3.049,5.417H100.922z M97.007,14.683h2.314c1.78,0,1.78-2.942,0-2.942h-2.314V14.683z"/>
				</g>
			</g>
			<g>
				<g>
					<path fill="#FFFFFF" d="M111.971,8.89c9.049,0,9.049,13.547,0,13.547C102.927,22.437,102.927,8.89,111.971,8.89z
						 M111.971,11.591c-5.256,0-5.256,8.128,0,8.128C117.233,19.719,117.233,11.591,111.971,11.591z"/>
				</g>
			</g>
		</g>
	</g>
	<path fill="#FFFFFF" d="M66.692,39.052L61.307,25.63h2.963l2.647,6.711l2.574-6.582h0.126l2.572,6.582l2.653-6.711h2.959
		l-5.367,13.367H71.95l-2.406-5.83l-2.389,5.885H66.692z"/>
	<path fill="#FFFFFF" d="M82.325,25.147H82.6l5.537,13.633h-2.961l-0.529-1.418h-4.364l-0.511,1.418h-2.98L82.325,25.147z
		 M83.67,34.896l-1.2-3.418l-1.224,3.418H83.67z"/>
	<path fill="#FFFFFF" d="M91.615,32.854l-4.582-7.225h3.202l2.684,4.518l2.68-4.518h3.223l-4.595,7.225v5.926h-2.611V32.854z"/>
	<path fill="#FFFFFF" d="M100.055,35.173c1.508,1.064,3.146,1.102,3.751,1.045c0.776-0.053,1.436-0.607,1.362-1.322
		c-0.059-0.758-0.629-1.086-1.362-1.342c-2.059-0.754-3.896-1.797-3.896-4.014c0-2.199,1.527-3.895,3.708-4.002
		c0.683-0.041,1.585-0.041,3.277,0.547l-0.33,2.539c-1.456-0.586-2.276-0.566-2.685-0.547c-0.94,0.051-1.361,0.732-1.305,1.463
		c0.071,0.74,0.717,1.07,1.469,1.328c2.04,0.756,3.808,1.932,3.808,4.027c0,2.186-1.509,3.869-3.972,3.994
		c-0.743,0.049-2.37-0.041-4.152-0.957L100.055,35.173z"/>
</g>
</svg>
