<?xml version="1.0" encoding="utf-8"?>
<!-- Generator: Adobe Illustrator 16.0.0, SVG Export Plug-In . SVG Version: 6.00 Build 0)  -->
<!DOCTYPE svg PUBLIC "-//W3C//DTD SVG 1.1//EN" "http://www.w3.org/Graphics/SVG/1.1/DTD/svg11.dtd">
<svg version="1.1" id="Layer_1" xmlns="http://www.w3.org/2000/svg" xmlns:xlink="http://www.w3.org/1999/xlink" x="0px" y="0px"
	 width="54.333px" height="47.333px" viewBox="0 0 54.333 47.333" enable-background="new 0 0 54.333 47.333" xml:space="preserve">
<g>
	<g opacity="0.1">
		<polygon points="18.334,18.565 30.516,25.651 37.115,21.831 37.112,21.829 50.305,14.185 43.58,9.999 30.509,17.842 17.342,9.894 
			10.639,14.065 10.598,14.056 10.616,37.018 18.334,32.573 		"/>
		<polygon points="50.289,40.57 50.289,17.62 42.59,22.083 42.59,36.089 42.614,36.104 30.406,29 10.62,40.459 17.342,44.651 
			30.412,36.815 43.58,44.766 50.231,40.625 50.289,40.659 50.289,40.588 50.305,40.579 		"/>
	</g>
	<g>
		<g>
			<g>
				<polygon fill="#FFFFFF" points="12.665,12.896 24.847,19.982 31.446,16.162 31.443,16.16 44.636,8.515 37.911,4.33 
					24.839,12.172 11.673,4.224 4.97,8.396 4.929,8.386 4.946,31.349 12.665,26.904 				"/>
			</g>
			<g>
				<polygon fill="#FFFFFF" points="44.62,34.901 44.62,11.951 36.921,16.414 36.921,30.42 36.945,30.435 24.737,23.332 
					4.95,34.791 11.673,38.982 24.743,31.146 37.911,39.097 44.563,34.956 44.62,34.99 44.62,34.919 44.636,34.91 				"/>
			</g>
		</g>
	</g>
</g>
</svg>
