<?xml version="1.0" encoding="utf-8"?>
<!-- Generator: Adobe Illustrator 16.0.0, SVG Export Plug-In . SVG Version: 6.00 Build 0)  -->
<!DOCTYPE svg PUBLIC "-//W3C//DTD SVG 1.1//EN" "http://www.w3.org/Graphics/SVG/1.1/DTD/svg11.dtd">
<svg version="1.1" id="Layer_1" xmlns="http://www.w3.org/2000/svg" xmlns:xlink="http://www.w3.org/1999/xlink" x="0px" y="0px"
	 width="312px" height="669.445px" viewBox="138.14 0 312 669.445" enable-background="new 138.14 0 312 669.445"
	 xml:space="preserve">
<circle fill="#FFFFFF" cx="297.64" cy="134.88" r="19.843"/>
<path fill="#FFFFFF" d="M297.64,52.202c-54.792,0-99.213,44.428-99.213,99.227v165.329c0,54.799,44.421,99.227,99.213,99.227
	c54.793,0,99.213-44.428,99.213-99.227V151.428C396.853,96.63,352.433,52.202,297.64,52.202z M383.625,316.758
	c0,47.418-38.574,85.998-85.984,85.998c-47.411,0-85.985-38.58-85.985-85.998V151.428c0-47.417,38.574-85.998,85.985-85.998
	c47.41,0,85.984,38.581,85.984,85.998V316.758z"/>
<path fill="#FFFFFF" d="M385.564,444.38l-87.924,87.923l-87.923-87.923c-2.586-2.586-6.767-2.586-9.353,0s-2.586,6.767,0,9.353
	l92.599,92.599c1.29,1.29,2.983,1.938,4.676,1.938s3.387-0.648,4.676-1.938l92.6-92.599c2.586-2.586,2.586-6.767,0-9.353
	S388.15,441.794,385.564,444.38z"/>
<path fill="#FFFFFF" d="M385.564,536.978l-87.924,87.923l-87.923-87.923c-2.586-2.586-6.767-2.586-9.353,0
	c-2.586,2.587-2.586,6.767,0,9.353l92.599,92.6c1.29,1.29,2.983,1.938,4.676,1.938s3.387-0.647,4.676-1.938l92.6-92.6
	c2.586-2.586,2.586-6.766,0-9.353C392.33,534.392,388.15,534.392,385.564,536.978z"/>
</svg>
