<?xml version="1.0" encoding="utf-8"?>
<!-- Generator: Adobe Illustrator 16.0.0, SVG Export Plug-In . SVG Version: 6.00 Build 0)  -->
<!DOCTYPE svg PUBLIC "-//W3C//DTD SVG 1.1//EN" "http://www.w3.org/Graphics/SVG/1.1/DTD/svg11.dtd">
<svg version="1.1" xmlns="http://www.w3.org/2000/svg" xmlns:xlink="http://www.w3.org/1999/xlink" x="0px" y="0px"
	 width="28.167px" height="25.832px" viewBox="0 0 28.167 25.832" enable-background="new 0 0 28.167 25.832" xml:space="preserve">
<g id="Layer_2" display="none">
	<circle display="inline" fill="#3E54A5" cx="14.083" cy="12.916" r="11.915"/>
	<path display="inline" fill="#FFFFFF" d="M21.319,17.437c0,1.5-1.215,2.714-2.713,2.714H9.561c-1.498,0-2.713-1.214-2.713-2.714
		V8.395c0-1.5,1.215-2.715,2.713-2.715h9.045c1.498,0,2.713,1.215,2.713,2.715V17.437z M10.183,8.112
		c-0.744,0-1.234,0.489-1.234,1.129c0,0.622,0.471,1.132,1.206,1.132h0.01c0.764,0,1.234-0.51,1.234-1.132
		C11.388,8.601,10.928,8.112,10.183,8.112z M11.256,17.796v-6.538H9.081v6.538H11.256z M19.086,17.796v-3.749
		c0-2.007-1.074-2.94-2.506-2.94c-1.169,0-1.688,0.65-1.969,1.103h0.018v-0.951h-2.176c0,0,0.028,0.611,0,6.538h2.176v-3.655
		c0-0.189,0.01-0.386,0.065-0.528c0.162-0.386,0.52-0.791,1.122-0.791c0.782,0,1.094,0.593,1.094,1.479v3.495H19.086z"/>
</g>
<g id="Layer_1" display="none">
	<circle display="inline" fill="#F26322" cx="14.083" cy="12.917" r="11.915"/>
	<text transform="matrix(1 0 0 1 7.1191 18.4399)" display="inline" fill="#FFFFFF" font-family="'FontAwesome'" font-size="15"></text>
</g>
<g id="Layer_3">
	<circle fill="#00AEEF" cx="14.083" cy="12.916" r="11.915"/>
	<path fill="#FFFFFF" d="M19.98,9.892c0.011,0.131,0.011,0.263,0.011,0.396c0,4.022-3.063,8.658-8.658,8.658
		c-1.725,0-3.326-0.499-4.673-1.366c0.245,0.028,0.479,0.038,0.733,0.038c1.423,0,4.033-0.481,5.079-1.301
		c-1.338-0.028-3.759-0.904-4.146-2.11c0.188,0.028,0.377,0.048,0.574,0.048c0.273,0,0.546-0.038,0.802-0.104
		c-1.396-0.282-2.44-1.507-2.44-2.985v-0.038c0.405,0.226,0.876,0.366,1.375,0.386c-0.82-0.546-1.356-1.479-1.356-2.534
		c0-0.565,0.15-1.084,0.415-1.535c1.497,1.847,3.749,3.053,6.274,3.184c-0.048-0.227-0.075-0.461-0.075-0.697
		c0-1.677,1.355-3.043,3.043-3.043c0.875,0,1.666,0.367,2.223,0.961c0.688-0.132,1.348-0.386,1.932-0.734
		c-0.226,0.707-0.707,1.3-1.338,1.677c0.611-0.066,1.206-0.235,1.752-0.471C21.092,8.921,20.575,9.458,19.98,9.892z"/>
</g>
<g id="Layer_4" display="none">
	<circle display="inline" fill="#26277F" cx="14.083" cy="12.916" r="11.915"/>
	<path display="inline" fill="#FFFFFF" d="M21.319,8.395v9.042c0,1.5-1.215,2.714-2.714,2.714h-1.771v-5.605h1.875l0.282-2.186
		h-2.157v-1.394c0-0.632,0.17-1.056,1.084-1.056l1.148-0.01V7.952c-0.198-0.029-0.885-0.085-1.677-0.085
		c-1.668,0-2.816,1.017-2.816,2.883v1.61H12.69v2.186h1.884v5.605H9.562c-1.499,0-2.714-1.214-2.714-2.714V8.395
		c0-1.5,1.215-2.715,2.714-2.715h9.043C20.104,5.68,21.319,6.895,21.319,8.395z"/>
</g>
</svg>
