<?xml version="1.0" encoding="utf-8"?>
<!-- Generator: Adobe Illustrator 16.0.0, SVG Export Plug-In . SVG Version: 6.00 Build 0)  -->
<!DOCTYPE svg PUBLIC "-//W3C//DTD SVG 1.1//EN" "http://www.w3.org/Graphics/SVG/1.1/DTD/svg11.dtd">
<svg version="1.1" id="Layer_6" xmlns="http://www.w3.org/2000/svg" xmlns:xlink="http://www.w3.org/1999/xlink" x="0px" y="0px"
	 width="622.253px" height="531.177px" viewBox="0 0 622.253 531.177" enable-background="new 0 0 622.253 531.177"
	 xml:space="preserve">
<rect x="249.492" y="38.662" fill="#737577" width="344.951" height="242.428"/>
<g>
	<g>
		<rect x="262.207" y="58.979" fill="#FFFFFF" width="315.217" height="199.077"/>
	</g>
	<defs>
		<filter id="Adobe_OpacityMaskFilter" filterUnits="userSpaceOnUse" x="262.207" y="58.979" width="315.217" height="199.077">
			
				<feColorMatrix  type="matrix" values="-1 0 0 0 1  0 -1 0 0 1  0 0 -1 0 1  0 0 0 1 0" color-interpolation-filters="sRGB" result="source"/>
		</filter>
	</defs>
	<mask maskUnits="userSpaceOnUse" x="262.207" y="58.979" width="315.217" height="199.077" id="SVGID_1_">
		<g filter="url(#Adobe_OpacityMaskFilter)">
			
				<image overflow="visible" width="1331" height="847" xlink:href="6CB4194E.jpg"  transform="matrix(0.24 0 0 0.24 260.207 56.9785)">
			</image>
		</g>
	</mask>
	<g opacity="0.28" mask="url(#SVGID_1_)">
		<rect x="262.207" y="58.979" fill="#939598" width="315.217" height="199.077"/>
	</g>
</g>
<path fill="#008C3F" d="M120.796,293.343c-0.851,1.494-45.768,13.617,0,37.566l-0.851-36.072"/>
<path fill="#6CBE45" d="M116.753,312.328c-0.26,1.25-27.238,18.307,10.561,24.781l-10.82-23.531"/>
<g>
	<g>
		
			<image overflow="visible" opacity="0.3" width="475" height="270" xlink:href="6CB41952.png"  transform="matrix(0.24 0 0 0.24 171.2471 250.9175)">
		</image>
		<g>
			<path fill="#008C3F" d="M180.247,304.539c0.081-0.271,7.166-0.664,7.639-0.715c6.324-0.697,12.443-1.951,18.58-3.639
				c15.539-4.271,54.461-10.271,63.91-23.898c2.351-3.389,5.833-8.328,5.636-12.688c-0.255-5.715-5.954-7.061-9.924-4.299
				c0,0-63.026,43.949-84.733,41.535L180.247,304.539z"/>
		</g>
	</g>
	<path fill="#008C3F" d="M256.28,303.673c-0.512,1.477-2.128,2.26-3.607,1.748l-0.785-0.273c-1.479-0.514-2.26-2.129-1.748-3.607
		l49.803-139.29c0.513-1.479,0.924-2.987,2.402-2.474l0.785,0.272c1.479,0.513,0.634,1.673,0.121,3.151L256.28,303.673z"/>
	<path fill="#008C3F" d="M253.246,305.556c0,0,45.637-128.192,49.884-145.506c0,0,1.055,0.196,0.77,1.389l-47.578,142.118
		C256.321,303.556,255.528,306.126,253.246,305.556z"/>
	
		<ellipse transform="matrix(0.9447 0.3279 -0.3279 0.9447 102.6548 -72.4086)" fill="#008C3F" cx="266.022" cy="268.172" rx="10.062" ry="13.187"/>
</g>
<path fill="#6CBE45" d="M149.169,306.33c22.464,1.557,44.771,5.191,66.473,11.197c7.743,2.143,19.152,4.629,22.231,13.227
	c3.129,8.736-2.468,12.826-10.45,13.975c-11.018,1.586-14.921-10.688-21.932-16.357c-8.029-6.494-17.389-10.279-27.386-12.828
	c-9.301-2.371-19.364-3.121-28.937-3.283V306.33z"/>
<g>
	<g>
		<ellipse fill="#008C3F" cx="152.107" cy="312.126" rx="36.494" ry="36.563"/>
	</g>
	<defs>
		<filter id="Adobe_OpacityMaskFilter_1_" filterUnits="userSpaceOnUse" x="115.613" y="275.562" width="72.987" height="73.127">
			
				<feColorMatrix  type="matrix" values="-1 0 0 0 1  0 -1 0 0 1  0 0 -1 0 1  0 0 0 1 0" color-interpolation-filters="sRGB" result="source"/>
		</filter>
	</defs>
	<mask maskUnits="userSpaceOnUse" x="115.613" y="275.562" width="72.987" height="73.127" id="SVGID_2_">
		<g filter="url(#Adobe_OpacityMaskFilter_1_)">
			
				<image overflow="visible" width="321" height="322" xlink:href="6CB41952.jpg"  transform="matrix(0.24 0 0 0.24 113.6133 273.562)">
			</image>
		</g>
	</mask>
	<g opacity="0.44" mask="url(#SVGID_2_)">
		<ellipse fill="#939598" cx="152.107" cy="312.126" rx="36.494" ry="36.563"/>
	</g>
</g>
<g>
	<g>
		<path fill="#6CBE45" d="M159.7,361.861c0,0,4.352-16.867,18.824-16.705c0,0,9.793-0.652,25.897,16.977c0,0,8.65,8.867-10.283,9.9
			c0,0-23.829,0.6-29.923-2.773C164.216,369.259,158.285,367.572,159.7,361.861z"/>
	</g>
	<defs>
		<filter id="Adobe_OpacityMaskFilter_2_" filterUnits="userSpaceOnUse" x="159.482" y="345.153" width="46.912" height="26.921">
			
				<feColorMatrix  type="matrix" values="-1 0 0 0 1  0 -1 0 0 1  0 0 -1 0 1  0 0 0 1 0" color-interpolation-filters="sRGB" result="source"/>
		</filter>
	</defs>
	<mask maskUnits="userSpaceOnUse" x="159.482" y="345.153" width="46.912" height="26.921" id="SVGID_3_">
		<g filter="url(#Adobe_OpacityMaskFilter_2_)">
			
				<image overflow="visible" width="213" height="129" xlink:href="6CB41956.jpg"  transform="matrix(0.24 0 0 0.24 157.4819 343.1528)">
			</image>
		</g>
	</mask>
	<g opacity="0.44" mask="url(#SVGID_3_)">
		<path fill="#939598" d="M159.7,361.861c0,0,4.352-16.867,18.824-16.705c0,0,9.793-0.652,25.897,16.977c0,0,8.65,8.867-10.283,9.9
			c0,0-23.829,0.6-29.923-2.773C164.216,369.259,158.285,367.572,159.7,361.861z"/>
	</g>
</g>
<g>
	<g>
		<path fill="#6CBE45" d="M146.353,361.861c0,0-4.352-16.867-18.824-16.705c0,0-9.792-0.652-25.896,16.977
			c0,0-8.651,8.867,10.282,9.9c0,0,23.829,0.6,29.923-2.773C141.837,369.259,147.768,367.572,146.353,361.861z"/>
	</g>
	<defs>
		<filter id="Adobe_OpacityMaskFilter_3_" filterUnits="userSpaceOnUse" x="99.659" y="345.153" width="46.912" height="26.921">
			
				<feColorMatrix  type="matrix" values="-1 0 0 0 1  0 -1 0 0 1  0 0 -1 0 1  0 0 0 1 0" color-interpolation-filters="sRGB" result="source"/>
		</filter>
	</defs>
	<mask maskUnits="userSpaceOnUse" x="99.659" y="345.153" width="46.912" height="26.921" id="SVGID_4_">
		<g filter="url(#Adobe_OpacityMaskFilter_3_)">
			
				<image overflow="visible" width="213" height="129" xlink:href="6CB41955.jpg"  transform="matrix(0.24 0 0 0.24 97.6592 343.1528)">
			</image>
		</g>
	</mask>
	<g opacity="0.44" mask="url(#SVGID_4_)">
		<path fill="#939598" d="M146.353,361.861c0,0-4.352-16.867-18.824-16.705c0,0-9.792-0.652-25.896,16.977
			c0,0-8.651,8.867,10.282,9.9c0,0,23.829,0.6,29.923-2.773C141.837,369.259,147.768,367.572,146.353,361.861z"/>
	</g>
</g>
<g>
	<g>
		<path fill="#6CBE45" d="M182.636,111.8c0,0,65.896,15.031,76.241,72.417c0,0,16.417,64.996-49.702,99.628
			c0,0-58.475,26.764-116.498-2.473c0,0-35.534-16.867-44.529-59.148c0,0-19.566-76.015,66.568-107.5c0,0,10.863-5.141,35.279-6.039
			C149.995,108.686,165.245,107.724,182.636,111.8"/>
	</g>
	<defs>
		<filter id="Adobe_OpacityMaskFilter_4_" filterUnits="userSpaceOnUse" x="46.238" y="108.586" width="214.447" height="186.454">
			
				<feColorMatrix  type="matrix" values="-1 0 0 0 1  0 -1 0 0 1  0 0 -1 0 1  0 0 0 1 0" color-interpolation-filters="sRGB" result="source"/>
		</filter>
	</defs>
	<mask maskUnits="userSpaceOnUse" x="46.238" y="108.586" width="214.447" height="186.454" id="SVGID_5_">
		<g filter="url(#Adobe_OpacityMaskFilter_4_)">
			
				<image overflow="visible" width="911" height="794" xlink:href="6CB41953.jpg"  transform="matrix(0.24 0 0 0.24 44.2378 106.5864)">
			</image>
		</g>
	</mask>
	<g opacity="0.44" mask="url(#SVGID_5_)">
		<path fill="#939598" d="M182.636,111.8c0,0,65.896,15.031,76.241,72.417c0,0,16.417,64.996-49.702,99.628
			c0,0-58.475,26.764-116.498-2.473c0,0-35.534-16.867-44.529-59.148c0,0-19.566-76.015,66.568-107.5c0,0,10.863-5.141,35.279-6.039
			C149.995,108.686,165.245,107.724,182.636,111.8"/>
	</g>
</g>
<g>
	<g>
		<path fill="#6CBE45" d="M117.948,299.238c0,0,28.277,13.158,68.319,0c0,0,5.589,12.887-0.552,27.137c0,0-29.438,18.289-67.297,0
			C118.419,326.375,112.468,313.791,117.948,299.238z"/>
	</g>
	<defs>
		<filter id="Adobe_OpacityMaskFilter_5_" filterUnits="userSpaceOnUse" x="115.629" y="299.238" width="72.967" height="35.266">
			
				<feColorMatrix  type="matrix" values="-1 0 0 0 1  0 -1 0 0 1  0 0 -1 0 1  0 0 0 1 0" color-interpolation-filters="sRGB" result="source"/>
		</filter>
	</defs>
	<mask maskUnits="userSpaceOnUse" x="115.629" y="299.238" width="72.967" height="35.266" id="SVGID_6_">
		<g filter="url(#Adobe_OpacityMaskFilter_5_)">
			
				<image overflow="visible" width="321" height="164" xlink:href="6CB4195D.jpg"  transform="matrix(0.24 0 0 0.24 113.6289 297.2378)">
			</image>
		</g>
	</mask>
	<g opacity="0.44" mask="url(#SVGID_6_)">
		<path fill="#939598" d="M117.948,299.238c0,0,28.277,13.158,68.319,0c0,0,5.589,12.887-0.552,27.137c0,0-29.438,18.289-67.297,0
			C118.419,326.375,112.468,313.791,117.948,299.238z"/>
	</g>
</g>
<ellipse transform="matrix(0.8967 -0.4425 0.4425 0.8967 -61.6178 108.4169)" fill="#FFFFFF" stroke="#000000" stroke-width="5" stroke-miterlimit="10" cx="201.525" cy="186.254" rx="36.86" ry="41.116"/>
<ellipse transform="matrix(-0.8967 -0.4425 0.4425 -0.8967 120.4158 400.6028)" fill="#FFFFFF" stroke="#000000" stroke-width="5" stroke-miterlimit="10" cx="106.942" cy="186.254" rx="36.86" ry="41.116"/>
<g>
	
		<image overflow="visible" opacity="0.65" width="580" height="260" xlink:href="6CB4195E.png"  transform="matrix(0.24 0 0 0.24 87.6016 224.3608)">
	</image>
	<g>
		<path d="M107.14,238.166c0.494,0.154,0.901,0.289,1.184,0.379c4.758,1.527,9.086,2.092,14.048,2.521
			c14.71,1.273,29.289,1.826,44.034,0.365c8.976-0.891,18.488-2.543,27.016-5.574c0.008-0.002,18.943-6.732,23.993,0
			c0,0,7.577,13.471-26.097,32.834c0,0-39.569,21.467-71.14,0c0,0-25.669-12.627-23.994-29.039
			C96.636,235.236,103.845,237.138,107.14,238.166z"/>
	</g>
</g>
<path fill="#D01E47" d="M144.063,277.673c0,0,3.056-29.188,26.628-16.561c0,0,15.852-17.494,24.342,5.354
	C195.032,266.466,172.164,280.791,144.063,277.673z"/>
<ellipse cx="126.072" cy="196.608" rx="7.577" ry="13.889"/>
<ellipse cx="181.043" cy="196.608" rx="7.577" ry="13.889"/>
<ellipse fill="#D01E47" cx="153.854" cy="220.906" rx="12.207" ry="5.678"/>
<g>
	<path fill="#2E2E2F" d="M104.75,73.554l-9.212,35.538c0,0-3.93,14.372,13.238,22.487c0,0,61.482,30.495,118.339,26.346
		c0,0,18.765,1.71,21.913-13.031l9.408-37.119l-93.67-37.082L104.75,73.554z"/>
	<path d="M102.337,82.867l73.105,42.994c0,0,79.741-5.252,80.114-6.724c0.376-1.474,2.88-11.363,2.88-11.363l-81.525,5.892
		L104.75,73.554L102.337,82.867z"/>
	<polygon fill="#414042" points="52.869,38.8 178.345,108.616 316.937,99.187 194.746,29.491 	"/>
	<polygon points="52.869,38.8 50.655,43.481 176.911,113.666 315.3,103.663 316.937,99.187 178.345,108.616 	"/>
	<path fill="#EBAC43" d="M189.371,61.56l93.165,37.379l-13.072,44.186c21.837,35.615-19.258,37.649-19.258,37.649
		c13.422-4.158,6.806-10.864,6.806-10.864c-14.423-19.469,7.595-27.677,7.595-27.677L275.582,102L187.2,68.171
		C187.2,68.171,182.628,62.639,189.371,61.56z"/>
</g>
<line fill="none" stroke="#000000" stroke-width="5" stroke-miterlimit="10" x1="144.063" y1="175.645" x2="163.787" y2="175.645"/>
<polyline fill="none" stroke="#000000" stroke-width="5" stroke-miterlimit="10" points="34.063,121.166 48.563,113.666 
	85.943,154.828 "/>
<polyline fill="none" stroke="#000000" stroke-width="5" stroke-miterlimit="10" points="232.813,166.714 258.437,132.894 
	276.02,134.247 "/>
<rect x="307.127" y="275.562" transform="matrix(0.9846 0.1747 -0.1747 0.9846 60.8566 -50.1603)" fill="#737577" width="16.319" height="89.919"/>
<rect x="510.048" y="275.562" transform="matrix(-0.9846 0.1747 -0.1747 -0.9846 1084.4489 545.5633)" fill="#737577" width="16.319" height="89.919"/>
<rect x="412.442" y="274.828" fill="#737577" width="16.499" height="42.043"/>
<polyline fill="none" stroke="#000000" stroke-width="5" stroke-linecap="round" stroke-linejoin="round" stroke-miterlimit="10" points="
	331.177,89.495 331.177,232.865 534.098,232.865 "/>
<rect x="341.696" y="192.563" fill="#FDBA12" width="22" height="34.019"/>
<rect x="370.3" y="175.897" fill="#005198" width="22" height="50.686"/>
<rect x="398.903" y="157.897" fill="#8CD6EC" width="22" height="68.686"/>
<rect x="427.507" y="139.23" fill="#D01E47" width="22" height="87.352"/>
<rect x="456.11" y="121.23" fill="#008C3F" width="22" height="105.352"/>
<rect x="484.714" y="108.563" fill="#005198" width="22" height="118.019"/>
<rect x="513.317" y="89.23" fill="#D01E47" width="22" height="137.352"/>
<g>
	<g>
		<g>
			<path fill="#005198" d="M627.536,796.857c0,0,45.141,10.297,52.229,49.609c0,0,11.246,44.523-34.048,68.248
				c0,0-40.058,18.334-79.807-1.694c0,0-24.342-11.555-30.504-40.519c0,0-13.404-52.072,45.602-73.64c0,0,7.442-3.521,24.168-4.138
				C605.176,794.724,615.623,794.065,627.536,796.857"/>
		</g>
		<defs>
			
				<filter id="Adobe_OpacityMaskFilter_6_" filterUnits="userSpaceOnUse" x="534.098" y="794.656" width="146.905" height="127.728">
				
					<feColorMatrix  type="matrix" values="-1 0 0 0 1  0 -1 0 0 1  0 0 -1 0 1  0 0 0 1 0" color-interpolation-filters="sRGB" result="source"/>
			</filter>
		</defs>
		<mask maskUnits="userSpaceOnUse" x="534.098" y="794.656" width="146.905" height="127.728" id="SVGID_7_">
			<g filter="url(#Adobe_OpacityMaskFilter_6_)">
				
					<image overflow="visible" width="629" height="549" xlink:href="6CB4195E.jpg"  transform="matrix(0.24 0 0 0.24 532.0977 792.6567)">
				</image>
			</g>
		</mask>
		<g opacity="0.44" mask="url(#SVGID_7_)">
			<path fill="#939598" d="M627.536,796.857c0,0,45.141,10.297,52.229,49.609c0,0,11.246,44.523-34.048,68.248
				c0,0-40.058,18.334-79.807-1.694c0,0-24.342-11.555-30.504-40.519c0,0-13.404-52.072,45.602-73.64c0,0,7.442-3.521,24.168-4.138
				C605.176,794.724,615.623,794.065,627.536,796.857"/>
		</g>
	</g>
	<path fill="#005198" d="M592.982,740.134c-8.079-1.705-15.393-1.067-22.69,3.042c-7.3,4.112-11.635,10.036-14.364,17.829
		c-0.074,0.195-0.209,0.395-0.396,0.5c-0.537,0.304-5.827-1.154-6.144-1.717c-0.118-0.21-0.13-0.449-0.068-0.669
		c2.61-9.205,9.317-17.266,17.599-21.931s18.65-6.223,27.876-3.685c0.219,0.062,0.419,0.195,0.537,0.407
		c0.315,0.561-1.178,5.84-1.716,6.143C593.428,740.16,593.188,740.171,592.982,740.134z"/>
	<path fill="#0076B6" d="M590.203,750.081c-5.547-0.82-9.801-0.767-14.853,2.079c-7.065,3.979-9.651,11.97-9.909,12.114
		c-0.537,0.304-5.804-1.168-6.119-1.73c-0.105-0.186-0.119-0.427-0.057-0.646c1.829-6.545,6.84-12.418,12.711-15.726
		c5.873-3.307,13.492-4.55,20.039-2.721c0.219,0.062,0.418,0.197,0.523,0.384c0.316,0.563-1.154,5.827-1.693,6.13
		C590.659,750.07,590.396,750.095,590.203,750.081z"/>
	<path fill="#005198" d="M580.41,761.143c-3.463,1.95-4.647,5.699-4.997,5.897c-0.563,0.315-5.852-1.143-6.169-1.704
		c-0.118-0.211-0.129-0.45-0.068-0.67c1.107-3.889,4.398-7.562,7.861-9.513c3.463-1.949,8.31-2.861,12.21-1.792
		c0.22,0.061,0.418,0.196,0.537,0.406c0.316,0.562-1.179,5.84-1.739,6.157C587.717,760.109,583.849,759.206,580.41,761.143z"/>
	<path fill="#005198" d="M579.215,768.103c-0.646-1.146,1.992-3.466,2.882-3.966s4.239-1.556,4.884-0.409
		c0.356,0.632-1.073,5.752-1.682,6.093C584.691,770.165,579.57,768.733,579.215,768.103z"/>
	<path fill="#005198" d="M586.98,763.728l8.395,36.202l-6.438,3.958c0,0,2.721-24.517-9.723-35.785"/>
	<path fill="#005198" d="M616.092,723.782c-0.58-0.326-2.191-6.021-1.852-6.626c0.129-0.228,0.344-0.372,0.58-0.438
		c9.95-2.737,21.133-1.057,30.064,3.974c8.933,5.03,16.166,13.725,18.981,23.652c0.066,0.237,0.054,0.495-0.074,0.723
		c-0.341,0.606-6.045,2.179-6.626,1.852c-0.202-0.113-0.347-0.329-0.428-0.54c-2.943-8.404-7.62-14.794-15.49-19.229
		c-7.871-4.433-15.76-5.12-24.473-3.281C616.553,723.909,616.295,723.895,616.092,723.782z"/>
	<path fill="#0076B6" d="M619.078,734.47c-0.58-0.327-2.167-6.006-1.826-6.612c0.114-0.201,0.328-0.346,0.564-0.413
		c7.061-1.972,15.279-0.633,21.612,2.935c6.333,3.566,11.737,9.9,13.711,16.961c0.065,0.237,0.053,0.495-0.061,0.697
		c-0.343,0.605-6.021,2.193-6.602,1.865c-0.277-0.155-3.067-8.773-10.687-13.064c-5.451-3.07-10.037-3.128-16.02-2.243
		C619.564,734.611,619.279,734.584,619.078,734.47z"/>
	<path fill="#005198" d="M622.1,745.213c-0.605-0.342-2.217-6.036-1.875-6.642c0.127-0.227,0.342-0.371,0.578-0.438
		c4.207-1.153,9.434-0.17,13.169,1.933c3.734,2.104,7.285,6.065,8.478,10.26c0.067,0.237,0.055,0.495-0.074,0.723
		c-0.341,0.605-6.045,2.178-6.651,1.837c-0.378-0.213-1.655-4.257-5.39-6.36C626.624,744.437,622.453,745.411,622.1,745.213z"/>
	<path fill="#005198" d="M625.062,755.886c-0.656-0.369-2.199-5.892-1.814-6.572c0.696-1.236,4.31-0.098,5.267,0.441
		c0.96,0.539,3.806,3.04,3.108,4.276C631.238,754.712,625.717,756.255,625.062,755.886z"/>
	<path fill="#005198" d="M623.247,749.314l-9.054,50.305l6.944,4.27c0,0-1.11-36.686,10.484-49.856"/>
</g>
<g>
	<defs>
		<rect id="SVGID_8_" y="319.91" width="623.187" height="211.268"/>
	</defs>
	<clipPath id="SVGID_9_">
		<use xlink:href="#SVGID_8_"  overflow="visible"/>
	</clipPath>
	<g clip-path="url(#SVGID_9_)">
		<g>
			<g>
				<path fill="#0076B6" d="M73.631,419.309l7.608,32.814l-5.836,3.588c0,0,2.467-22.222-8.812-32.436"/>
				<path fill="#0076B6" d="M107.75,408.241l-9.454,43.602l6.294,3.869c0,0-1.528-25.853,9.269-40.411"/>
				<path fill="#0076B6" d="M85.984,412.294c0,0.378-0.304,0.833-0.708,0.909l-4.671,0.706c-0.278,0.81-0.582,1.565-0.985,2.299
					c0.858,1.236,1.768,2.348,2.702,3.483c0.151,0.177,0.252,0.404,0.252,0.632c0,0.227-0.076,0.404-0.227,0.581
					c-0.607,0.809-4.016,4.52-4.874,4.52c-0.227,0-0.454-0.102-0.656-0.228l-3.484-2.727c-0.733,0.379-1.516,0.707-2.299,0.96
					c-0.176,1.54-0.328,3.181-0.732,4.696c-0.1,0.402-0.454,0.705-0.908,0.705H63.79c-0.455,0-0.859-0.326-0.91-0.757l-0.708-4.645
					c-0.782-0.253-1.54-0.556-2.272-0.936l-3.56,2.702c-0.177,0.151-0.404,0.228-0.632,0.228c-0.227,0-0.454-0.102-0.63-0.277
					c-1.339-1.212-3.105-2.778-4.167-4.242c-0.126-0.177-0.176-0.38-0.176-0.581c0-0.228,0.076-0.403,0.202-0.58
					c0.859-1.162,1.793-2.273,2.651-3.459c-0.429-0.81-0.782-1.642-1.034-2.501l-4.622-0.682c-0.429-0.075-0.731-0.479-0.731-0.908
					v-5.605c0-0.379,0.302-0.834,0.681-0.909l4.696-0.708c0.253-0.807,0.581-1.565,0.985-2.322
					c-0.858-1.212-1.768-2.348-2.702-3.483c-0.151-0.177-0.252-0.38-0.252-0.606c0-0.228,0.101-0.404,0.228-0.581
					c0.605-0.833,4.014-4.52,4.872-4.52c0.228,0,0.455,0.1,0.657,0.252l3.484,2.702c0.732-0.378,1.515-0.707,2.297-0.96
					c0.177-1.54,0.328-3.181,0.732-4.696c0.101-0.404,0.455-0.708,0.91-0.708h5.605c0.454,0,0.858,0.33,0.908,0.759l0.707,4.646
					c0.784,0.253,1.541,0.556,2.273,0.934l3.585-2.701c0.152-0.151,0.379-0.227,0.606-0.227c0.228,0,0.454,0.1,0.632,0.252
					c1.337,1.238,3.105,2.803,4.166,4.294c0.126,0.15,0.177,0.352,0.177,0.555c0,0.227-0.076,0.403-0.202,0.581
					c-0.858,1.161-1.792,2.271-2.651,3.459c0.429,0.807,0.784,1.641,1.036,2.474l4.62,0.707c0.429,0.076,0.733,0.48,0.733,0.909
					V412.294z M66.592,402.977c-3.561,0-6.463,2.903-6.463,6.464s2.903,6.464,6.463,6.464c3.56,0,6.464-2.903,6.464-6.464
					S70.152,402.977,66.592,402.977z"/>
				<path fill="#0076B6" d="M140.765,408.049c0,0.461-0.368,1.012-0.859,1.104l-5.676,0.859c-0.338,0.981-0.706,1.901-1.197,2.792
					c1.044,1.503,2.148,2.854,3.283,4.233c0.185,0.215,0.308,0.49,0.308,0.769c0,0.274-0.092,0.49-0.276,0.705
					c-0.736,0.981-4.879,5.491-5.922,5.491c-0.276,0-0.552-0.122-0.798-0.274l-4.234-3.315c-0.89,0.46-1.84,0.859-2.791,1.167
					c-0.215,1.871-0.399,3.865-0.891,5.706c-0.122,0.49-0.552,0.86-1.104,0.86h-6.812c-0.552,0-1.043-0.399-1.104-0.922
					l-0.859-5.645c-0.952-0.308-1.872-0.676-2.762-1.136l-4.325,3.284c-0.215,0.183-0.492,0.274-0.767,0.274
					c-0.276,0-0.552-0.122-0.767-0.337c-1.626-1.474-3.774-3.375-5.063-5.154c-0.154-0.215-0.215-0.461-0.215-0.705
					c0-0.278,0.092-0.491,0.246-0.707c1.043-1.411,2.178-2.76,3.221-4.202c-0.522-0.983-0.951-1.995-1.258-3.038l-5.615-0.829
					c-0.521-0.092-0.889-0.583-0.889-1.104v-6.812c0-0.461,0.368-1.014,0.829-1.105l5.707-0.859c0.306-0.98,0.705-1.9,1.196-2.821
					c-1.043-1.473-2.147-2.854-3.283-4.235c-0.185-0.214-0.307-0.46-0.307-0.736c0-0.275,0.123-0.491,0.276-0.707
					c0.736-1.011,4.878-5.49,5.922-5.49c0.275,0,0.552,0.122,0.797,0.307l4.235,3.283c0.889-0.46,1.841-0.859,2.792-1.167
					c0.215-1.871,0.398-3.865,0.89-5.706c0.123-0.491,0.552-0.86,1.104-0.86h6.812c0.552,0,1.043,0.399,1.104,0.921l0.859,5.646
					c0.952,0.308,1.872,0.676,2.762,1.136l4.356-3.283c0.185-0.184,0.46-0.275,0.736-0.275c0.276,0,0.552,0.122,0.767,0.307
					c1.626,1.504,3.774,3.405,5.063,5.217c0.154,0.183,0.214,0.429,0.214,0.674c0,0.276-0.092,0.491-0.245,0.706
					c-1.043,1.411-2.179,2.761-3.222,4.203c0.522,0.983,0.952,1.995,1.258,3.007l5.615,0.859c0.522,0.093,0.89,0.584,0.89,1.104
					V408.049z M117.201,396.727c-4.327,0-7.855,3.528-7.855,7.855s3.528,7.854,7.855,7.854c4.326,0,7.854-3.527,7.854-7.854
					S121.527,396.727,117.201,396.727z"/>
			</g>
			<g>
				<g>
					<path fill="#0076B6" d="M109.115,447.36c0,0,40.915,9.333,47.339,44.966c0,0,10.193,40.354-30.861,61.86
						c0,0-36.308,16.617-72.336-1.535c0,0-22.063-10.474-27.649-36.727c0,0-12.149-47.199,41.334-66.748
						c0,0,6.746-3.192,21.906-3.749C88.848,445.427,98.316,444.829,109.115,447.36"/>
				</g>
				<defs>
					
						<filter id="Adobe_OpacityMaskFilter_7_" filterUnits="userSpaceOnUse" x="24.422" y="445.366" width="133.155" height="115.771">
						
							<feColorMatrix  type="matrix" values="-1 0 0 0 1  0 -1 0 0 1  0 0 -1 0 1  0 0 0 1 0" color-interpolation-filters="sRGB" result="source"/>
					</filter>
				</defs>
				<mask maskUnits="userSpaceOnUse" x="24.422" y="445.366" width="133.155" height="115.771" id="SVGID_10_">
					<g filter="url(#Adobe_OpacityMaskFilter_7_)">
						
							<image overflow="visible" width="572" height="500" xlink:href="B607A891.jpg"  transform="matrix(0.24 0 0 0.24 22.4219 443.3657)">
						</image>
					</g>
				</mask>
				<g opacity="0.44" mask="url(#SVGID_10_)">
					<path fill="#939598" d="M109.115,447.36c0,0,40.915,9.333,47.339,44.966c0,0,10.193,40.354-30.861,61.86
						c0,0-36.308,16.617-72.336-1.535c0,0-22.063-10.474-27.649-36.727c0,0-12.149-47.199,41.334-66.748
						c0,0,6.746-3.192,21.906-3.749C88.848,445.427,98.316,444.829,109.115,447.36"/>
				</g>
			</g>
		</g>
		<g>
			<g>
				<path fill="#6CBE45" d="M178.849,431.549l7.609,32.813l-5.837,3.589c0,0,2.468-22.223-8.811-32.437"/>
				<path fill="#6CBE45" d="M186.768,431.688c-3.04,3.081-7.279,4.982-11.935,4.982c-9.27,0-16.788-7.518-16.788-16.787
					c0-9.268,7.518-16.788,16.788-16.788v16.656L186.768,431.688z"/>
				<path fill="#008C3F" d="M177.63,417.086v-16.788c9.267,0,16.788,7.519,16.788,16.788H177.63z"/>
				<path fill="#6CBE45" d="M195.818,419.883c0,4.657-1.902,8.896-4.985,11.937l-11.913-11.937H195.818z"/>
			</g>
			<g>
				<path fill="#6CBE45" d="M211.719,418.485l-8.204,45.597l6.293,3.87c0,0-1.006-33.253,9.504-45.19"/>
				<path fill="#6CBE45" d="M235.322,420.015c-3.615,3.668-8.656,5.929-14.196,5.929c-11.021,0-19.964-8.943-19.964-19.966
					s8.942-19.967,19.964-19.967v19.811L235.322,420.015z"/>
				<path fill="#008C3F" d="M224.456,402.65v-19.966c11.021,0,19.964,8.943,19.964,19.966H224.456z"/>
				<path fill="#6CBE45" d="M246.084,405.978c0,5.537-2.261,10.581-5.926,14.193l-14.17-14.193H246.084z"/>
			</g>
			<g>
				<g>
					<path fill="#6CBE45" d="M213.146,461.782c0,0,40.916,9.333,47.341,44.967c0,0,10.193,40.355-30.861,61.859
						c0,0-36.308,16.618-72.336-1.535c0,0-22.063-10.474-27.649-36.727c0,0-12.149-47.198,41.333-66.748
						c0,0,6.745-3.191,21.906-3.749C192.881,459.849,202.349,459.251,213.146,461.782"/>
				</g>
				<defs>
					
						<filter id="Adobe_OpacityMaskFilter_8_" filterUnits="userSpaceOnUse" x="128.456" y="459.788" width="133.154" height="115.771">
						
							<feColorMatrix  type="matrix" values="-1 0 0 0 1  0 -1 0 0 1  0 0 -1 0 1  0 0 0 1 0" color-interpolation-filters="sRGB" result="source"/>
					</filter>
				</defs>
				<mask maskUnits="userSpaceOnUse" x="128.456" y="459.788" width="133.154" height="115.771" id="SVGID_11_">
					<g filter="url(#Adobe_OpacityMaskFilter_8_)">
						
							<image overflow="visible" width="572" height="500" xlink:href="B607A897.jpg"  transform="matrix(0.24 0 0 0.24 126.4556 457.7876)">
						</image>
					</g>
				</mask>
				<g opacity="0.44" mask="url(#SVGID_11_)">
					<path fill="#939598" d="M213.146,461.782c0,0,40.916,9.333,47.341,44.967c0,0,10.193,40.355-30.861,61.859
						c0,0-36.308,16.618-72.336-1.535c0,0-22.063-10.474-27.649-36.727c0,0-12.149-47.198,41.333-66.748
						c0,0,6.745-3.191,21.906-3.749C192.881,459.849,202.349,459.251,213.146,461.782"/>
				</g>
			</g>
		</g>
		<g>
			<path fill="#0076B6" d="M299.744,442.719l7.607,32.814l-5.836,3.588c0,0,2.467-22.223-8.812-32.438"/>
			<path fill="#0076B6" d="M332.615,431.957l-8.207,45.598l6.296,3.87c0,0-1.007-33.253,9.503-45.19"/>
			<g>
				<path fill="#0076B6" d="M304.037,421.412c-1.399,3.019-3.18,7.208-2.393,10.597c1.062,0.245,1.927,1.061,2.245,2.081
					c0.233,0.743,0.178,1.541-0.154,2.221c0.661,0.372,1.16,0.996,1.393,1.739c0.319,1.021,0.083,2.112-0.608,2.939
					c0.384,0.355,0.702,0.834,0.856,1.329c0.628,2.01-0.65,3.462-2.443,4.023c-0.243,2.045-1.67,3.78-3.619,4.391
					c-1.951,0.608-4.11-0.006-5.476-1.549c-1.794,0.562-3.671,0.095-4.3-1.916c-0.155-0.494-0.164-1.068-0.052-1.579
					c-1.041-0.287-1.857-1.05-2.176-2.07c-0.23-0.743-0.175-1.54,0.153-2.222c-0.658-0.372-1.159-0.996-1.39-1.739
					c-0.32-1.02-0.072-2.184,0.66-2.99c-1.281-3.231-5.132-5.662-8-7.347c-2.869-1.684-4.781-4.107-5.777-7.294
					c-2.629-8.414,3.68-16.362,11.506-18.808c7.827-2.446,17.54,0.494,20.17,8.908C305.629,415.313,305.437,418.394,304.037,421.412
					z M285.7,407.178c-5.6,1.749-10.718,7.424-8.785,13.609c0.621,1.98,2.072,3.802,3.846,4.911c0.8,0.498,1.684,0.934,2.525,1.452
					c3.017,1.943,5.84,4.458,7.241,7.855l7.054-2.205c-0.784-3.592,0.105-7.265,1.48-10.581c0.396-0.905,0.874-1.767,1.248-2.632
					c0.825-1.921,0.981-4.245,0.363-6.225C298.739,407.177,291.301,405.428,285.7,407.178z M295.044,416.209
					c-0.527,0.164-1.136-0.154-1.301-0.681c-0.666-2.134-4.236-1.935-5.877-1.422c-0.525,0.165-1.135-0.155-1.299-0.681
					c-0.165-0.525,0.153-1.135,0.681-1.299c2.876-0.899,7.402-0.65,8.477,2.783C295.888,415.436,295.569,416.045,295.044,416.209z"
					/>
			</g>
			<g>
				<path fill="#0076B6" d="M349.932,409.341c-2.82,3.107-6.541,7.48-6.866,11.854c1.184,0.695,1.92,2.003,1.92,3.351
					c0,0.981-0.367,1.921-1.021,2.616c0.653,0.694,1.021,1.635,1.021,2.615c0,1.349-0.695,2.574-1.84,3.312
					c0.328,0.572,0.532,1.268,0.532,1.92c0,2.656-2.086,3.923-4.456,3.923c-1.062,2.372-3.432,3.926-6.007,3.926
					c-2.576,0-4.944-1.554-6.01-3.926c-2.369,0-4.455-1.267-4.455-3.923c0-0.652,0.205-1.348,0.533-1.92
					c-1.145-0.737-1.84-1.963-1.84-3.312c0-0.98,0.367-1.921,1.021-2.615c-0.653-0.695-1.021-1.635-1.021-2.616
					c0-1.348,0.735-2.655,1.92-3.351c-0.325-4.374-4.046-8.747-6.865-11.854c-2.821-3.105-4.211-6.744-4.211-10.953
					c0-11.118,10.586-18.312,20.928-18.312c10.34,0,20.927,7.193,20.927,18.312C354.142,402.597,352.752,406.236,349.932,409.341z
					 M333.215,385.309c-7.399,0-15.694,4.904-15.694,13.079c0,2.615,1.061,5.354,2.778,7.357c0.775,0.898,1.676,1.757,2.494,2.697
					c2.901,3.475,5.354,7.561,5.763,12.18h9.319c0.408-4.619,2.861-8.705,5.762-12.18c0.817-0.94,1.718-1.799,2.493-2.697
					c1.718-2.003,2.78-4.742,2.78-7.357C348.91,390.213,340.612,385.309,333.215,385.309z M341.062,399.696
					c-0.694,0-1.308-0.613-1.308-1.308c0-2.82-4.372-3.923-6.539-3.923c-0.696,0-1.308-0.614-1.308-1.31
					c0-0.694,0.611-1.308,1.308-1.308c3.801,0,9.154,2.003,9.154,6.54C342.369,399.083,341.758,399.696,341.062,399.696z"/>
			</g>
			<g>
				<g>
					<path fill="#0076B6" d="M336.744,473.072c0,0,40.915,9.333,47.34,44.966c0,0,10.194,40.355-30.861,61.861
						c0,0-36.307,16.617-72.337-1.537c0,0-22.063-10.473-27.648-36.726c0,0-12.149-47.198,41.334-66.748
						c0,0,6.746-3.192,21.906-3.749C316.478,471.139,325.946,470.542,336.744,473.072"/>
				</g>
				<defs>
					
						<filter id="Adobe_OpacityMaskFilter_9_" filterUnits="userSpaceOnUse" x="252.052" y="471.078" width="133.154" height="115.771">
						
							<feColorMatrix  type="matrix" values="-1 0 0 0 1  0 -1 0 0 1  0 0 -1 0 1  0 0 0 1 0" color-interpolation-filters="sRGB" result="source"/>
					</filter>
				</defs>
				<mask maskUnits="userSpaceOnUse" x="252.052" y="471.078" width="133.154" height="115.771" id="SVGID_12_">
					<g filter="url(#Adobe_OpacityMaskFilter_9_)">
						
							<image overflow="visible" width="572" height="500" xlink:href="B607A890.jpg"  transform="matrix(0.24 0 0 0.24 250.0518 469.0776)">
						</image>
					</g>
				</mask>
				<g opacity="0.44" mask="url(#SVGID_12_)">
					<path fill="#939598" d="M336.744,473.072c0,0,40.915,9.333,47.34,44.966c0,0,10.194,40.355-30.861,61.861
						c0,0-36.307,16.617-72.337-1.537c0,0-22.063-10.473-27.648-36.726c0,0-12.149-47.198,41.334-66.748
						c0,0,6.746-3.192,21.906-3.749C316.478,471.139,325.946,470.542,336.744,473.072"/>
				</g>
			</g>
		</g>
		<g>
			<g>
				<path fill="#008C3F" d="M522.355,419.204l7.607,32.814l-5.834,3.588c0,0,2.466-22.222-8.813-32.437"/>
				<path fill="#008C3F" d="M555.227,406.138l-8.206,45.599l6.294,3.869c0,0-1.006-33.252,9.504-45.189"/>
				<path fill="#6CBE45" d="M532.993,411.97l1.569-1.569c3.426-3.421,3.426-8.998,0-12.42c-3.425-3.426-8.998-3.425-12.42,0
					l-1.57,1.569L532.993,411.97z"/>
				<polygon fill="#008C3F" points="517.49,402.635 498.063,422.063 505.854,423.607 522.155,407.3 				"/>
				<path fill="#6CBE45" d="M494.141,438.405c0.539,0.54,1.327,0.757,2.07,0.574l10.208-2.553l-1.702-8.598l-8.599-1.704
					l-2.553,10.205C493.382,437.077,493.598,437.862,494.141,438.405z"/>
				<polygon fill="#008C3F" points="525.24,410.385 508.939,426.692 510.482,434.48 529.908,415.054 				"/>
				<path fill="#6CBE45" d="M542.799,397.194l-1.822-1.821c-3.974-3.969-3.974-10.438,0-14.409c3.974-3.975,10.441-3.974,14.411,0
					l1.822,1.821L542.799,397.194z"/>
				<polygon fill="#008C3F" points="560.786,386.364 583.326,408.905 574.285,410.695 555.372,391.778 				"/>
				<path fill="#6CBE45" d="M587.878,427.865c-0.625,0.628-1.54,0.881-2.403,0.668l-11.844-2.962l1.975-9.976l9.978-1.977
					l2.962,11.841C588.758,426.325,588.508,427.236,587.878,427.865z"/>
				<polygon fill="#008C3F" points="551.793,395.357 570.706,414.275 568.917,423.315 546.377,400.773 				"/>
			</g>
			<g>
				<g>
					<path fill="#008C3F" d="M559.176,450.394c0,0,40.916,9.333,47.34,44.966c0,0,10.193,40.356-30.861,61.86
						c0,0-36.308,16.618-72.336-1.536c0,0-22.063-10.473-27.648-36.726c0,0-12.15-47.198,41.333-66.748c0,0,6.745-3.19,21.906-3.75
						C538.909,448.46,548.377,447.864,559.176,450.394"/>
				</g>
				<defs>
					
						<filter id="Adobe_OpacityMaskFilter_10_" filterUnits="userSpaceOnUse" x="474.484" y="448.399" width="133.153" height="115.772">
						
							<feColorMatrix  type="matrix" values="-1 0 0 0 1  0 -1 0 0 1  0 0 -1 0 1  0 0 0 1 0" color-interpolation-filters="sRGB" result="source"/>
					</filter>
				</defs>
				<mask maskUnits="userSpaceOnUse" x="474.484" y="448.399" width="133.153" height="115.772" id="SVGID_13_">
					<g filter="url(#Adobe_OpacityMaskFilter_10_)">
						
							<image overflow="visible" width="572" height="500" xlink:href="B607A893.jpg"  transform="matrix(0.24 0 0 0.24 472.4844 446.3989)">
						</image>
					</g>
				</mask>
				<g opacity="0.44" mask="url(#SVGID_13_)">
					<path fill="#939598" d="M559.176,450.394c0,0,40.916,9.333,47.34,44.966c0,0,10.193,40.356-30.861,61.86
						c0,0-36.308,16.618-72.336-1.536c0,0-22.063-10.473-27.648-36.726c0,0-12.15-47.198,41.333-66.748c0,0,6.745-3.19,21.906-3.75
						C538.909,448.46,548.377,447.864,559.176,450.394"/>
				</g>
			</g>
		</g>
		<g>
			<g>
				<path fill="#04A9D3" d="M419.993,422.719l7.606,32.813l-5.834,3.589c0,0,2.468-22.222-8.813-32.437"/>
				<path fill="#04A9D3" d="M452.864,409.655l-8.205,45.597l6.293,3.87c0,0-1.007-33.252,9.504-45.19"/>
				<path fill="#04A9D3" d="M403.915,404.732c-8.952,0-16.231,7.282-16.231,16.234c0,8.95,7.279,16.231,16.231,16.231
					c3.309,0,6.482-0.978,9.176-2.827l-2.624-3.824c-1.919,1.317-4.185,2.014-6.552,2.014c-6.395,0-11.596-5.2-11.596-11.594
					c0-6.395,5.201-11.596,11.596-11.596s11.593,5.201,11.593,11.596v1.21c0,0.991-0.221,2.654-1.698,2.654h-0.616
					c-0.453-0.017-1.365-0.898-1.396-1.344v-2.521l0,0c0-4.35-3.536-7.885-7.885-7.885c-4.346,0-7.882,3.535-7.882,7.885
					c0,4.347,3.536,7.885,7.882,7.885c1.811,0,3.461-0.639,4.796-1.67c1.161,1.339,2.82,2.287,4.482,2.287h0.618
					c3.731,0,6.338-2.999,6.338-7.292v-1.21C420.147,412.014,412.866,404.732,403.915,404.732z M403.913,424.211
					c-1.788,0-3.245-1.456-3.245-3.245s1.457-3.247,3.245-3.247c1.791,0,3.249,1.458,3.249,3.247S405.704,424.211,403.913,424.211z"
					/>
				<path fill="#04A9D3" d="M469.154,384.697c-10.379,0-18.82,8.442-18.82,18.82c0,10.377,8.441,18.818,18.82,18.818
					c3.837,0,7.516-1.134,10.638-3.276l-3.04-4.434c-2.226,1.526-4.854,2.334-7.598,2.334c-7.414,0-13.443-6.03-13.443-13.442
					c0-7.414,6.029-13.445,13.443-13.445s13.444,6.031,13.444,13.445v1.402c0,1.149-0.259,3.077-1.973,3.077h-0.715
					c-0.523-0.02-1.581-1.042-1.616-1.558v-2.922l0,0c0-5.042-4.102-9.142-9.143-9.142c-5.039,0-9.138,4.1-9.138,9.142
					c0,5.04,4.099,9.141,9.138,9.141c2.101,0,4.015-0.741,5.56-1.935c1.347,1.553,3.271,2.651,5.197,2.651h0.717
					c4.327,0,7.349-3.478,7.349-8.455v-1.402C487.975,393.139,479.532,384.697,469.154,384.697z M469.152,407.28
					c-2.072,0-3.761-1.689-3.761-3.763c0-2.075,1.688-3.765,3.761-3.765c2.075,0,3.767,1.689,3.767,3.765
					C472.919,405.59,471.228,407.28,469.152,407.28z"/>
			</g>
			<g>
				<g>
					<path fill="#04A9D3" d="M455.701,456.159c0,0,40.914,9.333,47.34,44.967c0,0,10.192,40.356-30.862,61.859
						c0,0-36.308,16.618-72.337-1.535c0,0-22.063-10.474-27.649-36.727c0,0-12.147-47.198,41.336-66.747
						c0,0,6.744-3.191,21.905-3.75C435.434,454.226,444.903,453.628,455.701,456.159"/>
				</g>
				<defs>
					
						<filter id="Adobe_OpacityMaskFilter_11_" filterUnits="userSpaceOnUse" x="371.007" y="454.165" width="133.156" height="115.771">
						
							<feColorMatrix  type="matrix" values="-1 0 0 0 1  0 -1 0 0 1  0 0 -1 0 1  0 0 0 1 0" color-interpolation-filters="sRGB" result="source"/>
					</filter>
				</defs>
				<mask maskUnits="userSpaceOnUse" x="371.007" y="454.165" width="133.156" height="115.771" id="SVGID_14_">
					<g filter="url(#Adobe_OpacityMaskFilter_11_)">
						
							<image overflow="visible" width="572" height="500" xlink:href="B607A88F.jpg"  transform="matrix(0.24 0 0 0.24 369.0068 452.1646)">
						</image>
					</g>
				</mask>
				<g opacity="0.44" mask="url(#SVGID_14_)">
					<path fill="#939598" d="M455.701,456.159c0,0,40.914,9.333,47.34,44.967c0,0,10.192,40.356-30.862,61.859
						c0,0-36.308,16.618-72.337-1.535c0,0-22.063-10.474-27.649-36.727c0,0-12.147-47.198,41.336-66.747
						c0,0,6.744-3.191,21.905-3.75C435.434,454.226,444.903,453.628,455.701,456.159"/>
				</g>
			</g>
		</g>
	</g>
</g>
</svg>
