<?xml version="1.0" encoding="utf-8"?>
<!-- Generator: Adobe Illustrator 16.0.0, SVG Export Plug-In . SVG Version: 6.00 Build 0)  -->
<!DOCTYPE svg PUBLIC "-//W3C//DTD SVG 1.1//EN" "http://www.w3.org/Graphics/SVG/1.1/DTD/svg11.dtd">
<svg version="1.1" id="cloudcomputing" xmlns="http://www.w3.org/2000/svg" xmlns:xlink="http://www.w3.org/1999/xlink" x="0px"
	 y="0px" width="622.253px" height="531.177px" viewBox="0 0 622.253 531.177" enable-background="new 0 0 622.253 531.177"
	 xml:space="preserve">
<path fill="#FFFFFF" d="M1009.732,362.572c10.051,20.365,3.398,44.174-14.857,53.184s-41.2-0.197-51.25-20.559
	c-10.05-20.363-14.835-47.631,3.422-56.642C965.302,329.545,999.684,342.209,1009.732,362.572z"/>
<path fill="#FFFFFF" d="M849.042,362.572c-10.05,20.365-3.398,44.174,14.858,53.184c18.254,9.01,44.183,1.02,51.249-20.559
	c6.574-20.076,13.578-45.091-4.679-54.101C892.217,332.086,859.09,342.209,849.042,362.572z"/>
<ellipse cx="874.813" cy="376.265" rx="7.577" ry="13.891"/>
<ellipse cx="963.333" cy="376.265" rx="7.577" ry="13.891"/>
<path d="M921.42,343.161c-64.471-35.766-137.996-6.078-137.996-6.078l1.568,12.673c1.569,12.672,11.229,14.479,11.229,14.479
	c6.965,2.568,8.535,13.525,8.535,13.525c26.857,57.576,64.93,49.863,64.93,49.863C936.477,423.214,921.42,343.161,921.42,343.161z
	 M873.416,421.371c0,0-51.748,8.121-51.258-69.354c0,0,39.783-8.003,92.236-4.984C914.395,347.033,926.453,416.734,873.416,421.371z
	"/>
<path d="M985.64,427.171c0,0,37.797,8.971,66.546-47.684c0,0,1.934-10.898,8.979-13.236c0,0,9.714-1.484,11.702-14.098l1.987-12.614
	c0,0-72.501-32.107-138.121,1.502C936.733,341.042,919.032,420.552,985.64,427.171z M943.627,345.144
	c56.449-0.771,92.021,8.039,92.021,8.039c-2.078,77.449-53.528,67.617-53.528,67.617
	C929.265,414.408,943.627,345.144,943.627,345.144z"/>
<rect x="919.216" y="351.9" width="19.097" height="24.844"/>
<path fill="#FFFFFF" d="M285.879,687.934h-79.367c-6.251,0-11.339,5.085-11.339,11.338v45.353c0,6.251,5.088,11.339,11.339,11.339
	h79.367c6.256,0,11.338-5.088,11.338-11.339v-45.353C297.217,693.019,292.135,687.934,285.879,687.934z M285.879,699.272v17.008
	h-79.367v-17.008H285.879z M206.512,744.625v-17.007h79.355v17.007H206.512z"/>
<path fill="#FFFFFF" d="M254.698,730.453c-3.128,0-5.669,2.541-5.669,5.669c0,3.133,2.541,5.669,5.669,5.669
	c3.134,0,5.669-2.536,5.669-5.669C260.367,732.994,257.832,730.453,254.698,730.453z"/>
<path fill="#FFFFFF" d="M271.705,730.453c-3.127,0-5.668,2.541-5.668,5.669c0,3.133,2.541,5.669,5.668,5.669
	c3.135,0,5.67-2.536,5.67-5.669C277.375,732.994,274.84,730.453,271.705,730.453z"/>
<path fill="#FFFFFF" d="M254.698,713.445c3.134,0,5.669-2.535,5.669-5.669c0-3.128-2.535-5.669-5.669-5.669
	c-3.128,0-5.669,2.541-5.669,5.669C249.029,710.91,251.57,713.445,254.698,713.445z"/>
<path fill="#FFFFFF" d="M271.705,713.445c3.135,0,5.67-2.535,5.67-5.669c0-3.128-2.535-5.669-5.67-5.669
	c-3.127,0-5.668,2.541-5.668,5.669C266.037,710.91,268.578,713.445,271.705,713.445z"/>
<g>
	<path fill="#0076B6" d="M480.135,364.676c0.851,1.494,45.768,13.617,0,37.566l0.851-36.072"/>
	<path fill="#005198" d="M484.178,382.661c0.26,1.25,27.238,18.307-10.561,24.781l10.82-23.531"/>
	<path fill="#005198" d="M447.17,375.86c-22.464,1.557-44.772,5.191-66.473,11.197c-7.743,2.143-19.151,4.629-22.231,13.227
		c-3.129,8.736,2.469,12.826,10.451,13.975c11.017,1.586,14.92-10.688,21.931-16.357c8.03-6.494,17.388-10.279,27.386-12.828
		c9.301-2.371,19.364-3.121,28.937-3.283V375.86z"/>
	<path fill="#0076B6" d="M414.106,371.186c0,0-71.428-16.064-78.985-68.979c0,0-20.078-27.872-31.741-24.714
		c0,0-48.764,33.165,41.945,69.954c0,0,42.332,24.516,67.248,26.729L414.106,371.186z"/>
	<g>
		<g>
			<ellipse fill="#0076B6" cx="447.216" cy="381.657" rx="36.494" ry="36.563"/>
		</g>
		<defs>
			<filter id="Adobe_OpacityMaskFilter" filterUnits="userSpaceOnUse" x="410.723" y="345.092" width="72.987" height="73.127">
				
					<feColorMatrix  type="matrix" values="-1 0 0 0 1  0 -1 0 0 1  0 0 -1 0 1  0 0 0 1 0" color-interpolation-filters="sRGB" result="source"/>
			</filter>
		</defs>
		<mask maskUnits="userSpaceOnUse" x="410.723" y="345.092" width="72.987" height="73.127" id="SVGID_1_">
			<g filter="url(#Adobe_OpacityMaskFilter)">
				
					<image overflow="visible" width="321" height="322" xlink:href="7503ECFB.jpg"  transform="matrix(0.24 0 0 0.24 408.7227 343.0923)">
				</image>
			</g>
		</mask>
		<g opacity="0.44" mask="url(#SVGID_1_)">
			<ellipse fill="#939598" cx="447.216" cy="381.657" rx="36.494" ry="36.563"/>
		</g>
	</g>
	<g>
		<g>
			<path fill="#005198" d="M454.81,431.391c0,0,4.352-16.867,18.824-16.705c0,0,9.793-0.652,25.897,16.977
				c0,0,8.65,8.867-10.283,9.9c0,0-23.829,0.6-29.923-2.773C459.325,438.79,453.395,437.102,454.81,431.391z"/>
		</g>
		<defs>
			<filter id="Adobe_OpacityMaskFilter_1_" filterUnits="userSpaceOnUse" x="454.592" y="414.683" width="46.911" height="26.921">
				
					<feColorMatrix  type="matrix" values="-1 0 0 0 1  0 -1 0 0 1  0 0 -1 0 1  0 0 0 1 0" color-interpolation-filters="sRGB" result="source"/>
			</filter>
		</defs>
		<mask maskUnits="userSpaceOnUse" x="454.592" y="414.683" width="46.911" height="26.921" id="SVGID_2_">
			<g filter="url(#Adobe_OpacityMaskFilter_1_)">
				
					<image overflow="visible" width="213" height="129" xlink:href="7503ECF9.jpg"  transform="matrix(0.24 0 0 0.24 452.5918 412.6831)">
				</image>
			</g>
		</mask>
		<g opacity="0.44" mask="url(#SVGID_2_)">
			<path fill="#939598" d="M454.81,431.391c0,0,4.352-16.867,18.824-16.705c0,0,9.793-0.652,25.897,16.977
				c0,0,8.65,8.867-10.283,9.9c0,0-23.829,0.6-29.923-2.773C459.325,438.79,453.395,437.102,454.81,431.391z"/>
		</g>
	</g>
	<g>
		<g>
			<path fill="#005198" d="M441.462,431.391c0,0-4.352-16.867-18.824-16.705c0,0-9.792-0.652-25.896,16.977
				c0,0-8.651,8.867,10.282,9.9c0,0,23.829,0.6,29.923-2.773C436.946,438.79,442.877,437.102,441.462,431.391z"/>
		</g>
		<defs>
			<filter id="Adobe_OpacityMaskFilter_2_" filterUnits="userSpaceOnUse" x="394.769" y="414.683" width="46.911" height="26.921">
				
					<feColorMatrix  type="matrix" values="-1 0 0 0 1  0 -1 0 0 1  0 0 -1 0 1  0 0 0 1 0" color-interpolation-filters="sRGB" result="source"/>
			</filter>
		</defs>
		<mask maskUnits="userSpaceOnUse" x="394.769" y="414.683" width="46.911" height="26.921" id="SVGID_3_">
			<g filter="url(#Adobe_OpacityMaskFilter_2_)">
				
					<image overflow="visible" width="213" height="129" xlink:href="7503ECFF.jpg"  transform="matrix(0.24 0 0 0.24 392.7686 412.6831)">
				</image>
			</g>
		</mask>
		<g opacity="0.44" mask="url(#SVGID_3_)">
			<path fill="#939598" d="M441.462,431.391c0,0-4.352-16.867-18.824-16.705c0,0-9.792-0.652-25.896,16.977
				c0,0-8.651,8.867,10.282,9.9c0,0,23.829,0.6,29.923-2.773C436.946,438.79,442.877,437.102,441.462,431.391z"/>
		</g>
	</g>
	<g>
		<g>
			<path fill="#005198" d="M477.745,181.33c0,0,65.896,15.031,76.241,72.417c0,0,16.417,64.996-49.702,99.629
				c0,0-58.475,26.764-116.499-2.473c0,0-35.533-16.867-44.528-59.148c0,0-19.566-76.015,66.568-107.5
				c0,0,10.863-5.141,35.279-6.039C445.104,178.216,460.354,177.254,477.745,181.33"/>
		</g>
		<defs>
			
				<filter id="Adobe_OpacityMaskFilter_3_" filterUnits="userSpaceOnUse" x="341.347" y="178.117" width="214.447" height="186.454">
				
					<feColorMatrix  type="matrix" values="-1 0 0 0 1  0 -1 0 0 1  0 0 -1 0 1  0 0 0 1 0" color-interpolation-filters="sRGB" result="source"/>
			</filter>
		</defs>
		<mask maskUnits="userSpaceOnUse" x="341.347" y="178.117" width="214.447" height="186.454" id="SVGID_4_">
			<g filter="url(#Adobe_OpacityMaskFilter_3_)">
				
					<image overflow="visible" width="911" height="794" xlink:href="7503ECF8.jpg"  transform="matrix(0.24 0 0 0.24 339.3467 176.1172)">
				</image>
			</g>
		</mask>
		<g opacity="0.44" mask="url(#SVGID_4_)">
			<path fill="#939598" d="M477.745,181.33c0,0,65.896,15.031,76.241,72.417c0,0,16.417,64.996-49.702,99.629
				c0,0-58.475,26.764-116.499-2.473c0,0-35.533-16.867-44.528-59.148c0,0-19.566-76.015,66.568-107.5
				c0,0,10.863-5.141,35.279-6.039C445.104,178.216,460.354,177.254,477.745,181.33"/>
		</g>
	</g>
	<path fill="#005198" d="M418.544,132.968l12.253,52.848l-9.397,5.778c0,0,3.973-35.789-14.192-52.239"/>
	<path fill="#005198" d="M491.755,122.447l-13.216,73.435l10.137,6.232c0,0-1.621-53.553,15.305-72.779"/>
	<g>
		<g>
			<path fill="#005198" d="M413.058,368.768c0,0,28.277,13.158,68.319,0c0,0,5.589,12.887-0.552,27.137c0,0-29.438,18.289-67.297,0
				C413.528,395.905,407.577,383.321,413.058,368.768z"/>
		</g>
		<defs>
			<filter id="Adobe_OpacityMaskFilter_4_" filterUnits="userSpaceOnUse" x="410.738" y="368.768" width="72.967" height="35.266">
				
					<feColorMatrix  type="matrix" values="-1 0 0 0 1  0 -1 0 0 1  0 0 -1 0 1  0 0 0 1 0" color-interpolation-filters="sRGB" result="source"/>
			</filter>
		</defs>
		<mask maskUnits="userSpaceOnUse" x="410.738" y="368.768" width="72.967" height="35.266" id="SVGID_5_">
			<g filter="url(#Adobe_OpacityMaskFilter_4_)">
				
					<image overflow="visible" width="321" height="164" xlink:href="7503ECF6.jpg"  transform="matrix(0.24 0 0 0.24 408.7383 366.7681)">
				</image>
			</g>
		</mask>
		<g opacity="0.44" mask="url(#SVGID_5_)">
			<path fill="#939598" d="M413.058,368.768c0,0,28.277,13.158,68.319,0c0,0,5.589,12.887-0.552,27.137c0,0-29.438,18.289-67.297,0
				C413.528,395.905,407.577,383.321,413.058,368.768z"/>
		</g>
	</g>
	<path fill="#005198" d="M449.181,388.342c-0.296,0.012-1.958-1.514-1.972-1.822"/>
	<g>
		
			<image overflow="visible" opacity="0.65" width="580" height="260" xlink:href="7503ECF9.png"  transform="matrix(0.24 0 0 0.24 382.7109 293.8892)">
		</image>
		<g>
			<path d="M402.249,307.694c0.494,0.154,0.901,0.291,1.184,0.381c4.758,1.525,9.086,2.092,14.048,2.52
				c14.71,1.275,29.289,1.826,44.034,0.365c8.976-0.891,18.488-2.543,27.016-5.574c0.008-0.002,18.943-6.732,23.993,0
				c0,0,7.577,13.471-26.097,32.834c0,0-39.569,21.469-71.14,0c0,0-25.669-12.625-23.994-29.039
				C391.745,304.764,398.954,306.667,402.249,307.694z"/>
		</g>
	</g>
	<path fill="#D01E47" d="M439.172,347.202c0,0,3.056-29.186,26.628-16.559c0,0,15.852-17.494,24.342,5.352
		C490.142,335.995,467.273,350.321,439.172,347.202z"/>
	<ellipse fill="#D01E47" cx="448.963" cy="290.436" rx="12.207" ry="5.676"/>
	<path fill="#005198" d="M487.319,132.301l40.696,0.961c22.447,0.53,41.131-17.298,41.661-39.738
		c0.528-22.44-17.292-41.129-39.739-41.659c-13.274-0.313-25.766,5.964-33.553,16.425c-2.465-0.676-4.977-1.045-7.528-1.105
		c-17.949-0.424-32.903,13.837-33.326,31.791C455.106,116.927,469.37,131.877,487.319,132.301z M488.472,83.465
		c2.488,0.059,4.962,0.75,7.363,2.065c1.965,1.068,4.271,1.294,6.38,0.616c2.125-0.685,3.878-2.198,4.847-4.208
		c4.173-8.603,13.001-14.017,22.491-13.793c13.467,0.318,24.163,11.53,23.844,24.995c-0.317,13.466-11.53,24.161-24.996,23.843
		l-40.698-0.961c-8.974-0.211-16.106-7.689-15.895-16.662C472.02,90.379,479.496,83.253,488.472,83.465z"/>
	<path fill="#005198" d="M383.923,146.68l36.474,1.845c20.117,1.017,37.302-14.52,38.319-34.63
		c1.016-20.111-14.514-37.301-34.631-38.319c-11.896-0.602-23.25,4.726-30.485,13.919c-2.194-0.666-4.438-1.057-6.726-1.173
		c-16.085-0.813-29.84,11.614-30.653,27.704C355.407,132.115,367.837,145.867,383.923,146.68z M386.136,102.913
		c2.23,0.113,4.432,0.793,6.554,2.03c1.736,1.005,3.8,1.264,5.707,0.706c1.922-0.563,3.53-1.877,4.448-3.656
		c3.95-7.614,11.997-12.256,20.503-11.826c12.067,0.61,21.389,10.923,20.778,22.99c-0.611,12.068-10.925,21.388-22.992,20.778
		l-36.474-1.845c-8.042-0.407-14.259-7.285-13.852-15.326C371.215,108.717,378.093,102.506,386.136,102.913z"/>
	<g>
		<path d="M331.848,304.161l2.529-2.527c5.516-5.51,5.516-14.49,0-20.002c-5.516-5.518-14.492-5.516-20.002,0l-2.529,2.527
			L331.848,304.161z"/>
		<polygon points="306.881,289.127 275.594,320.415 288.143,322.903 314.395,296.641 		"/>
		<path d="M269.275,346.735c0.869,0.869,2.139,1.219,3.336,0.924l16.439-4.111l-2.74-13.846l-13.85-2.744l-4.111,16.436
			C268.055,344.596,268.402,345.86,269.275,346.735z"/>
		<polygon points="319.363,301.61 293.109,327.872 295.596,340.415 326.883,309.129 		"/>
	</g>
	<ellipse fill="#006CA7" cx="303.834" cy="295.619" rx="14.783" ry="18.374"/>
	<path fill="none" stroke="#000000" stroke-width="8" stroke-miterlimit="10" d="M318.649,309.167
		c18.735,58.102-74.108,106.502-113.477,64.662c-1.17-1.245-15.113-25.011-11.136-26.065c-78.405,20.796-67.488-41.75-67.488-41.75
		c1.5-55.397,58.497-35.986,58.497-35.986c43.498-52.386,76.497,7.466,76.497,7.466s10.723-13.522,31.566-1.177"/>
	<path fill="none" stroke="#000000" stroke-width="8" stroke-miterlimit="10" d="M217.282,85.101c0,0,42.545-41.578,58.983,5.801
		c0,0,48.34-9.668,24.177,30.935c-0.478,0.803,11.61,14.369,11.818,17.295c1.626,22.999-39.814,9.115-39.863,9.786
		c0,0.001-1.935,26.107-40.611,15.471c0,0-12.569,0-14.504-27.072c-0.035-0.498-21.698-10.583-24.063-13.977
		C180.861,105.611,196.927,82.557,217.282,85.101z"/>
	<path fill="none" stroke="#000000" stroke-width="8" stroke-miterlimit="10" d="M83.626,439.457c0,0,31.124-30.417,43.149,4.243
		c0,0,35.364-7.072,17.687,22.631c-0.35,0.587,8.494,10.511,8.646,12.652c1.189,16.825-29.126,6.668-29.163,7.159
		c0,0-1.415,19.099-29.708,11.317c0,0-9.196,0-10.611-19.805c-0.026-0.364-15.874-7.742-17.604-10.225
		C56.983,454.46,68.735,437.594,83.626,439.457z"/>
	<path fill="none" stroke="#000000" stroke-width="8" stroke-miterlimit="10" d="M49.806,178.842c0,0,31.124-30.417,43.149,4.243
		c0,0,35.364-7.072,17.687,22.631c-0.35,0.587,8.494,10.511,8.646,12.652c1.189,16.825-29.126,6.668-29.163,7.159
		c0,0-1.415,19.099-29.708,11.317c0,0-9.196,0-10.611-19.805c-0.026-0.364-15.874-7.742-17.604-10.225
		C23.163,193.846,34.915,176.98,49.806,178.842z"/>
	<path fill="none" stroke="#000000" stroke-width="8" stroke-miterlimit="10" d="M294.242,478.086c0,0,31.123,30.417,43.148-4.243
		c0,0,35.364,7.072,17.688-22.631c-0.35-0.587,8.494-10.511,8.646-12.652c1.189-16.825-29.126-6.668-29.163-7.159
		c0,0-1.414-19.099-29.708-11.317c0,0-9.196,0-10.61,19.805c-0.027,0.364-15.874,7.742-17.604,10.225
		C267.598,463.083,279.35,479.949,294.242,478.086z"/>
	<polyline fill="none" stroke="#000000" stroke-width="8" stroke-miterlimit="10" points="232.839,235.292 257.048,186.279 
		262.695,205.597 292.197,166.937 	"/>
	<path fill="none" stroke="#000000" stroke-width="8" stroke-miterlimit="10" d="M246.653,399.857c0,0,20.612,19.608,18.322,20.37
		c-2.29,0.764-23.666-2.175-23.666-2.175l23.666,22.546"/>
	<path fill="none" stroke="#000000" stroke-width="8" stroke-miterlimit="10" d="M109.508,403.154
		c2-2.389,15.283-17.541,15.283-17.541l10.717,8.771l7.046-35.971"/>
	<path fill="none" stroke="#000000" stroke-width="8" stroke-miterlimit="10" d="M96.21,236.51l26.596,23.184
		c0,0-29.057,5.693-24.412,4.053c4.645-1.64,24.021,10.731,24.021,10.731"/>
	
		<ellipse transform="matrix(0.8967 -0.4425 0.4425 0.8967 -60.5024 246.8352)" fill="#FFFFFF" stroke="#000000" stroke-width="7" stroke-miterlimit="10" cx="498.717" cy="253.074" rx="36.86" ry="41.116"/>
	
		<ellipse transform="matrix(-0.8967 -0.4425 0.4425 -0.8967 654.5427 658.8649)" fill="#FFFFFF" stroke="#000000" stroke-width="7" stroke-miterlimit="10" cx="404.134" cy="253.074" rx="36.86" ry="41.116"/>
	<ellipse cx="394.77" cy="255.495" rx="7.577" ry="13.89"/>
	<ellipse cx="483.683" cy="253.429" rx="7.577" ry="13.89"/>
	<polyline fill="none" stroke="#000000" stroke-width="6" stroke-miterlimit="10" points="331.255,187.987 345.755,180.487 
		383.135,221.649 	"/>
	<polyline fill="none" stroke="#000000" stroke-width="6" stroke-miterlimit="10" points="530.005,233.535 555.628,199.714 
		573.211,201.068 	"/>
	
		<line fill="none" stroke="#000000" stroke-width="6" stroke-miterlimit="10" x1="441.681" y1="245.662" x2="460.979" y2="245.662"/>
</g>
</svg>
