<?xml version="1.0" encoding="utf-8"?>
<!-- Generator: Adobe Illustrator 16.0.0, SVG Export Plug-In . SVG Version: 6.00 Build 0)  -->
<!DOCTYPE svg PUBLIC "-//W3C//DTD SVG 1.1//EN" "http://www.w3.org/Graphics/SVG/1.1/DTD/svg11.dtd">
<svg version="1.1" id="cloudcomputing_copy" xmlns="http://www.w3.org/2000/svg" xmlns:xlink="http://www.w3.org/1999/xlink"
	 x="0px" y="0px" width="622.253px" height="531.177px" viewBox="0 0 622.253 531.177" enable-background="new 0 0 622.253 531.177"
	 xml:space="preserve">
<g>
	<g>
		<path fill="#33C6F4" d="M135.02,348.056c0,0-32.079-99.338,86.921-137.624c0,0,94.164-17.514,129.346,68.334
			c0,0,53.813-40.777,107.62,11.152c0,0,25.868,17.783,25.868,62.279c0,0,63.123,28.974,61.053,81.748
			c0,0,5.175,76.573-80.713,85.886h-329.06c0,0-80.713-9.313-79.679-84.853C56.376,434.979,58.446,356.335,135.02,348.056z"/>
	</g>
	<defs>
		<filter id="Adobe_OpacityMaskFilter" filterUnits="userSpaceOnUse" x="56.366" y="208.961" width="489.521" height="310.87">
			
				<feColorMatrix  type="matrix" values="-1 0 0 0 1  0 -1 0 0 1  0 0 -1 0 1  0 0 0 1 0" color-interpolation-filters="sRGB" result="source"/>
		</filter>
	</defs>
	<mask maskUnits="userSpaceOnUse" x="56.366" y="208.961" width="489.521" height="310.87" id="SVGID_1_">
		<g filter="url(#Adobe_OpacityMaskFilter)">
			
				<image overflow="visible" width="2057" height="1312" xlink:href="335C9FA4.jpg"  transform="matrix(0.24 0 0 0.24 54.3662 206.9614)">
			</image>
		</g>
	</mask>
	<g opacity="0.21" mask="url(#SVGID_1_)">
		<path fill="#939598" d="M135.02,348.056c0,0-32.079-99.338,86.921-137.624c0,0,94.164-17.514,129.346,68.334
			c0,0,53.813-40.777,107.62,11.152c0,0,25.868,17.783,25.868,62.279c0,0,63.123,28.974,61.053,81.748
			c0,0,5.175,76.573-80.713,85.886h-329.06c0,0-80.713-9.313-79.679-84.853C56.376,434.979,58.446,356.335,135.02,348.056z"/>
	</g>
</g>
<g>
	<g>
		<path fill="#B3E2EE" d="M180.292,373.395c0,0-27.534-85.264,74.605-118.125c0,0,80.822-15.033,111.02,58.652
			c0,0,46.188-35,92.371,9.572c0,0,22.203,15.263,22.203,53.454c0,0,54.18,24.869,52.402,70.166c0,0,4.441,65.724-69.277,73.717
			H181.181c0,0-69.277-7.994-68.389-72.83C112.792,448.001,114.568,380.5,180.292,373.395z"/>
	</g>
	<defs>
		<filter id="Adobe_OpacityMaskFilter_1_" filterUnits="userSpaceOnUse" x="112.783" y="254.007" width="420.161" height="266.824">
			
				<feColorMatrix  type="matrix" values="-1 0 0 0 1  0 -1 0 0 1  0 0 -1 0 1  0 0 0 1 0" color-interpolation-filters="sRGB" result="source"/>
		</filter>
	</defs>
	<mask maskUnits="userSpaceOnUse" x="112.783" y="254.007" width="420.161" height="266.824" id="SVGID_2_">
		<g filter="url(#Adobe_OpacityMaskFilter_1_)">
			
				<image overflow="visible" width="1768" height="1129" xlink:href="335C9FA5.jpg"  transform="matrix(0.24 0 0 0.24 110.7832 252.0073)">
			</image>
		</g>
	</mask>
	<g opacity="0.21" mask="url(#SVGID_2_)">
		<path fill="#939598" d="M180.292,373.395c0,0-27.534-85.264,74.605-118.125c0,0,80.822-15.033,111.02,58.652
			c0,0,46.188-35,92.371,9.572c0,0,22.203,15.263,22.203,53.454c0,0,54.18,24.869,52.402,70.166c0,0,4.441,65.724-69.277,73.717
			H181.181c0,0-69.277-7.994-68.389-72.83C112.792,448.001,114.568,380.5,180.292,373.395z"/>
	</g>
</g>
<g>
	<g>
		<path fill="#C6E7FA" d="M243.899,407.796c0,0-20.667-64,56-88.667c0,0,60.666-11.283,83.333,44.025
			c0,0,34.668-26.271,69.334,7.186c0,0,16.666,11.456,16.666,40.123c0,0,40.668,18.667,39.334,52.667c0,0,3.334,49.333-52,55.333
			h-212c0,0-52-6.001-51.334-54.667C193.232,463.796,194.566,413.129,243.899,407.796z"/>
	</g>
	<defs>
		<filter id="Adobe_OpacityMaskFilter_2_" filterUnits="userSpaceOnUse" x="193.226" y="318.182" width="315.378" height="200.281">
			
				<feColorMatrix  type="matrix" values="-1 0 0 0 1  0 -1 0 0 1  0 0 -1 0 1  0 0 0 1 0" color-interpolation-filters="sRGB" result="source"/>
		</filter>
	</defs>
	<mask maskUnits="userSpaceOnUse" x="193.226" y="318.182" width="315.378" height="200.281" id="SVGID_3_">
		<g filter="url(#Adobe_OpacityMaskFilter_2_)">
			
				<image overflow="visible" width="1331" height="852" xlink:href="335C9FA3.jpg"  transform="matrix(0.24 0 0 0.24 191.2261 316.1821)">
			</image>
		</g>
	</mask>
	<g opacity="0.21" mask="url(#SVGID_3_)">
		<path fill="#939598" d="M243.899,407.796c0,0-20.667-64,56-88.667c0,0,60.666-11.283,83.333,44.025
			c0,0,34.668-26.271,69.334,7.186c0,0,16.666,11.456,16.666,40.123c0,0,40.668,18.667,39.334,52.667c0,0,3.334,49.333-52,55.333
			h-212c0,0-52-6.001-51.334-54.667C193.232,463.796,194.566,413.129,243.899,407.796z"/>
	</g>
</g>
<path fill="#005198" d="M322.95,337.577c22.464,1.557,44.771,5.191,66.473,11.197c7.743,2.143,19.152,4.629,22.231,13.227
	c3.129,8.736-2.468,12.826-10.45,13.975c-11.018,1.586-14.921-10.688-21.932-16.357c-8.029-6.494-17.389-10.279-27.386-12.828
	c-9.301-2.371-19.364-3.121-28.937-3.283V337.577z"/>
<path fill="#005198" d="M325.842,337.577c-22.464,1.557-44.772,5.191-66.473,11.197c-7.743,2.143-19.152,4.629-22.231,13.227
	c-3.129,8.736,2.468,12.826,10.45,13.975c11.018,1.586,14.921-10.688,21.932-16.357c8.03-6.494,17.388-10.279,27.386-12.828
	c9.301-2.371,19.364-3.121,28.937-3.283V337.577z"/>
<path fill="#0076B6" d="M292.778,332.903c0,0-71.427-16.064-78.985-68.979c0,0-3.572-12.236-15.234-9.078
	c0,0-38.958,18.238,25.438,54.318c0,0,42.332,24.516,67.248,26.729L292.778,332.903z"/>
<path fill="#0076B6" d="M344.18,335.78c0,0,73.083-4.324,89.083-55.324c0,0,5.5-11.5,16.5-6.5c0,0,35.504,24.289-33.873,49.5
	c0,0-45.732,17.361-70.68,15.523L344.18,335.78z"/>
<g>
	<g>
		<ellipse fill="#0076B6" cx="325.888" cy="343.374" rx="36.494" ry="36.563"/>
	</g>
	<defs>
		<filter id="Adobe_OpacityMaskFilter_3_" filterUnits="userSpaceOnUse" x="289.395" y="306.809" width="72.987" height="73.127">
			
				<feColorMatrix  type="matrix" values="-1 0 0 0 1  0 -1 0 0 1  0 0 -1 0 1  0 0 0 1 0" color-interpolation-filters="sRGB" result="source"/>
		</filter>
	</defs>
	<mask maskUnits="userSpaceOnUse" x="289.395" y="306.809" width="72.987" height="73.127" id="SVGID_4_">
		<g filter="url(#Adobe_OpacityMaskFilter_3_)">
			
				<image overflow="visible" width="321" height="322" xlink:href="335C9FAC.jpg"  transform="matrix(0.24 0 0 0.24 287.3945 304.8091)">
			</image>
		</g>
	</mask>
	<g opacity="0.44" mask="url(#SVGID_4_)">
		<ellipse fill="#939598" cx="325.888" cy="343.374" rx="36.494" ry="36.563"/>
	</g>
</g>
<g>
	<g>
		<path fill="#005198" d="M356.417,143.047c0,0,65.896,15.031,76.241,72.418c0,0,16.417,64.995-49.702,99.627
			c0,0-58.475,26.764-116.499-2.473c0,0-35.533-16.867-44.529-59.148c0,0-19.566-76.014,66.569-107.499
			c0,0,10.863-5.141,35.279-6.04C323.776,139.933,339.026,138.971,356.417,143.047"/>
	</g>
	<defs>
		<filter id="Adobe_OpacityMaskFilter_4_" filterUnits="userSpaceOnUse" x="220.019" y="139.834" width="214.447" height="186.453">
			
				<feColorMatrix  type="matrix" values="-1 0 0 0 1  0 -1 0 0 1  0 0 -1 0 1  0 0 0 1 0" color-interpolation-filters="sRGB" result="source"/>
		</filter>
	</defs>
	<mask maskUnits="userSpaceOnUse" x="220.019" y="139.834" width="214.447" height="186.453" id="SVGID_5_">
		<g filter="url(#Adobe_OpacityMaskFilter_4_)">
			
				<image overflow="visible" width="911" height="794" xlink:href="335C9FAF.jpg"  transform="matrix(0.24 0 0 0.24 218.0186 137.834)">
			</image>
		</g>
	</mask>
	<g opacity="0.44" mask="url(#SVGID_5_)">
		<path fill="#939598" d="M356.417,143.047c0,0,65.896,15.031,76.241,72.418c0,0,16.417,64.995-49.702,99.627
			c0,0-58.475,26.764-116.499-2.473c0,0-35.533-16.867-44.529-59.148c0,0-19.566-76.014,66.569-107.499
			c0,0,10.863-5.141,35.279-6.04C323.776,139.933,339.026,138.971,356.417,143.047"/>
	</g>
</g>
<path fill="#005198" d="M297.216,94.685l12.253,52.848l-9.397,5.777c0,0,3.973-35.789-14.192-52.239"/>
<path fill="#005198" d="M348.624,82.157l-11.684,64.921l10.137,6.232c0,0-1.621-53.552,15.305-72.779"/>
<g>
	<g>
		<path fill="#005198" d="M291.729,330.485c0,0,28.277,13.158,68.319,0c0,0,5.589,12.887-0.552,27.137c0,0-29.438,18.289-67.297,0
			C292.2,357.622,286.249,345.038,291.729,330.485z"/>
	</g>
	<defs>
		<filter id="Adobe_OpacityMaskFilter_5_" filterUnits="userSpaceOnUse" x="289.41" y="330.485" width="72.967" height="35.266">
			
				<feColorMatrix  type="matrix" values="-1 0 0 0 1  0 -1 0 0 1  0 0 -1 0 1  0 0 0 1 0" color-interpolation-filters="sRGB" result="source"/>
		</filter>
	</defs>
	<mask maskUnits="userSpaceOnUse" x="289.41" y="330.485" width="72.967" height="35.266" id="SVGID_6_">
		<g filter="url(#Adobe_OpacityMaskFilter_5_)">
			
				<image overflow="visible" width="321" height="164" xlink:href="335C9FAD.jpg"  transform="matrix(0.24 0 0 0.24 287.4102 328.4849)">
			</image>
		</g>
	</mask>
	<g opacity="0.44" mask="url(#SVGID_6_)">
		<path fill="#939598" d="M291.729,330.485c0,0,28.277,13.158,68.319,0c0,0,5.589,12.887-0.552,27.137c0,0-29.438,18.289-67.297,0
			C292.2,357.622,286.249,345.038,291.729,330.485z"/>
	</g>
</g>
<polygon fill="#0076B6" points="326.312,356.846 344.18,345.952 344.18,333.75 339.604,328.52 314.981,328.52 309.099,333.75 
	309.099,345.952 "/>
<polygon fill="#FFFFFF" points="326.774,353.434 341.379,345.43 341.379,335.176 337.533,330.782 316.844,330.782 311.899,335.176 
	311.899,345.43 "/>
<path fill="#005198" d="M336.475,340.303c-2.73-2.201-5.621-3.367-9.174-3.217c-3.553,0.152-6.334,1.559-8.867,3.982
	c-0.065,0.061-0.155,0.109-0.246,0.113c-0.262,0.012-1.983-1.559-1.994-1.832c-0.005-0.102,0.036-0.195,0.103-0.268
	c2.76-2.98,6.85-4.74,10.881-4.91c4.032-0.172,8.256,1.234,11.259,3.971c0.071,0.064,0.121,0.154,0.126,0.258
	c0.011,0.273-1.57,1.984-1.833,1.994C336.637,340.399,336.545,340.356,336.475,340.303z M333.508,343.532
	c-1.94-1.377-3.562-2.176-6.021-2.072c-3.438,0.146-5.956,2.674-6.081,2.678c-0.262,0.012-1.972-1.559-1.983-1.832
	c-0.004-0.092,0.038-0.186,0.104-0.256c1.952-2.125,4.979-3.383,7.837-3.504c2.859-0.121,5.981,0.875,8.107,2.826
	c0.071,0.066,0.121,0.154,0.124,0.248c0.013,0.271-1.558,1.982-1.82,1.992C333.683,343.616,333.577,343.575,333.508,343.532z
	 M327.672,345.834c-1.686,0.07-2.854,1.262-3.025,1.27c-0.274,0.012-1.995-1.559-2.007-1.832c-0.004-0.104,0.037-0.195,0.104-0.266
	c1.167-1.26,3.12-2.018,4.806-2.088s3.696,0.516,4.966,1.672c0.071,0.064,0.12,0.154,0.126,0.256
	c0.011,0.275-1.571,1.984-1.844,1.996C330.636,346.848,329.347,345.762,327.672,345.834z M325.881,348.237
	c-0.024-0.557,1.421-0.928,1.854-0.943c0.433-0.02,1.904,0.225,1.928,0.783c0.013,0.307-1.514,1.971-1.81,1.982
	S325.895,348.545,325.881,348.237z"/>
<ellipse transform="matrix(0.8968 -0.4425 0.4425 0.8968 -57.5018 188.5425)" fill="#FFFFFF" cx="375.307" cy="217.501" rx="36.859" ry="41.116"/>
<ellipse transform="matrix(-0.8968 -0.4425 0.4425 -0.8968 436.2115 536.7751)" fill="#FFFFFF" cx="280.724" cy="217.501" rx="36.859" ry="41.116"/>
<ellipse cx="289.41" cy="245.434" rx="7.577" ry="13.891"/>
<ellipse cx="373.225" cy="245.434" rx="7.577" ry="13.891"/>
<ellipse fill="#D01E47" cx="327.635" cy="252.153" rx="12.207" ry="5.678"/>
<g>
	<g>
		<path fill="#005198" d="M296.05,101.711h-27.111c-9.345,0-16.951-7.606-16.951-16.952c0-9.339,7.606-16.945,16.951-16.945
			c1.808,0,3.591,0.292,5.293,0.859c3.657-8.659,12.13-14.414,21.818-14.414c13.084,0,23.722,10.64,23.722,23.722
			C319.771,91.068,309.134,101.711,296.05,101.711z M268.938,74.592c-5.611,0-10.172,4.562-10.172,10.167
			c0,5.605,4.561,10.167,10.172,10.167h27.111c9.345,0,16.942-7.599,16.942-16.945c0-9.345-7.598-16.945-16.942-16.945
			c-7.921,0-14.705,5.391-16.488,13.106c-0.246,1.07-1.009,1.957-2.031,2.375c-1.022,0.411-2.18,0.306-3.105-0.299
			C272.77,75.159,270.865,74.592,268.938,74.592z"/>
	</g>
</g>
<g>
	<g>
		<path fill="#005198" d="M377.552,87.142H343.62c-11.695,0-21.216-9.52-21.216-21.216c0-11.688,9.521-21.208,21.216-21.208
			c2.262,0,4.494,0.365,6.624,1.075c4.577-10.837,15.182-18.04,27.308-18.04c16.376,0,29.689,13.317,29.689,29.69
			C407.241,73.821,393.928,87.142,377.552,87.142z M343.62,53.2c-7.023,0-12.731,5.709-12.731,12.725
			c0,7.015,5.708,12.726,12.731,12.726h33.932c11.695,0,21.205-9.511,21.205-21.208c0-11.696-9.51-21.208-21.205-21.208
			c-9.914,0-18.404,6.747-20.637,16.403c-0.308,1.34-1.262,2.45-2.542,2.973c-1.279,0.514-2.728,0.382-3.887-0.375
			C348.415,53.91,346.031,53.2,343.62,53.2z"/>
	</g>
</g>
<ellipse transform="matrix(0.8967 -0.4425 0.4425 0.8967 -57.376 188.4809)" fill="none" stroke="#000000" stroke-width="7" stroke-miterlimit="10" cx="375.227" cy="217.197" rx="36.86" ry="41.116"/>
<ellipse transform="matrix(-0.8967 -0.4425 0.4425 -0.8967 436.1902 536.1654)" fill="none" stroke="#000000" stroke-width="7" stroke-miterlimit="10" cx="280.644" cy="217.197" rx="36.86" ry="41.116"/>
<polyline fill="none" stroke="#000000" stroke-width="6" stroke-miterlimit="10" points="207.765,152.11 222.265,144.61 
	259.645,185.772 "/>
<polyline fill="none" stroke="#000000" stroke-width="6" stroke-miterlimit="10" points="406.515,197.658 432.138,163.837 
	449.721,165.191 "/>
<line fill="none" stroke="#000000" stroke-width="6" stroke-miterlimit="10" x1="318.19" y1="209.785" x2="337.488" y2="209.785"/>
<g>
	<g>
		<path fill="#B8BABC" d="M442.409,371.776c0,6.074-4.925,11-11,11H226.075c-6.075,0-11-4.926-11-11V263.155c0-6.076,4.925-11,11-11
			h205.334c6.075,0,11,4.924,11,11V371.776z"/>
	</g>
	<defs>
		<filter id="Adobe_OpacityMaskFilter_6_" filterUnits="userSpaceOnUse" x="215.075" y="252.155" width="227.334" height="130.621">
			
				<feColorMatrix  type="matrix" values="-1 0 0 0 1  0 -1 0 0 1  0 0 -1 0 1  0 0 0 1 0" color-interpolation-filters="sRGB" result="source"/>
		</filter>
	</defs>
	<mask maskUnits="userSpaceOnUse" x="215.075" y="252.155" width="227.334" height="130.621" id="SVGID_7_">
		<g filter="url(#Adobe_OpacityMaskFilter_6_)">
			
				<image overflow="visible" width="964" height="561" xlink:href="335C9FA2.jpg"  transform="matrix(0.24 0 0 0.24 213.0752 250.1548)">
			</image>
		</g>
	</mask>
	<g opacity="0.28" mask="url(#SVGID_7_)">
		<path fill="#939598" d="M442.409,371.776c0,6.074-4.925,11-11,11H226.075c-6.075,0-11-4.926-11-11V263.155c0-6.076,4.925-11,11-11
			h205.334c6.075,0,11,4.924,11,11V371.776z"/>
	</g>
</g>
<path fill="#005198" d="M326.031,372.397c5.536,12.285,0.518,21.371-17.466,21.371s-21.516-8.236-18.501-21.371
	c3.179-13.844,8.052-24.395,17.983-24.395C317.98,348.002,319.98,358.971,326.031,372.397z"/>
<path fill="#005198" d="M368.312,372.397c5.536,12.285,0.518,21.371-17.466,21.371s-21.516-8.236-18.501-21.371
	c3.179-13.844,8.052-24.395,17.983-24.395C360.261,348.002,362.261,358.971,368.312,372.397z"/>
<g>
	<path fill="#FFFFFF" stroke="#FFFFFF" stroke-miterlimit="10" d="M333.969,324.799h-15.587c-5.373,0-9.746-4.373-9.746-9.746
		c0-5.369,4.373-9.742,9.746-9.742c1.039,0,2.064,0.168,3.043,0.494c2.103-4.979,6.974-8.287,12.544-8.287
		c7.522,0,13.639,6.117,13.639,13.639C347.607,318.68,341.491,324.799,333.969,324.799z M318.382,309.208
		c-3.227,0-5.849,2.623-5.849,5.846s2.622,5.846,5.849,5.846h15.587c5.373,0,9.741-4.369,9.741-9.742s-4.368-9.742-9.741-9.742
		c-4.554,0-8.454,3.1-9.479,7.535c-0.142,0.615-0.58,1.125-1.168,1.365c-0.588,0.236-1.253,0.176-1.785-0.172
		C320.584,309.534,319.489,309.208,318.382,309.208z"/>
</g>
</svg>
