<?xml version="1.0" encoding="utf-8"?>
<!-- Generator: Adobe Illustrator 16.0.0, SVG Export Plug-In . SVG Version: 6.00 Build 0)  -->
<!DOCTYPE svg PUBLIC "-//W3C//DTD SVG 1.1//EN" "http://www.w3.org/Graphics/SVG/1.1/DTD/svg11.dtd">
<svg version="1.1" id="Layer_1" xmlns="http://www.w3.org/2000/svg" xmlns:xlink="http://www.w3.org/1999/xlink" x="0px" y="0px"
	 width="622.253px" height="531.177px" viewBox="0 0 622.253 531.177" enable-background="new 0 0 622.253 531.177"
	 xml:space="preserve">
<g>
	<rect x="109.858" y="57.104" fill="#86521C" width="394.71" height="210.188"/>
	<rect x="116.795" y="65.429" fill="#00324B" width="381.167" height="192.077"/>
	<line fill="none" stroke="#FFFFFF" stroke-miterlimit="10" x1="132.057" y1="84.852" x2="492.083" y2="84.852"/>
	<line fill="none" stroke="#FFFFFF" stroke-miterlimit="10" x1="132.057" y1="110.519" x2="492.083" y2="110.519"/>
	<line fill="none" stroke="#FFFFFF" stroke-miterlimit="10" x1="207.689" y1="75.141" x2="207.689" y2="253.418"/>
	<line fill="none" stroke="#FFFFFF" stroke-miterlimit="10" x1="283.281" y1="75.141" x2="283.281" y2="253.418"/>
	<line fill="none" stroke="#FFFFFF" stroke-miterlimit="10" x1="366.524" y1="75.141" x2="366.524" y2="253.419"/>
	<line fill="none" stroke="#FFFFFF" stroke-miterlimit="10" x1="431.43" y1="75.141" x2="431.43" y2="253.419"/>
	<text transform="matrix(1 0 0 1 154.2539 101.4995)" fill="#FFFFFF" font-family="'SFUIDisplay-Bold'" font-size="9.7117">Stories</text>
	<text transform="matrix(1 0 0 1 231.1367 101.4995)" fill="#FFFFFF" font-family="'SFUIDisplay-Bold'" font-size="9.7117">ToDo</text>
	<text transform="matrix(1 0 0 1 299.8096 101.4995)" fill="#FFFFFF" font-family="'SFUIDisplay-Bold'" font-size="9.7117">In Progress</text>
	<text transform="matrix(1 0 0 1 380 101.4995)" fill="#FFFFFF" font-family="'SFUIDisplay-Bold'" font-size="9.7117">Testing</text>
	<text transform="matrix(1 0 0 1 452.4756 101.4995)" fill="#FFFFFF" font-family="'SFUIDisplay-Bold'" font-size="9.7117">Done</text>
	<g>
		<rect x="175.759" y="118.149" fill="#AD6DAD" width="22.893" height="23.585"/>
		
			<line fill="none" stroke="#000000" stroke-width="2" stroke-miterlimit="10" x1="179.228" y1="125.433" x2="188.939" y2="125.433"/>
		
			<line fill="none" stroke="#000000" stroke-width="2" stroke-miterlimit="10" x1="179.228" y1="129.942" x2="195.529" y2="129.942"/>
		
			<line fill="none" stroke="#000000" stroke-width="2" stroke-miterlimit="10" x1="179.228" y1="133.411" x2="195.529" y2="133.411"/>
	</g>
	<g>
		
			<rect x="154.484" y="146.821" transform="matrix(0.8409 0.5412 -0.5412 0.8409 112.2419 -64.5646)" fill="#FEE600" width="22.891" height="23.585"/>
		
			<line fill="none" stroke="#000000" stroke-width="2" stroke-miterlimit="10" x1="161.662" y1="150.505" x2="169.829" y2="155.761"/>
		
			<line fill="none" stroke="#000000" stroke-width="2" stroke-miterlimit="10" x1="159.222" y1="154.297" x2="172.93" y2="163.119"/>
		
			<line fill="none" stroke="#000000" stroke-width="2" stroke-miterlimit="10" x1="157.344" y1="157.213" x2="171.052" y2="166.036"/>
	</g>
	<rect x="213.219" y="118.149" fill="#FEE600" width="22.892" height="23.585"/>
	
		<line fill="none" stroke="#000000" stroke-width="2" stroke-miterlimit="10" x1="216.688" y1="125.433" x2="226.398" y2="125.433"/>
	
		<line fill="none" stroke="#000000" stroke-width="2" stroke-miterlimit="10" x1="216.688" y1="129.942" x2="232.988" y2="129.942"/>
	
		<line fill="none" stroke="#000000" stroke-width="2" stroke-miterlimit="10" x1="216.688" y1="133.411" x2="232.988" y2="133.411"/>
	<rect x="246.862" y="115.375" fill="#FEE600" width="22.892" height="23.585"/>
	
		<line fill="none" stroke="#000000" stroke-width="2" stroke-miterlimit="10" x1="250.331" y1="122.658" x2="260.043" y2="122.658"/>
	
		<line fill="none" stroke="#000000" stroke-width="2" stroke-miterlimit="10" x1="250.331" y1="127.167" x2="266.633" y2="127.167"/>
	
		<line fill="none" stroke="#000000" stroke-width="2" stroke-miterlimit="10" x1="250.331" y1="130.636" x2="266.633" y2="130.636"/>
	<rect x="226.398" y="145.55" fill="#FEE600" width="22.893" height="23.585"/>
	
		<line fill="none" stroke="#000000" stroke-width="2" stroke-miterlimit="10" x1="229.867" y1="152.833" x2="239.578" y2="152.833"/>
	
		<line fill="none" stroke="#000000" stroke-width="2" stroke-miterlimit="10" x1="229.867" y1="157.343" x2="246.169" y2="157.343"/>
	
		<line fill="none" stroke="#000000" stroke-width="2" stroke-miterlimit="10" x1="229.867" y1="160.812" x2="246.169" y2="160.812"/>
	<g>
		<rect x="299.811" y="118.843" fill="#22A7AA" width="22.892" height="23.585"/>
		
			<line fill="none" stroke="#000000" stroke-width="2" stroke-miterlimit="10" x1="303.279" y1="126.126" x2="312.991" y2="126.126"/>
		
			<line fill="none" stroke="#000000" stroke-width="2" stroke-miterlimit="10" x1="303.279" y1="130.636" x2="319.581" y2="130.636"/>
		
			<line fill="none" stroke="#000000" stroke-width="2" stroke-miterlimit="10" x1="303.279" y1="134.104" x2="319.581" y2="134.104"/>
	</g>
	<g>
		
			<rect x="311.257" y="155.797" transform="matrix(0.9771 0.2128 -0.2128 0.9771 43.0571 -64.8359)" fill="#FEE600" width="22.892" height="23.585"/>
		
			<line fill="none" stroke="#000000" stroke-width="2" stroke-miterlimit="10" x1="315.867" y1="161.487" x2="325.356" y2="163.553"/>
		
			<line fill="none" stroke="#000000" stroke-width="2" stroke-miterlimit="10" x1="314.907" y1="165.892" x2="330.837" y2="169.361"/>
		<line fill="none" stroke="#000000" stroke-width="2" stroke-miterlimit="10" x1="314.17" y1="169.281" x2="330.099" y2="172.75"/>
	</g>
	<g>
		
			<rect x="373.81" y="119.94" transform="matrix(0.9771 0.2128 -0.2128 0.9771 36.853 -78.9589)" fill="#FEE600" width="22.892" height="23.586"/>
		
			<line fill="none" stroke="#000000" stroke-width="2" stroke-miterlimit="10" x1="378.421" y1="125.63" x2="387.909" y2="127.696"/>
		
			<line fill="none" stroke="#000000" stroke-width="2" stroke-miterlimit="10" x1="377.461" y1="130.035" x2="393.388" y2="133.505"/>
		
			<line fill="none" stroke="#000000" stroke-width="2" stroke-miterlimit="10" x1="376.723" y1="133.425" x2="392.651" y2="136.893"/>
	</g>
	<g>
		
			<rect x="335.894" y="135.462" transform="matrix(0.9066 -0.422 0.422 0.9066 -29.6984 160.3334)" fill="#FEE600" width="22.891" height="23.585"/>
		
			<line fill="none" stroke="#000000" stroke-width="2" stroke-miterlimit="10" x1="338.205" y1="146.533" x2="347.009" y2="142.435"/>
		
			<line fill="none" stroke="#000000" stroke-width="2" stroke-miterlimit="10" x1="340.106" y1="150.622" x2="354.886" y2="143.741"/>
		
			<line fill="none" stroke="#000000" stroke-width="2" stroke-miterlimit="10" x1="341.572" y1="153.765" x2="356.351" y2="146.886"/>
	</g>
	<g>
		<rect x="398.949" y="137.226" fill="#5EBE76" width="22.892" height="23.585"/>
		
			<line fill="none" stroke="#000000" stroke-width="2" stroke-miterlimit="10" x1="402.417" y1="144.509" x2="412.129" y2="144.509"/>
		
			<line fill="none" stroke="#000000" stroke-width="2" stroke-miterlimit="10" x1="402.417" y1="149.019" x2="418.719" y2="149.019"/>
		
			<line fill="none" stroke="#000000" stroke-width="2" stroke-miterlimit="10" x1="402.417" y1="152.487" x2="418.719" y2="152.487"/>
	</g>
	<g>
		<rect x="453.403" y="147.284" fill="#5EBE76" width="22.892" height="23.586"/>
		
			<line fill="none" stroke="#000000" stroke-width="2" stroke-miterlimit="10" x1="456.872" y1="154.568" x2="466.584" y2="154.568"/>
		
			<line fill="none" stroke="#000000" stroke-width="2" stroke-miterlimit="10" x1="456.872" y1="159.077" x2="473.174" y2="159.077"/>
		
			<line fill="none" stroke="#000000" stroke-width="2" stroke-miterlimit="10" x1="456.872" y1="162.545" x2="473.174" y2="162.545"/>
	</g>
	<g>
		<rect x="435.714" y="174.685" fill="#AD6DAD" width="22.893" height="23.586"/>
		
			<line fill="none" stroke="#000000" stroke-width="2" stroke-miterlimit="10" x1="439.183" y1="181.969" x2="448.895" y2="181.969"/>
		
			<line fill="none" stroke="#000000" stroke-width="2" stroke-miterlimit="10" x1="439.183" y1="186.478" x2="455.484" y2="186.478"/>
		
			<line fill="none" stroke="#000000" stroke-width="2" stroke-miterlimit="10" x1="439.183" y1="189.946" x2="455.484" y2="189.946"/>
	</g>
	<g>
		
			<rect x="214.953" y="174.685" transform="matrix(0.9156 -0.4021 0.4021 0.9156 -55.8727 106.7715)" fill="#FEE600" width="22.893" height="23.585"/>
		
			<line fill="none" stroke="#000000" stroke-width="2" stroke-miterlimit="10" x1="217.281" y1="185.557" x2="226.174" y2="181.652"/>
		
			<line fill="none" stroke="#000000" stroke-width="2" stroke-miterlimit="10" x1="219.095" y1="189.686" x2="234.021" y2="183.13"/>
		
			<line fill="none" stroke="#000000" stroke-width="2" stroke-miterlimit="10" x1="220.489" y1="192.861" x2="235.415" y2="186.307"/>
	</g>
	<rect x="255.188" y="162.893" fill="#22A7AA" width="22.892" height="23.585"/>
	
		<line fill="none" stroke="#000000" stroke-width="2" stroke-miterlimit="10" x1="258.655" y1="174.685" x2="274.957" y2="174.685"/>
	
		<line fill="none" stroke="#000000" stroke-width="2" stroke-miterlimit="10" x1="258.655" y1="178.153" x2="274.957" y2="178.153"/>
	
		<line fill="none" stroke="#000000" stroke-width="2" stroke-miterlimit="10" x1="258.655" y1="171.078" x2="268.366" y2="171.078"/>
</g>
<g>
	<g>
		<path fill="#0076B6" d="M284.991,242.54l8.5,36.66l-6.52,4.009c0,0,2.756-24.827-9.845-36.238"/>
		<path fill="#0076B6" d="M321.715,227.944l-9.168,50.94l7.032,4.324c0,0-1.125-37.149,10.616-50.487"/>
		<path fill="#0076B6" d="M298.791,234.702c0,0.423-0.339,0.931-0.79,1.016l-5.219,0.79c-0.311,0.902-0.648,1.748-1.1,2.566
			c0.959,1.382,1.975,2.624,3.018,3.893c0.17,0.197,0.283,0.452,0.283,0.706c0,0.253-0.085,0.451-0.254,0.648
			c-0.678,0.902-4.486,5.05-5.445,5.05c-0.254,0-0.508-0.113-0.732-0.255l-3.894-3.046c-0.818,0.423-1.692,0.79-2.567,1.072
			c-0.195,1.721-0.366,3.554-0.818,5.246c-0.111,0.451-0.507,0.79-1.015,0.79h-6.263c-0.508,0-0.958-0.367-1.016-0.846l-0.79-5.19
			c-0.874-0.282-1.721-0.62-2.539-1.045l-3.977,3.019c-0.197,0.17-0.451,0.255-0.705,0.255s-0.507-0.113-0.705-0.311
			c-1.496-1.354-3.47-3.104-4.655-4.739c-0.141-0.197-0.196-0.424-0.196-0.648c0-0.254,0.084-0.451,0.225-0.649
			c0.96-1.298,2.004-2.539,2.962-3.864c-0.479-0.903-0.874-1.834-1.156-2.793l-5.161-0.762c-0.48-0.084-0.818-0.536-0.818-1.015
			v-6.263c0-0.423,0.338-0.931,0.762-1.015l5.247-0.79c0.281-0.902,0.647-1.749,1.1-2.595c-0.959-1.354-1.975-2.624-3.019-3.893
			c-0.169-0.197-0.282-0.423-0.282-0.677c0-0.255,0.113-0.452,0.254-0.649c0.678-0.931,4.484-5.05,5.444-5.05
			c0.254,0,0.508,0.113,0.733,0.282l3.894,3.018c0.817-0.423,1.691-0.79,2.565-1.071c0.197-1.721,0.367-3.555,0.818-5.248
			c0.114-0.451,0.508-0.79,1.016-0.79h6.263c0.508,0,0.959,0.367,1.015,0.847l0.79,5.191c0.875,0.281,1.721,0.62,2.539,1.043
			l4.007-3.019c0.168-0.169,0.422-0.253,0.676-0.253c0.255,0,0.508,0.113,0.706,0.282c1.494,1.382,3.47,3.131,4.654,4.796
			c0.141,0.168,0.197,0.394,0.197,0.621c0,0.253-0.084,0.451-0.227,0.648c-0.958,1.297-2.002,2.539-2.962,3.864
			c0.48,0.903,0.876,1.833,1.157,2.764l5.162,0.79c0.479,0.085,0.818,0.537,0.818,1.016V234.702z M277.127,224.292
			c-3.978,0-7.222,3.244-7.222,7.222c0,3.978,3.244,7.221,7.222,7.221s7.221-3.243,7.221-7.221
			C284.348,227.536,281.104,224.292,277.127,224.292z"/>
		<path fill="#0076B6" d="M364.043,219.833c0,0.514-0.41,1.131-0.959,1.233l-6.343,0.96c-0.376,1.097-0.787,2.125-1.336,3.12
			c1.165,1.679,2.4,3.188,3.668,4.729c0.206,0.24,0.343,0.549,0.343,0.858c0,0.308-0.104,0.548-0.309,0.788
			c-0.823,1.096-5.452,6.135-6.616,6.135c-0.308,0-0.617-0.137-0.892-0.308l-4.729-3.703c-0.995,0.515-2.057,0.96-3.119,1.304
			c-0.239,2.09-0.446,4.317-0.995,6.374c-0.136,0.549-0.616,0.961-1.233,0.961h-7.609c-0.617,0-1.166-0.446-1.234-1.028
			l-0.959-6.307c-1.063-0.344-2.092-0.755-3.086-1.27l-4.833,3.669c-0.24,0.204-0.549,0.308-0.856,0.308
			c-0.31,0-0.618-0.137-0.857-0.377c-1.817-1.646-4.217-3.771-5.655-5.758c-0.172-0.24-0.242-0.515-0.242-0.789
			c0-0.309,0.104-0.548,0.276-0.788c1.164-1.577,2.434-3.085,3.598-4.696c-0.582-1.098-1.062-2.229-1.404-3.394l-6.273-0.926
			c-0.583-0.103-0.993-0.651-0.993-1.234v-7.609c0-0.515,0.41-1.131,0.926-1.234l6.376-0.96c0.343-1.096,0.787-2.125,1.335-3.153
			c-1.164-1.645-2.399-3.188-3.667-4.73c-0.206-0.24-0.343-0.515-0.343-0.823s0.137-0.549,0.309-0.789
			c0.823-1.13,5.449-6.135,6.616-6.135c0.308,0,0.616,0.138,0.891,0.343l4.73,3.668c0.995-0.515,2.057-0.96,3.119-1.303
			c0.239-2.091,0.446-4.319,0.994-6.375c0.137-0.548,0.617-0.96,1.234-0.96h7.609c0.617,0,1.166,0.446,1.233,1.029l0.96,6.307
			c1.063,0.343,2.092,0.754,3.086,1.269l4.867-3.668c0.205-0.205,0.515-0.309,0.822-0.309c0.309,0,0.616,0.138,0.857,0.343
			c1.817,1.68,4.216,3.805,5.655,5.828c0.172,0.205,0.24,0.48,0.24,0.753c0,0.309-0.103,0.549-0.274,0.788
			c-1.164,1.578-2.434,3.085-3.599,4.696c0.583,1.098,1.063,2.229,1.405,3.36l6.273,0.96c0.583,0.102,0.993,0.651,0.993,1.234
			V219.833z M337.718,207.185c-4.832,0-8.775,3.941-8.775,8.775c0,4.833,3.943,8.774,8.775,8.774c4.833,0,8.775-3.941,8.775-8.774
			C346.493,211.125,342.551,207.185,337.718,207.185z"/>
	</g>
	<path fill="#0076B6" d="M301.418,408.82c15.582,1.079,31.059,3.601,46.112,7.767c5.37,1.487,13.285,3.212,15.421,9.176
		c2.17,6.061-1.712,8.897-7.249,9.694c-7.643,1.1-10.352-7.414-15.214-11.347c-5.57-4.506-12.063-7.132-18.998-8.899
		c-6.452-1.645-13.432-2.166-20.072-2.278V408.82z"/>
	<path fill="#0076B6" d="M303.424,408.82c-15.583,1.079-31.059,3.601-46.112,7.767c-5.37,1.487-13.285,3.212-15.421,9.176
		c-2.17,6.061,1.711,8.897,7.248,9.694c7.644,1.1,10.352-7.414,15.215-11.347c5.571-4.506,12.063-7.132,18.997-8.899
		c6.452-1.645,13.433-2.166,20.073-2.278V408.82z"/>
	<path fill="#005198" d="M280.487,405.577c0,0-49.548-11.144-54.791-47.85c0,0-2.478-8.487-10.567-6.297
		c0,0-27.025,12.652,17.646,37.68c0,0,29.365,17.007,46.649,18.542L280.487,405.577z"/>
	<path fill="#005198" d="M316.144,407.573c0,0,50.698-3,61.798-38.378c0,0,3.814-7.978,11.446-4.51c0,0,24.628,16.85-23.498,34.339
		c0,0-31.725,12.043-49.03,10.769L316.144,407.573z"/>
	<g>
		<g>
			<ellipse fill="#005198" cx="303.456" cy="412.84" rx="25.315" ry="25.363"/>
		</g>
		<defs>
			<filter id="Adobe_OpacityMaskFilter" filterUnits="userSpaceOnUse" x="278.141" y="387.477" width="50.631" height="50.727">
				
					<feColorMatrix  type="matrix" values="-1 0 0 0 1  0 -1 0 0 1  0 0 -1 0 1  0 0 0 1 0" color-interpolation-filters="sRGB" result="source"/>
			</filter>
		</defs>
		<mask maskUnits="userSpaceOnUse" x="278.141" y="387.477" width="50.631" height="50.727" id="SVGID_1_">
			<g filter="url(#Adobe_OpacityMaskFilter)">
				
					<image overflow="visible" width="228" height="229" xlink:href="3C386FE4.jpg"  transform="matrix(0.24 0 0 0.24 276.1406 385.4771)">
				</image>
			</g>
		</mask>
		<g opacity="0.44" mask="url(#SVGID_1_)">
			<ellipse fill="#939598" cx="303.456" cy="412.84" rx="25.315" ry="25.363"/>
		</g>
	</g>
	<g>
		<g>
			<path fill="#005198" d="M308.724,447.34c0,0,3.019-11.7,13.058-11.588c0,0,6.794-0.451,17.965,11.776
				c0,0,6.001,6.151-7.134,6.868c0,0-16.529,0.416-20.756-1.924C311.856,452.473,307.741,451.302,308.724,447.34z"/>
		</g>
		<defs>
			<filter id="Adobe_OpacityMaskFilter_1_" filterUnits="userSpaceOnUse" x="308.572" y="435.75" width="32.542" height="18.675">
				
					<feColorMatrix  type="matrix" values="-1 0 0 0 1  0 -1 0 0 1  0 0 -1 0 1  0 0 0 1 0" color-interpolation-filters="sRGB" result="source"/>
			</filter>
		</defs>
		<mask maskUnits="userSpaceOnUse" x="308.572" y="435.75" width="32.542" height="18.675" id="SVGID_2_">
			<g filter="url(#Adobe_OpacityMaskFilter_1_)">
				
					<image overflow="visible" width="153" height="95" xlink:href="3C386FEC.jpg"  transform="matrix(0.24 0 0 0.24 306.5723 433.7505)">
				</image>
			</g>
		</mask>
		<g opacity="0.44" mask="url(#SVGID_2_)">
			<path fill="#939598" d="M308.724,447.34c0,0,3.019-11.7,13.058-11.588c0,0,6.794-0.451,17.965,11.776
				c0,0,6.001,6.151-7.134,6.868c0,0-16.529,0.416-20.756-1.924C311.856,452.473,307.741,451.302,308.724,447.34z"/>
		</g>
	</g>
	<g>
		<g>
			<path fill="#005198" d="M299.465,447.34c0,0-3.019-11.7-13.059-11.588c0,0-6.793-0.451-17.964,11.776
				c0,0-6.002,6.151,7.132,6.868c0,0,16.53,0.416,20.758-1.924C296.332,452.473,300.445,451.302,299.465,447.34z"/>
		</g>
		<defs>
			<filter id="Adobe_OpacityMaskFilter_2_" filterUnits="userSpaceOnUse" x="267.074" y="435.75" width="32.542" height="18.675">
				
					<feColorMatrix  type="matrix" values="-1 0 0 0 1  0 -1 0 0 1  0 0 -1 0 1  0 0 0 1 0" color-interpolation-filters="sRGB" result="source"/>
			</filter>
		</defs>
		<mask maskUnits="userSpaceOnUse" x="267.074" y="435.75" width="32.542" height="18.675" id="SVGID_3_">
			<g filter="url(#Adobe_OpacityMaskFilter_2_)">
				
					<image overflow="visible" width="153" height="95" xlink:href="3C386FED.jpg"  transform="matrix(0.24 0 0 0.24 265.0742 433.7505)">
				</image>
			</g>
		</mask>
		<g opacity="0.44" mask="url(#SVGID_3_)">
			<path fill="#939598" d="M299.465,447.34c0,0-3.019-11.7-13.059-11.588c0,0-6.793-0.451-17.964,11.776
				c0,0-6.002,6.151,7.132,6.868c0,0,16.53,0.416,20.758-1.924C296.332,452.473,300.445,451.302,299.465,447.34z"/>
		</g>
	</g>
	<g>
		<g>
			<path fill="#0076B6" d="M324.634,273.875c0,0,45.711,10.428,52.887,50.236c0,0,11.389,45.086-34.477,69.11
				c0,0-40.563,18.565-80.815-1.715c0,0-24.648-11.701-30.889-41.031c0,0-13.574-52.73,46.179-74.57c0,0,7.536-3.565,24.472-4.189
				C301.99,271.716,312.569,271.048,324.634,273.875"/>
		</g>
		<defs>
			<filter id="Adobe_OpacityMaskFilter_3_" filterUnits="userSpaceOnUse" x="230.015" y="271.647" width="148.76" height="129.341">
				
					<feColorMatrix  type="matrix" values="-1 0 0 0 1  0 -1 0 0 1  0 0 -1 0 1  0 0 0 1 0" color-interpolation-filters="sRGB" result="source"/>
			</filter>
		</defs>
		<mask maskUnits="userSpaceOnUse" x="230.015" y="271.647" width="148.76" height="129.341" id="SVGID_4_">
			<g filter="url(#Adobe_OpacityMaskFilter_3_)">
				
					<image overflow="visible" width="637" height="556" xlink:href="3C386FEF.jpg"  transform="matrix(0.24 0 0 0.24 228.0146 269.6479)">
				</image>
			</g>
		</mask>
		<g opacity="0.44" mask="url(#SVGID_4_)">
			<path fill="#939598" d="M324.634,273.875c0,0,45.711,10.428,52.887,50.236c0,0,11.389,45.086-34.477,69.11
				c0,0-40.563,18.565-80.815-1.715c0,0-24.648-11.701-30.889-41.031c0,0-13.574-52.73,46.179-74.57c0,0,7.536-3.565,24.472-4.189
				C301.99,271.716,312.569,271.048,324.634,273.875"/>
		</g>
	</g>
	<g>
		<g>
			<path fill="#0076B6" d="M279.761,403.9c0,0,19.615,9.128,47.393,0c0,0,3.877,8.939-0.383,18.824c0,0-20.421,12.688-46.684,0
				C280.087,422.724,275.959,413.996,279.761,403.9z"/>
		</g>
		<defs>
			<filter id="Adobe_OpacityMaskFilter_4_" filterUnits="userSpaceOnUse" x="278.151" y="403.9" width="50.617" height="24.463">
				
					<feColorMatrix  type="matrix" values="-1 0 0 0 1  0 -1 0 0 1  0 0 -1 0 1  0 0 0 1 0" color-interpolation-filters="sRGB" result="source"/>
			</filter>
		</defs>
		<mask maskUnits="userSpaceOnUse" x="278.151" y="403.9" width="50.617" height="24.463" id="SVGID_5_">
			<g filter="url(#Adobe_OpacityMaskFilter_4_)">
				
					<image overflow="visible" width="228" height="119" xlink:href="3C386FEB.jpg"  transform="matrix(0.24 0 0 0.24 276.1514 401.8999)">
				</image>
			</g>
		</mask>
		<g opacity="0.44" mask="url(#SVGID_5_)">
			<path fill="#939598" d="M279.761,403.9c0,0,19.615,9.128,47.393,0c0,0,3.877,8.939-0.383,18.824c0,0-20.421,12.688-46.684,0
				C280.087,422.724,275.959,413.996,279.761,403.9z"/>
		</g>
	</g>
	
		<ellipse transform="matrix(0.8968 -0.4425 0.4425 0.8968 -109.1822 183.0618)" fill="#FFFFFF" cx="337.737" cy="325.524" rx="25.569" ry="28.522"/>
	
		<ellipse transform="matrix(-0.8968 -0.4425 0.4425 -0.8968 372.1031 737.8628)" fill="#FFFFFF" cx="272.125" cy="325.524" rx="25.569" ry="28.521"/>
	<g>
		
			<image overflow="visible" opacity="0.65" width="424" height="202" xlink:href="3C386FEF.png"  transform="matrix(0.24 0 0 0.24 256.1035 349.353)">
		</image>
		<g>
			<path d="M272.263,361.534c0.343,0.108,0.625,0.201,0.821,0.264c3.3,1.06,6.303,1.451,9.744,1.75
				c10.205,0.882,20.318,1.266,30.547,0.252c6.226-0.617,12.825-1.764,18.74-3.867c0.006,0,13.141-4.669,16.643,0
				c0,0,5.258,9.346-18.102,22.778c0,0-27.45,14.891-49.35,0c0,0-17.806-8.76-16.645-20.145
				C264.977,359.502,269.978,360.822,272.263,361.534z"/>
		</g>
	</g>
	<path fill="#D01E47" d="M297.875,388.941c0,0,2.12-20.248,18.472-11.488c0,0,10.997-12.135,16.887,3.714
		C333.233,381.167,317.369,391.103,297.875,388.941z"/>
	<ellipse cx="285.396" cy="325.77" rx="5.256" ry="9.636"/>
	<ellipse cx="322.142" cy="325.77" rx="5.256" ry="9.636"/>
	<ellipse fill="#D01E47" cx="304.667" cy="349.562" rx="8.467" ry="3.938"/>
</g>
<g>
	<g>
		<g>
			<path fill="#6CBE45" d="M195.075,460.927c0,0,3.019-11.699,13.058-11.587c0,0,6.793-0.453,17.965,11.775c0,0,6,6.151-7.134,6.868
				c0,0-16.53,0.416-20.757-1.925C198.207,466.059,194.092,464.888,195.075,460.927z"/>
		</g>
		<defs>
			<filter id="Adobe_OpacityMaskFilter_5_" filterUnits="userSpaceOnUse" x="194.923" y="449.338" width="32.542" height="18.674">
				
					<feColorMatrix  type="matrix" values="-1 0 0 0 1  0 -1 0 0 1  0 0 -1 0 1  0 0 0 1 0" color-interpolation-filters="sRGB" result="source"/>
			</filter>
		</defs>
		<mask maskUnits="userSpaceOnUse" x="194.923" y="449.338" width="32.542" height="18.674" id="SVGID_6_">
			<g filter="url(#Adobe_OpacityMaskFilter_5_)">
				
					<image overflow="visible" width="153" height="95" xlink:href="3C386FF9.jpg"  transform="matrix(0.24 0 0 0.24 192.9233 447.3384)">
				</image>
			</g>
		</mask>
		<g opacity="0.44" mask="url(#SVGID_6_)">
			<path fill="#939598" d="M195.075,460.927c0,0,3.019-11.699,13.058-11.587c0,0,6.793-0.453,17.965,11.775c0,0,6,6.151-7.134,6.868
				c0,0-16.53,0.416-20.757-1.925C198.207,466.059,194.092,464.888,195.075,460.927z"/>
		</g>
	</g>
	<g>
		<g>
			<path fill="#008C3F" d="M157.793,409.907c0,0,9.56,2.18,11.06,10.505c0,0,2.382,9.429-7.21,14.453c0,0-8.481,3.882-16.899-0.359
				c0,0-5.154-2.447-6.458-8.58c0,0-2.839-11.026,9.656-15.594c0,0,1.577-0.746,5.117-0.876
				C153.058,409.456,155.271,409.316,157.793,409.907"/>
		</g>
		<defs>
			<filter id="Adobe_OpacityMaskFilter_6_" filterUnits="userSpaceOnUse" x="138.007" y="409.441" width="31.107" height="27.047">
				
					<feColorMatrix  type="matrix" values="-1 0 0 0 1  0 -1 0 0 1  0 0 -1 0 1  0 0 0 1 0" color-interpolation-filters="sRGB" result="source"/>
			</filter>
		</defs>
		<mask maskUnits="userSpaceOnUse" x="138.007" y="409.441" width="31.107" height="27.047" id="SVGID_7_">
			<g filter="url(#Adobe_OpacityMaskFilter_6_)">
				
					<image overflow="visible" width="147" height="130" xlink:href="3C386FFA.jpg"  transform="matrix(0.24 0 0 0.24 136.0078 407.4409)">
				</image>
			</g>
		</mask>
		<g opacity="0.44" mask="url(#SVGID_7_)">
			<path fill="#939598" d="M157.793,409.907c0,0,9.56,2.18,11.06,10.505c0,0,2.382,9.429-7.21,14.453c0,0-8.481,3.882-16.899-0.359
				c0,0-5.154-2.447-6.458-8.58c0,0-2.839-11.026,9.656-15.594c0,0,1.577-0.746,5.117-0.876
				C153.058,409.456,155.271,409.316,157.793,409.907"/>
		</g>
	</g>
	<g>
		<g>
			<path fill="#6CBE45" d="M176.111,408.67c0,0,12.671,2.891,14.658,13.924c0,0,3.158,12.497-9.556,19.156
				c0,0-11.243,5.146-22.399-0.476c0,0-6.833-3.244-8.561-11.373c0,0-3.763-14.614,12.798-20.668c0,0,2.091-0.989,6.784-1.161
				C169.835,408.073,172.767,407.888,176.111,408.67"/>
		</g>
		<defs>
			<filter id="Adobe_OpacityMaskFilter_7_" filterUnits="userSpaceOnUse" x="149.886" y="408.054" width="41.23" height="35.849">
				
					<feColorMatrix  type="matrix" values="-1 0 0 0 1  0 -1 0 0 1  0 0 -1 0 1  0 0 0 1 0" color-interpolation-filters="sRGB" result="source"/>
			</filter>
		</defs>
		<mask maskUnits="userSpaceOnUse" x="149.886" y="408.054" width="41.23" height="35.849" id="SVGID_8_">
			<g filter="url(#Adobe_OpacityMaskFilter_7_)">
				
					<image overflow="visible" width="189" height="167" xlink:href="3C386FFB.jpg"  transform="matrix(0.24 0 0 0.24 147.8862 406.0542)">
				</image>
			</g>
		</mask>
		<g opacity="0.44" mask="url(#SVGID_8_)">
			<path fill="#939598" d="M176.111,408.67c0,0,12.671,2.891,14.658,13.924c0,0,3.158,12.497-9.556,19.156
				c0,0-11.243,5.146-22.399-0.476c0,0-6.833-3.244-8.561-11.373c0,0-3.763-14.614,12.798-20.668c0,0,2.091-0.989,6.784-1.161
				C169.835,408.073,172.767,407.888,176.111,408.67"/>
		</g>
	</g>
	<g>
		<g>
			<path fill="#6CBE45" d="M185.763,463.24c0,0,3.019-11.7,13.058-11.588c0,0,6.793-0.452,17.964,11.775
				c0,0,6.001,6.152-7.133,6.869c0,0-16.53,0.414-20.757-1.926C188.896,468.371,184.781,467.202,185.763,463.24z"/>
		</g>
		<defs>
			<filter id="Adobe_OpacityMaskFilter_8_" filterUnits="userSpaceOnUse" x="185.612" y="451.65" width="32.542" height="18.675">
				
					<feColorMatrix  type="matrix" values="-1 0 0 0 1  0 -1 0 0 1  0 0 -1 0 1  0 0 0 1 0" color-interpolation-filters="sRGB" result="source"/>
			</filter>
		</defs>
		<mask maskUnits="userSpaceOnUse" x="185.612" y="451.65" width="32.542" height="18.675" id="SVGID_9_">
			<g filter="url(#Adobe_OpacityMaskFilter_8_)">
				
					<image overflow="visible" width="153" height="95" xlink:href="B4282BF4.jpg"  transform="matrix(0.24 0 0 0.24 183.6118 449.6499)">
				</image>
			</g>
		</mask>
		<g opacity="0.44" mask="url(#SVGID_9_)">
			<path fill="#939598" d="M185.763,463.24c0,0,3.019-11.7,13.058-11.588c0,0,6.793-0.452,17.964,11.775
				c0,0,6.001,6.152-7.133,6.869c0,0-16.53,0.414-20.757-1.926C188.896,468.371,184.781,467.202,185.763,463.24z"/>
		</g>
	</g>
	<g>
		<g>
			<ellipse fill="#008C3F" cx="198.026" cy="422.727" rx="25.316" ry="25.363"/>
		</g>
		<defs>
			<filter id="Adobe_OpacityMaskFilter_9_" filterUnits="userSpaceOnUse" x="172.71" y="397.364" width="50.632" height="50.727">
				
					<feColorMatrix  type="matrix" values="-1 0 0 0 1  0 -1 0 0 1  0 0 -1 0 1  0 0 0 1 0" color-interpolation-filters="sRGB" result="source"/>
			</filter>
		</defs>
		<mask maskUnits="userSpaceOnUse" x="172.71" y="397.364" width="50.632" height="50.727" id="SVGID_10_">
			<g filter="url(#Adobe_OpacityMaskFilter_9_)">
				
					<image overflow="visible" width="228" height="229" xlink:href="B4282C0E.jpg"  transform="matrix(0.24 0 0 0.24 170.71 395.3638)">
				</image>
			</g>
		</mask>
		<g opacity="0.44" mask="url(#SVGID_10_)">
			<ellipse fill="#939598" cx="198.026" cy="422.727" rx="25.316" ry="25.363"/>
		</g>
	</g>
	<g>
		<g>
			<path fill="#6CBE45" d="M219.203,283.763c0,0,45.711,10.427,52.888,50.234c0,0,11.389,45.086-34.478,69.112
				c0,0-40.563,18.565-80.815-1.716c0,0-24.649-11.701-30.889-41.03c0,0-13.573-52.731,46.179-74.572c0,0,7.536-3.566,24.473-4.188
				C196.561,281.603,207.141,280.935,219.203,283.763"/>
		</g>
		<defs>
			
				<filter id="Adobe_OpacityMaskFilter_10_" filterUnits="userSpaceOnUse" x="124.584" y="281.534" width="148.76" height="129.342">
				
					<feColorMatrix  type="matrix" values="-1 0 0 0 1  0 -1 0 0 1  0 0 -1 0 1  0 0 0 1 0" color-interpolation-filters="sRGB" result="source"/>
			</filter>
		</defs>
		<mask maskUnits="userSpaceOnUse" x="124.584" y="281.534" width="148.76" height="129.342" id="SVGID_11_">
			<g filter="url(#Adobe_OpacityMaskFilter_10_)">
				
					<image overflow="visible" width="637" height="556" xlink:href="B4282C11.jpg"  transform="matrix(0.24 0 0 0.24 122.5845 279.5347)">
				</image>
			</g>
		</mask>
		<g opacity="0.44" mask="url(#SVGID_11_)">
			<path fill="#939598" d="M219.203,283.763c0,0,45.711,10.427,52.888,50.234c0,0,11.389,45.086-34.478,69.112
				c0,0-40.563,18.565-80.815-1.716c0,0-24.649-11.701-30.889-41.03c0,0-13.573-52.731,46.179-74.572c0,0,7.536-3.566,24.473-4.188
				C196.561,281.603,207.141,280.935,219.203,283.763"/>
		</g>
	</g>
	<g>
		<g>
			<path fill="#6CBE45" d="M174.572,413.787c0,0,19.615,9.128,47.393,0c0,0,3.876,8.94-0.383,18.824c0,0-20.421,12.687-46.684,0
				C174.898,432.611,170.77,423.882,174.572,413.787z"/>
		</g>
		<defs>
			<filter id="Adobe_OpacityMaskFilter_11_" filterUnits="userSpaceOnUse" x="172.963" y="413.787" width="50.616" height="24.463">
				
					<feColorMatrix  type="matrix" values="-1 0 0 0 1  0 -1 0 0 1  0 0 -1 0 1  0 0 0 1 0" color-interpolation-filters="sRGB" result="source"/>
			</filter>
		</defs>
		<mask maskUnits="userSpaceOnUse" x="172.963" y="413.787" width="50.616" height="24.463" id="SVGID_12_">
			<g filter="url(#Adobe_OpacityMaskFilter_11_)">
				
					<image overflow="visible" width="228" height="119" xlink:href="B4282C12.jpg"  transform="matrix(0.24 0 0 0.24 170.9629 411.7866)">
				</image>
			</g>
		</mask>
		<g opacity="0.44" mask="url(#SVGID_12_)">
			<path fill="#939598" d="M174.572,413.787c0,0,19.615,9.128,47.393,0c0,0,3.876,8.94-0.383,18.824c0,0-20.421,12.687-46.684,0
				C174.898,432.611,170.77,423.882,174.572,413.787z"/>
		</g>
	</g>
	<path fill="#008C3F" d="M198.183,422.793c-10.271,8.097-19.857,17.91-27.171,28.756c-4.571,6.778-8.624,15.309-9.259,23.535
		c-0.638,8.245,9.709,19.962,16.167,8.737c3.375-5.867,0.924-11.263,0.118-17.319c-0.546-4.092,0.168-7.968,1.164-11.947
		c2.811-11.224,10.333-20.466,20.206-26.385C199.407,428.17,203.026,424.801,198.183,422.793z"/>
	<path fill="#6CBE45" d="M165.177,429.856c-0.993-0.17-2.238,0.731-3.108,1.072c-2.45,0.958-4.88,1.952-7.14,3.312
		c-5.539,3.332-10.47,8.02-11.329,14.729c-0.248,1.925-0.129,3.984,0.939,5.664c2.227,3.505,5.545,4.518,8.728,1.749
		c0.001,0,5.303-4.608,2.496-11.036c-0.78-0.528-2.703-6.137,9.419-11.798c1.052-0.492,1.571-2.222,0.831-3.173
		C165.771,430.066,165.486,429.91,165.177,429.856z"/>
	
		<ellipse transform="matrix(-0.8967 -0.4425 0.4425 -0.8967 310.2939 764.4988)" fill="#FFFFFF" cx="244.332" cy="346.051" rx="25.569" ry="28.522"/>
	<ellipse cx="257.601" cy="346.297" rx="5.256" ry="9.635"/>
	<ellipse fill="#D01E47" cx="267.927" cy="372.639" rx="5.417" ry="3.938"/>
	<ellipse cx="235.799" cy="390.365" rx="4.937" ry="4.599"/>
	<g>
		<path fill="#6CBE45" d="M174.77,251.035l8.499,36.66l-6.52,4.009c0,0,2.756-24.827-9.845-36.238"/>
		<path fill="#6CBE45" d="M183.615,251.189c-3.395,3.443-8.132,5.568-13.334,5.568c-10.354,0-18.754-8.4-18.754-18.756
			c0-10.354,8.4-18.756,18.754-18.756v18.609L183.615,251.189z"/>
		<path fill="#008C3F" d="M173.408,234.875v-18.755c10.354,0,18.755,8.4,18.755,18.755H173.408z"/>
		<path fill="#6CBE45" d="M193.725,238.001c0,5.201-2.124,9.939-5.567,13.334l-13.31-13.334H193.725z"/>
	</g>
	<g>
		<path fill="#6CBE45" d="M211.492,236.438l-9.167,50.941l7.032,4.324c0,0-1.125-37.149,10.616-50.487"/>
		<path fill="#6CBE45" d="M237.862,238.15c-4.039,4.096-9.673,6.622-15.86,6.622c-12.314,0-22.305-9.991-22.305-22.305
			c0-12.315,9.99-22.307,22.305-22.307v22.131L237.862,238.15z"/>
		<path fill="#008C3F" d="M225.721,218.748v-22.306c12.314,0,22.306,9.992,22.306,22.306H225.721z"/>
		<path fill="#6CBE45" d="M249.885,222.467c0,6.186-2.526,11.82-6.621,15.857l-15.828-15.857H249.885z"/>
	</g>
</g>
<g>
	<g>
		<g>
			<path fill="#008C3F" d="M404.699,461.723c0,0-3.019-11.701-13.058-11.589c0,0-6.793-0.451-17.964,11.777
				c0,0-6.002,6.15,7.133,6.868c0,0,16.529,0.415,20.757-1.925C401.567,466.855,405.682,465.685,404.699,461.723z"/>
		</g>
		<defs>
			<filter id="Adobe_OpacityMaskFilter_12_" filterUnits="userSpaceOnUse" x="372.31" y="450.132" width="32.541" height="18.676">
				
					<feColorMatrix  type="matrix" values="-1 0 0 0 1  0 -1 0 0 1  0 0 -1 0 1  0 0 0 1 0" color-interpolation-filters="sRGB" result="source"/>
			</filter>
		</defs>
		<mask maskUnits="userSpaceOnUse" x="372.31" y="450.132" width="32.541" height="18.676" id="SVGID_13_">
			<g filter="url(#Adobe_OpacityMaskFilter_12_)">
				
					<image overflow="visible" width="153" height="95" xlink:href="B4282C10.jpg"  transform="matrix(0.24 0 0 0.24 370.3096 448.1323)">
				</image>
			</g>
		</mask>
		<g opacity="0.44" mask="url(#SVGID_13_)">
			<path fill="#939598" d="M404.699,461.723c0,0-3.019-11.701-13.058-11.589c0,0-6.793-0.451-17.964,11.777
				c0,0-6.002,6.15,7.133,6.868c0,0,16.529,0.415,20.757-1.925C401.567,466.855,405.682,465.685,404.699,461.723z"/>
		</g>
	</g>
	<g>
		<g>
			<path fill="#6CBE45" d="M441.981,410.703c0,0-9.561,2.18-11.061,10.504c0,0-2.381,9.429,7.212,14.452
				c0,0,8.48,3.884,16.898-0.357c0,0,5.153-2.448,6.459-8.58c0,0,2.839-11.027-9.656-15.594c0,0-1.577-0.747-5.117-0.878
				C446.717,410.25,444.504,410.111,441.981,410.703"/>
		</g>
		<defs>
			<filter id="Adobe_OpacityMaskFilter_13_" filterUnits="userSpaceOnUse" x="430.659" y="410.236" width="31.108" height="27.048">
				
					<feColorMatrix  type="matrix" values="-1 0 0 0 1  0 -1 0 0 1  0 0 -1 0 1  0 0 0 1 0" color-interpolation-filters="sRGB" result="source"/>
			</filter>
		</defs>
		<mask maskUnits="userSpaceOnUse" x="430.659" y="410.236" width="31.108" height="27.048" id="SVGID_14_">
			<g filter="url(#Adobe_OpacityMaskFilter_13_)">
				
					<image overflow="visible" width="147" height="130" xlink:href="B4282C16.jpg"  transform="matrix(0.24 0 0 0.24 428.6592 408.2358)">
				</image>
			</g>
		</mask>
		<g opacity="0.44" mask="url(#SVGID_14_)">
			<path fill="#939598" d="M441.981,410.703c0,0-9.561,2.18-11.061,10.504c0,0-2.381,9.429,7.212,14.452
				c0,0,8.48,3.884,16.898-0.357c0,0,5.153-2.448,6.459-8.58c0,0,2.839-11.027-9.656-15.594c0,0-1.577-0.747-5.117-0.878
				C446.717,410.25,444.504,410.111,441.981,410.703"/>
		</g>
	</g>
	<g>
		<g>
			<path fill="#008C3F" d="M423.663,409.466c0,0-12.671,2.891-14.657,13.924c0,0-3.159,12.497,9.555,19.155
				c0,0,11.243,5.147,22.399-0.475c0,0,6.832-3.244,8.562-11.373c0,0,3.762-14.615-12.798-20.668c0,0-2.091-0.99-6.784-1.163
				C429.939,408.867,427.008,408.683,423.663,409.466"/>
		</g>
		<defs>
			<filter id="Adobe_OpacityMaskFilter_14_" filterUnits="userSpaceOnUse" x="408.657" y="408.848" width="41.231" height="35.851">
				
					<feColorMatrix  type="matrix" values="-1 0 0 0 1  0 -1 0 0 1  0 0 -1 0 1  0 0 0 1 0" color-interpolation-filters="sRGB" result="source"/>
			</filter>
		</defs>
		<mask maskUnits="userSpaceOnUse" x="408.657" y="408.848" width="41.231" height="35.851" id="SVGID_15_">
			<g filter="url(#Adobe_OpacityMaskFilter_14_)">
				
					<image overflow="visible" width="189" height="167" xlink:href="B4282C1D.jpg"  transform="matrix(0.24 0 0 0.24 406.6572 406.8481)">
				</image>
			</g>
		</mask>
		<g opacity="0.44" mask="url(#SVGID_15_)">
			<path fill="#939598" d="M423.663,409.466c0,0-12.671,2.891-14.657,13.924c0,0-3.159,12.497,9.555,19.155
				c0,0,11.243,5.147,22.399-0.475c0,0,6.832-3.244,8.562-11.373c0,0,3.762-14.615-12.798-20.668c0,0-2.091-0.99-6.784-1.163
				C429.939,408.867,427.008,408.683,423.663,409.466"/>
		</g>
	</g>
	<g>
		<g>
			<path fill="#008C3F" d="M414.012,464.036c0,0-3.02-11.7-13.059-11.588c0,0-6.793-0.453-17.964,11.775c0,0-6,6.151,7.133,6.868
				c0,0,16.53,0.416,20.757-1.925C410.879,469.167,414.994,467.997,414.012,464.036z"/>
		</g>
		<defs>
			<filter id="Adobe_OpacityMaskFilter_15_" filterUnits="userSpaceOnUse" x="381.622" y="452.446" width="32.541" height="18.674">
				
					<feColorMatrix  type="matrix" values="-1 0 0 0 1  0 -1 0 0 1  0 0 -1 0 1  0 0 0 1 0" color-interpolation-filters="sRGB" result="source"/>
			</filter>
		</defs>
		<mask maskUnits="userSpaceOnUse" x="381.622" y="452.446" width="32.541" height="18.674" id="SVGID_16_">
			<g filter="url(#Adobe_OpacityMaskFilter_15_)">
				
					<image overflow="visible" width="153" height="95" xlink:href="B4282C1E.jpg"  transform="matrix(0.24 0 0 0.24 379.6211 450.4458)">
				</image>
			</g>
		</mask>
		<g opacity="0.44" mask="url(#SVGID_16_)">
			<path fill="#939598" d="M414.012,464.036c0,0-3.02-11.7-13.059-11.588c0,0-6.793-0.453-17.964,11.775c0,0-6,6.151,7.133,6.868
				c0,0,16.53,0.416,20.757-1.925C410.879,469.167,414.994,467.997,414.012,464.036z"/>
		</g>
	</g>
	<g>
		<g>
			<ellipse fill="#6CBE45" cx="401.749" cy="423.522" rx="25.315" ry="25.363"/>
		</g>
		<defs>
			<filter id="Adobe_OpacityMaskFilter_16_" filterUnits="userSpaceOnUse" x="376.434" y="398.159" width="50.631" height="50.727">
				
					<feColorMatrix  type="matrix" values="-1 0 0 0 1  0 -1 0 0 1  0 0 -1 0 1  0 0 0 1 0" color-interpolation-filters="sRGB" result="source"/>
			</filter>
		</defs>
		<mask maskUnits="userSpaceOnUse" x="376.434" y="398.159" width="50.631" height="50.727" id="SVGID_17_">
			<g filter="url(#Adobe_OpacityMaskFilter_16_)">
				
					<image overflow="visible" width="228" height="229" xlink:href="B4282C1F.jpg"  transform="matrix(0.24 0 0 0.24 374.4336 396.1587)">
				</image>
			</g>
		</mask>
		<g opacity="0.44" mask="url(#SVGID_17_)">
			<ellipse fill="#939598" cx="401.749" cy="423.522" rx="25.315" ry="25.363"/>
		</g>
	</g>
	<g>
		<g>
			<path fill="#008C3F" d="M380.571,284.559c0,0-45.71,10.426-52.888,50.234c0,0-11.39,45.086,34.478,69.11
				c0,0,40.563,18.567,80.815-1.715c0,0,24.648-11.701,30.89-41.03c0,0,13.572-52.731-46.18-74.572c0,0-7.536-3.565-24.474-4.189
				C403.213,282.397,392.635,281.73,380.571,284.559"/>
		</g>
		<defs>
			
				<filter id="Adobe_OpacityMaskFilter_17_" filterUnits="userSpaceOnUse" x="326.43" y="282.329" width="148.761" height="129.342">
				
					<feColorMatrix  type="matrix" values="-1 0 0 0 1  0 -1 0 0 1  0 0 -1 0 1  0 0 0 1 0" color-interpolation-filters="sRGB" result="source"/>
			</filter>
		</defs>
		<mask maskUnits="userSpaceOnUse" x="326.43" y="282.329" width="148.761" height="129.342" id="SVGID_18_">
			<g filter="url(#Adobe_OpacityMaskFilter_17_)">
				
					<image overflow="visible" width="637" height="556" xlink:href="B4282C1C.jpg"  transform="matrix(0.24 0 0 0.24 324.4297 280.3286)">
				</image>
			</g>
		</mask>
		<g opacity="0.44" mask="url(#SVGID_18_)">
			<path fill="#939598" d="M380.571,284.559c0,0-45.71,10.426-52.888,50.234c0,0-11.39,45.086,34.478,69.11
				c0,0,40.563,18.567,80.815-1.715c0,0,24.648-11.701,30.89-41.03c0,0,13.572-52.731-46.18-74.572c0,0-7.536-3.565-24.474-4.189
				C403.213,282.397,392.635,281.73,380.571,284.559"/>
		</g>
	</g>
	<g>
		<g>
			<path fill="#008C3F" d="M425.203,414.583c0,0-19.616,9.127-47.394,0c0,0-3.876,8.939,0.383,18.823c0,0,20.421,12.688,46.684,0
				C424.876,433.406,429.005,424.678,425.203,414.583z"/>
		</g>
		<defs>
			<filter id="Adobe_OpacityMaskFilter_18_" filterUnits="userSpaceOnUse" x="376.195" y="414.583" width="50.617" height="24.462">
				
					<feColorMatrix  type="matrix" values="-1 0 0 0 1  0 -1 0 0 1  0 0 -1 0 1  0 0 0 1 0" color-interpolation-filters="sRGB" result="source"/>
			</filter>
		</defs>
		<mask maskUnits="userSpaceOnUse" x="376.195" y="414.583" width="50.617" height="24.462" id="SVGID_19_">
			<g filter="url(#Adobe_OpacityMaskFilter_18_)">
				
					<image overflow="visible" width="228" height="119" xlink:href="B4282C3C.jpg"  transform="matrix(0.24 0 0 0.24 374.1953 412.5825)">
				</image>
			</g>
		</mask>
		<g opacity="0.44" mask="url(#SVGID_19_)">
			<path fill="#939598" d="M425.203,414.583c0,0-19.616,9.127-47.394,0c0,0-3.876,8.939,0.383,18.823c0,0,20.421,12.688,46.684,0
				C424.876,433.406,429.005,424.678,425.203,414.583z"/>
		</g>
	</g>
	<path fill="#6CBE45" d="M401.592,423.588c10.271,8.097,19.856,17.911,27.17,28.757c4.571,6.778,8.625,15.309,9.26,23.535
		c0.638,8.245-9.709,19.961-16.166,8.736c-3.375-5.867-0.924-11.262-0.118-17.318c0.545-4.093-0.169-7.969-1.164-11.948
		c-2.812-11.223-10.334-20.466-20.205-26.385C400.368,428.965,396.748,425.596,401.592,423.588z"/>
	<path fill="#008C3F" d="M434.597,430.651c0.994-0.17,2.239,0.73,3.108,1.073c2.449,0.958,4.881,1.951,7.141,3.312
		c5.538,3.331,10.471,8.019,11.329,14.729c0.248,1.925,0.13,3.984-0.938,5.664c-2.228,3.504-5.546,4.517-8.729,1.749
		c-0.001,0-5.303-4.608-2.495-11.037c0.78-0.528,2.703-6.136-9.419-11.798c-1.054-0.491-1.571-2.222-0.831-3.174
		C434.004,430.861,434.288,430.705,434.597,430.651z"/>
	
		<ellipse transform="matrix(0.8968 -0.4425 0.4425 0.8968 -116.7882 193.094)" fill="#FFFFFF" cx="355.443" cy="346.846" rx="25.569" ry="28.522"/>
	<ellipse cx="342.173" cy="347.092" rx="5.256" ry="9.635"/>
	<path d="M359.039,391.16c0,2.54,2.211,4.6,4.938,4.6s2.798-3.229,4.935-4.6c7.179-4.599-2.208-4.599-4.935-4.599
		S359.039,388.621,359.039,391.16z"/>
	<g>
		<path fill="#008C3F" d="M383.954,244.757l8.5,36.66l-6.52,4.009c0,0,2.756-24.826-9.845-36.238"/>
		<path fill="#008C3F" d="M420.677,230.162l-9.166,50.941l7.031,4.323c0,0-1.125-37.149,10.617-50.486"/>
		<path fill="#6CBE45" d="M395.837,236.676l1.756-1.754c3.825-3.822,3.825-10.052,0-13.875c-3.827-3.828-10.054-3.826-13.876,0
			l-1.755,1.753L395.837,236.676z"/>
		<polygon fill="#008C3F" points="378.519,226.248 356.814,247.951 365.52,249.677 383.731,231.459 		"/>
		<path fill="#6CBE45" d="M352.432,266.209c0.603,0.603,1.483,0.845,2.314,0.641l11.403-2.853l-1.9-9.604l-9.607-1.903l-2.853,11.4
			C351.585,264.725,351.826,265.602,352.432,266.209z"/>
		<polygon fill="#008C3F" points="387.177,234.907 368.965,253.124 370.689,261.825 392.394,240.123 		"/>
		<path fill="#6CBE45" d="M406.794,220.168l-2.036-2.035c-4.439-4.433-4.439-11.661,0-16.098c4.438-4.44,11.664-4.439,16.1,0
			l2.035,2.035L406.794,220.168z"/>
		<polygon fill="#008C3F" points="426.889,208.067 452.071,233.25 441.971,235.251 420.841,214.117 		"/>
		<path fill="#6CBE45" d="M457.156,254.434c-0.7,0.7-1.723,0.982-2.686,0.745l-13.231-3.309l2.207-11.146l11.146-2.208l3.309,13.229
			C458.138,252.713,457.858,253.73,457.156,254.434z"/>
		<polygon fill="#008C3F" points="416.842,218.115 437.973,239.251 435.973,249.349 410.791,224.167 		"/>
	</g>
</g>
<ellipse fill="#D01E47" cx="355.59" cy="349.836" rx="5.418" ry="3.938"/>
<g>
	<path fill="#005198" d="M320.23,270.378l-9.168,50.941l7.031,4.324c0,0-1.125-37.149,10.617-50.486"/>
	<g>
		<path fill="#005198" d="M301.356,453.466c15.585,1.082,31.059,3.602,46.111,7.77c5.373,1.486,13.286,3.209,15.423,9.175
			c2.171,6.059-1.712,8.897-7.249,9.694c-7.643,1.099-10.35-7.415-15.214-11.349c-5.57-4.505-12.063-7.129-18.997-8.897
			c-6.451-1.645-13.433-2.165-20.074-2.278V453.466z"/>
		<path fill="#005198" d="M303.364,453.466c-15.584,1.082-31.06,3.602-46.112,7.77c-5.371,1.486-13.285,3.209-15.422,9.175
			c-2.171,6.059,1.712,8.897,7.25,9.694c7.643,1.099,10.35-7.415,15.214-11.349c5.569-4.505,12.061-7.129,18.996-8.897
			c6.451-1.645,13.434-2.165,20.074-2.278V453.466z"/>
		<path fill="#0076B6" d="M280.428,450.226c0,0-49.548-11.144-54.791-47.851c0,0-2.479-8.487-10.568-6.297
			c0,0-27.025,12.652,17.646,37.681c0,0,29.365,17.005,46.649,18.541L280.428,450.226z"/>
		<path fill="#0076B6" d="M316.085,452.222c0,0,50.696-3,61.795-38.378c0,0,3.814-7.979,11.446-4.51
			c0,0,24.628,16.848-23.498,34.338c0,0-31.725,12.042-49.029,10.769L316.085,452.222z"/>
		<g>
			<g>
				<ellipse fill="#0076B6" cx="303.396" cy="457.488" rx="25.315" ry="25.363"/>
			</g>
			<defs>
				<filter id="Adobe_OpacityMaskFilter_19_" filterUnits="userSpaceOnUse" x="278.081" y="432.125" width="50.63" height="50.726">
					
						<feColorMatrix  type="matrix" values="-1 0 0 0 1  0 -1 0 0 1  0 0 -1 0 1  0 0 0 1 0" color-interpolation-filters="sRGB" result="source"/>
				</filter>
			</defs>
			<mask maskUnits="userSpaceOnUse" x="278.081" y="432.125" width="50.63" height="50.726" id="SVGID_20_">
				<g filter="url(#Adobe_OpacityMaskFilter_19_)">
					
						<image overflow="visible" width="228" height="229" xlink:href="B4282C3D.jpg"  transform="matrix(0.24 0 0 0.24 276.0811 430.1255)">
					</image>
				</g>
			</mask>
			<g opacity="0.44" mask="url(#SVGID_20_)">
				<ellipse fill="#939598" cx="303.396" cy="457.488" rx="25.315" ry="25.363"/>
			</g>
		</g>
		<g>
			<g>
				<path fill="#005198" d="M308.662,491.989c0,0,3.019-11.699,13.06-11.587c0,0,6.792-0.452,17.965,11.775c0,0,6,6.15-7.133,6.869
					c0,0-16.531,0.414-20.759-1.926C311.795,497.121,307.682,495.95,308.662,491.989z"/>
			</g>
			<defs>
				<filter id="Adobe_OpacityMaskFilter_20_" filterUnits="userSpaceOnUse" x="308.511" y="480.4" width="32.543" height="18.675">
					
						<feColorMatrix  type="matrix" values="-1 0 0 0 1  0 -1 0 0 1  0 0 -1 0 1  0 0 0 1 0" color-interpolation-filters="sRGB" result="source"/>
				</filter>
			</defs>
			<mask maskUnits="userSpaceOnUse" x="308.511" y="480.4" width="32.543" height="18.675" id="SVGID_21_">
				<g filter="url(#Adobe_OpacityMaskFilter_20_)">
					
						<image overflow="visible" width="153" height="95" xlink:href="B4282C3E.jpg"  transform="matrix(0.24 0 0 0.24 306.5107 478.3999)">
					</image>
				</g>
			</mask>
			<g opacity="0.44" mask="url(#SVGID_21_)">
				<path fill="#939598" d="M308.662,491.989c0,0,3.019-11.699,13.06-11.587c0,0,6.792-0.452,17.965,11.775c0,0,6,6.15-7.133,6.869
					c0,0-16.531,0.414-20.759-1.926C311.795,497.121,307.682,495.95,308.662,491.989z"/>
			</g>
		</g>
		<g>
			<g>
				<path fill="#005198" d="M299.403,491.989c0,0-3.019-11.699-13.059-11.587c0,0-6.791-0.452-17.964,11.775
					c0,0-6,6.151,7.134,6.869c0,0,16.529,0.414,20.757-1.926C296.271,497.121,300.386,495.95,299.403,491.989z"/>
			</g>
			<defs>
				<filter id="Adobe_OpacityMaskFilter_21_" filterUnits="userSpaceOnUse" x="267.013" y="480.4" width="32.542" height="18.675">
					
						<feColorMatrix  type="matrix" values="-1 0 0 0 1  0 -1 0 0 1  0 0 -1 0 1  0 0 0 1 0" color-interpolation-filters="sRGB" result="source"/>
				</filter>
			</defs>
			<mask maskUnits="userSpaceOnUse" x="267.013" y="480.4" width="32.542" height="18.675" id="SVGID_22_">
				<g filter="url(#Adobe_OpacityMaskFilter_21_)">
					
						<image overflow="visible" width="153" height="95" xlink:href="B4282C3B.jpg"  transform="matrix(0.24 0 0 0.24 265.0127 478.3999)">
					</image>
				</g>
			</mask>
			<g opacity="0.44" mask="url(#SVGID_22_)">
				<path fill="#939598" d="M299.403,491.989c0,0-3.019-11.699-13.059-11.587c0,0-6.791-0.452-17.964,11.775
					c0,0-6,6.151,7.134,6.869c0,0,16.529,0.414,20.757-1.926C296.271,497.121,300.386,495.95,299.403,491.989z"/>
			</g>
		</g>
		<g>
			<g>
				<path fill="#005198" d="M324.572,318.524c0,0,45.713,10.428,52.89,50.235c0,0,11.387,45.085-34.479,69.112
					c0,0-40.563,18.565-80.813-1.716c0,0-24.649-11.702-30.89-41.031c0,0-13.573-52.731,46.179-74.572c0,0,7.535-3.565,24.473-4.188
					C301.931,316.364,312.509,315.696,324.572,318.524"/>
			</g>
			<defs>
				
					<filter id="Adobe_OpacityMaskFilter_22_" filterUnits="userSpaceOnUse" x="229.955" y="316.295" width="148.761" height="129.342">
					
						<feColorMatrix  type="matrix" values="-1 0 0 0 1  0 -1 0 0 1  0 0 -1 0 1  0 0 0 1 0" color-interpolation-filters="sRGB" result="source"/>
				</filter>
			</defs>
			<mask maskUnits="userSpaceOnUse" x="229.955" y="316.295" width="148.761" height="129.342" id="SVGID_23_">
				<g filter="url(#Adobe_OpacityMaskFilter_22_)">
					
						<image overflow="visible" width="637" height="556" xlink:href="B4282C34.jpg"  transform="matrix(0.24 0 0 0.24 227.9551 314.2944)">
					</image>
				</g>
			</mask>
			<g opacity="0.44" mask="url(#SVGID_23_)">
				<path fill="#939598" d="M324.572,318.524c0,0,45.713,10.428,52.89,50.235c0,0,11.387,45.085-34.479,69.112
					c0,0-40.563,18.565-80.813-1.716c0,0-24.649-11.702-30.89-41.031c0,0-13.573-52.731,46.179-74.572c0,0,7.535-3.565,24.473-4.188
					C301.931,316.364,312.509,315.696,324.572,318.524"/>
			</g>
		</g>
		<g>
			<g>
				<path fill="#005198" d="M308.833,448.562c0,0,12.671,2.891,14.659,13.923c0,0,3.158,12.497-9.557,19.156
					c0,0-11.243,5.146-22.398-0.476c0,0-6.832-3.243-8.562-11.372c0,0-3.763-14.616,12.799-20.669c0,0,2.09-0.988,6.784-1.163
					C302.559,447.961,305.489,447.778,308.833,448.562"/>
			</g>
			<defs>
				
					<filter id="Adobe_OpacityMaskFilter_23_" filterUnits="userSpaceOnUse" x="282.608" y="447.943" width="41.231" height="35.851">
					
						<feColorMatrix  type="matrix" values="-1 0 0 0 1  0 -1 0 0 1  0 0 -1 0 1  0 0 0 1 0" color-interpolation-filters="sRGB" result="source"/>
				</filter>
			</defs>
			<mask maskUnits="userSpaceOnUse" x="282.608" y="447.943" width="41.231" height="35.851" id="SVGID_24_">
				<g filter="url(#Adobe_OpacityMaskFilter_23_)">
					
						<image overflow="visible" width="189" height="167" xlink:href="B4282C37.jpg"  transform="matrix(0.24 0 0 0.24 280.6084 445.9429)">
					</image>
				</g>
			</mask>
			<g opacity="0.44" mask="url(#SVGID_24_)">
				<path fill="#939598" d="M308.833,448.562c0,0,12.671,2.891,14.659,13.923c0,0,3.158,12.497-9.557,19.156
					c0,0-11.243,5.146-22.398-0.476c0,0-6.832-3.243-8.562-11.372c0,0-3.763-14.616,12.799-20.669c0,0,2.09-0.988,6.784-1.163
					C302.559,447.961,305.489,447.778,308.833,448.562"/>
			</g>
		</g>
		<path fill="#005198" d="M289.582,261.083c-8.181-1.726-15.587-1.081-22.976,3.082c-7.393,4.162-11.782,10.162-14.546,18.053
			c-0.076,0.198-0.213,0.4-0.401,0.507c-0.544,0.307-5.901-1.17-6.222-1.738c-0.12-0.213-0.131-0.455-0.068-0.678
			c2.643-9.321,9.434-17.484,17.82-22.208c8.385-4.724,18.887-6.302,28.229-3.731c0.22,0.063,0.424,0.198,0.543,0.412
			c0.319,0.568-1.192,5.914-1.737,6.221C290.033,261.109,289.79,261.123,289.582,261.083z"/>
		<path fill="#0076B6" d="M286.768,271.156c-5.615-0.83-9.922-0.777-15.038,2.105c-7.155,4.03-9.774,12.121-10.034,12.268
			c-0.545,0.307-5.878-1.183-6.197-1.752c-0.107-0.189-0.121-0.433-0.059-0.654c1.854-6.629,6.928-12.576,12.872-15.926
			c5.947-3.348,13.663-4.606,20.293-2.754c0.222,0.062,0.423,0.198,0.529,0.388c0.321,0.569-1.17,5.901-1.714,6.208
			C287.23,271.145,286.963,271.17,286.768,271.156z"/>
		<path fill="#005198" d="M276.852,282.357c-3.506,1.977-4.705,5.772-5.061,5.974c-0.568,0.318-5.924-1.156-6.246-1.726
			c-0.12-0.213-0.131-0.456-0.068-0.678c1.12-3.939,4.453-7.658,7.959-9.634c3.507-1.975,8.415-2.898,12.365-1.815
			c0.222,0.063,0.423,0.198,0.543,0.411c0.321,0.569-1.193,5.915-1.761,6.235C284.251,281.311,280.334,280.397,276.852,282.357z"/>
		<path fill="#005198" d="M283.506,284.975l8.5,36.66l-6.52,4.009c0,0,2.756-24.827-9.845-36.238"/>
		<path fill="#005198" d="M312.982,244.525c-0.586-0.331-2.218-6.098-1.872-6.71c0.129-0.23,0.347-0.376,0.586-0.444
			c10.076-2.771,21.401-1.07,30.445,4.024c9.045,5.094,16.369,13.898,19.221,23.951c0.068,0.239,0.055,0.502-0.075,0.731
			c-0.346,0.613-6.121,2.205-6.709,1.875c-0.205-0.115-0.354-0.332-0.435-0.547c-2.98-8.51-7.715-14.98-15.687-19.471
			c-7.971-4.489-15.958-5.186-24.781-3.324C313.451,244.653,313.189,244.639,312.982,244.525z"/>
		<path fill="#0076B6" d="M316.008,255.348c-0.587-0.332-2.193-6.082-1.848-6.695c0.114-0.204,0.331-0.352,0.57-0.419
			c7.149-1.997,15.472-0.64,21.886,2.971c6.413,3.613,11.885,10.027,13.884,17.177c0.066,0.239,0.054,0.502-0.062,0.705
			c-0.346,0.614-6.098,2.221-6.685,1.89c-0.28-0.158-3.105-8.885-10.821-13.229c-5.521-3.109-10.164-3.168-16.222-2.272
			C316.5,255.491,316.212,255.463,316.008,255.348z"/>
		<path fill="#005198" d="M319.068,266.226c-0.612-0.345-2.245-6.111-1.9-6.725c0.131-0.229,0.348-0.376,0.588-0.443
			c4.259-1.168,9.553-0.173,13.334,1.958c3.781,2.13,7.377,6.142,8.585,10.389c0.068,0.24,0.055,0.502-0.075,0.731
			c-0.346,0.614-6.121,2.206-6.734,1.86c-0.384-0.215-1.678-4.311-5.459-6.441C323.65,265.441,319.428,266.427,319.068,266.226z"/>
		<path fill="#005198" d="M322.067,277.035c-0.665-0.374-2.228-5.966-1.837-6.656c0.704-1.251,4.363-0.099,5.333,0.448
			c0.971,0.546,3.853,3.079,3.147,4.331C328.323,275.846,322.73,277.409,322.067,277.035z"/>
		<g>
			<g>
				<path fill="#0076B6" d="M306.184,466.984c0,0,6.297,1.437,7.285,6.92c0,0,1.569,6.212-4.75,9.521c0,0-5.587,2.558-11.131-0.235
					c0,0-3.396-1.612-4.256-5.653c0,0-1.869-7.263,6.361-10.272c0,0,1.038-0.49,3.371-0.576
					C303.064,466.687,304.522,466.595,306.184,466.984"/>
			</g>
			<defs>
				
					<filter id="Adobe_OpacityMaskFilter_24_" filterUnits="userSpaceOnUse" x="293.149" y="466.677" width="20.492" height="17.817">
					
						<feColorMatrix  type="matrix" values="-1 0 0 0 1  0 -1 0 0 1  0 0 -1 0 1  0 0 0 1 0" color-interpolation-filters="sRGB" result="source"/>
				</filter>
			</defs>
			<mask maskUnits="userSpaceOnUse" x="293.149" y="466.677" width="20.492" height="17.817" id="SVGID_25_">
				<g filter="url(#Adobe_OpacityMaskFilter_24_)">
					
						<image overflow="visible" width="103" height="91" xlink:href="B4282C0A.jpg"  transform="matrix(0.24 0 0 0.24 291.1494 464.6772)">
					</image>
				</g>
			</mask>
			<g opacity="0.44" mask="url(#SVGID_25_)">
				<path fill="#939598" d="M306.184,466.984c0,0,6.297,1.437,7.285,6.92c0,0,1.569,6.212-4.75,9.521c0,0-5.587,2.558-11.131-0.235
					c0,0-3.396-1.612-4.256-5.653c0,0-1.869-7.263,6.361-10.272c0,0,1.038-0.49,3.371-0.576
					C303.064,466.687,304.522,466.595,306.184,466.984"/>
			</g>
		</g>
	</g>
</g>
</svg>
