<?xml version="1.0" encoding="utf-8"?>
<!-- Generator: Adobe Illustrator 16.0.0, SVG Export Plug-In . SVG Version: 6.00 Build 0)  -->
<!DOCTYPE svg PUBLIC "-//W3C//DTD SVG 1.1//EN" "http://www.w3.org/Graphics/SVG/1.1/DTD/svg11.dtd">
<svg version="1.1" id="Layer_5" xmlns="http://www.w3.org/2000/svg" xmlns:xlink="http://www.w3.org/1999/xlink" x="0px" y="0px"
	 width="622.253px" height="531.177px" viewBox="0 0 622.253 531.177" enable-background="new 0 0 622.253 531.177"
	 xml:space="preserve">
<g>
	<path fill="#6CBE45" d="M279.756,125.996l17.613,75.962l-13.508,8.305c0,0,5.709-51.443-20.398-75.088"/>
	<path fill="#6CBE45" d="M298.089,126.316c-7.037,7.136-16.853,11.537-27.632,11.537c-21.456,0-38.861-17.407-38.861-38.862
		c0-21.455,17.405-38.862,38.861-38.862v38.559L298.089,126.316z"/>
	<path fill="#008C3F" d="M276.935,92.514V53.65c21.455,0,38.862,17.408,38.862,38.863H276.935z"/>
	<path fill="#6CBE45" d="M319.037,98.991c0,10.778-4.402,20.595-11.538,27.629l-27.577-27.629H319.037z"/>
</g>
<g>
	<path fill="#6CBE45" d="M355.85,95.752l-18.995,105.553l14.57,8.958c0,0-2.33-76.977,22-104.612"/>
	<path fill="#6CBE45" d="M410.49,99.297c-8.368,8.487-20.043,13.723-32.863,13.723c-25.517,0-46.218-20.703-46.218-46.221
		c0-25.517,20.701-46.22,46.218-46.22v45.858L410.49,99.297z"/>
	<path fill="#008C3F" d="M385.333,59.096V12.876c25.518,0,46.219,20.703,46.219,46.219H385.333z"/>
	<path fill="#6CBE45" d="M435.402,66.8c0,12.819-5.234,24.494-13.719,32.859l-32.8-32.859H435.402z"/>
</g>
<path fill="#008C3F" d="M267.683,468.877c0,0-102.667-23.092-113.533-99.148c0,0-5.134-17.591-21.897-13.049
	c0,0-55.997,26.214,36.564,78.075c0,0,60.848,35.238,96.661,38.419L267.683,468.877z"/>
<g>
	<g>
		<path fill="#008C3F" d="M367.729,481.052c0,29.023-23.484,52.555-52.452,52.555c-28.974,0-52.458-23.531-52.458-52.555
			c0-29.026,23.484-52.558,52.458-52.558C344.244,428.495,367.729,452.026,367.729,481.052z"/>
	</g>
	<defs>
		<filter id="Adobe_OpacityMaskFilter" filterUnits="userSpaceOnUse" x="262.818" y="428.495" width="104.91" height="105.112">
			
				<feColorMatrix  type="matrix" values="-1 0 0 0 1  0 -1 0 0 1  0 0 -1 0 1  0 0 0 1 0" color-interpolation-filters="sRGB" result="source"/>
		</filter>
	</defs>
	<mask maskUnits="userSpaceOnUse" x="262.818" y="428.495" width="104.91" height="105.112" id="SVGID_1_">
		<g filter="url(#Adobe_OpacityMaskFilter)">
			
				<image overflow="visible" width="454" height="455" xlink:href="9036F93C.jpg"  transform="matrix(0.24 0 0 0.24 260.8184 426.4946)">
			</image>
		</g>
	</mask>
	<g opacity="0.44" mask="url(#SVGID_1_)">
		<path fill="#939598" d="M367.729,481.052c0,29.023-23.484,52.555-52.452,52.555c-28.974,0-52.458-23.531-52.458-52.555
			c0-29.026,23.484-52.558,52.458-52.558C344.244,428.495,367.729,452.026,367.729,481.052z"/>
	</g>
</g>
<g>
	<g>
		<path fill="#6CBE45" d="M359.154,195.983c0,0,94.719,21.605,109.59,104.091c0,0,23.595,93.423-71.442,143.203
			c0,0-84.051,38.469-167.453-3.554c0,0-51.074-24.246-64.005-85.02c0,0-28.125-109.262,95.685-154.517
			c0,0,15.613-7.389,50.709-8.68C312.237,191.506,334.157,190.124,359.154,195.983"/>
	</g>
	<defs>
		<filter id="Adobe_OpacityMaskFilter_1_" filterUnits="userSpaceOnUse" x="163.099" y="191.364" width="308.243" height="268.003">
			
				<feColorMatrix  type="matrix" values="-1 0 0 0 1  0 -1 0 0 1  0 0 -1 0 1  0 0 0 1 0" color-interpolation-filters="sRGB" result="source"/>
		</filter>
	</defs>
	<mask maskUnits="userSpaceOnUse" x="163.099" y="191.364" width="308.243" height="268.003" id="SVGID_2_">
		<g filter="url(#Adobe_OpacityMaskFilter_1_)">
			
				<image overflow="visible" width="1302" height="1134" xlink:href="9036F93D.jpg"  transform="matrix(0.24 0 0 0.24 161.0991 189.3643)">
			</image>
		</g>
	</mask>
	<g opacity="0.44" mask="url(#SVGID_2_)">
		<path fill="#939598" d="M359.154,195.983c0,0,94.719,21.605,109.59,104.091c0,0,23.595,93.423-71.442,143.203
			c0,0-84.051,38.469-167.453-3.554c0,0-51.074-24.246-64.005-85.02c0,0-28.125-109.262,95.685-154.517
			c0,0,15.613-7.389,50.709-8.68C312.237,191.506,334.157,190.124,359.154,195.983"/>
	</g>
</g>
<g>
	<g>
		<path fill="#6CBE45" d="M266.174,465.4c0,0,40.645,18.915,98.202,0c0,0,8.031,18.523-0.795,39.007c0,0-42.313,26.289-96.731,0
			C266.85,504.407,258.297,486.319,266.174,465.4z"/>
	</g>
	<defs>
		<filter id="Adobe_OpacityMaskFilter_2_" filterUnits="userSpaceOnUse" x="262.84" y="465.4" width="104.882" height="50.69">
			
				<feColorMatrix  type="matrix" values="-1 0 0 0 1  0 -1 0 0 1  0 0 -1 0 1  0 0 0 1 0" color-interpolation-filters="sRGB" result="source"/>
		</filter>
	</defs>
	<mask maskUnits="userSpaceOnUse" x="262.84" y="465.4" width="104.882" height="50.69" id="SVGID_3_">
		<g filter="url(#Adobe_OpacityMaskFilter_2_)">
			
				<image overflow="visible" width="454" height="228" xlink:href="9036F93B.jpg"  transform="matrix(0.24 0 0 0.24 260.8398 463.3999)">
			</image>
		</g>
	</mask>
	<g opacity="0.44" mask="url(#SVGID_3_)">
		<path fill="#939598" d="M266.174,465.4c0,0,40.645,18.915,98.202,0c0,0,8.031,18.523-0.795,39.007c0,0-42.313,26.289-96.731,0
			C266.85,504.407,258.297,486.319,266.174,465.4z"/>
	</g>
</g>
<ellipse transform="matrix(0.8967 -0.4425 0.4425 0.8967 -94.2038 202.2412)" fill="#FFFFFF" cx="386.306" cy="303.001" rx="52.981" ry="59.099"/>
<path fill="#FFFFFF" d="M202.845,279.555c-14.446,29.271-4.884,63.495,21.355,76.442c26.239,12.95,59.222-0.281,73.667-29.55
	c14.442-29.271,4.881-63.494-21.358-76.445C250.269,237.051,217.287,250.287,202.845,279.555z"/>
<g>
	
		<image overflow="visible" opacity="0.65" width="802" height="343" xlink:href="9036F944.png"  transform="matrix(0.24 0 0 0.24 226.2744 361.4927)">
	</image>
	<g>
		<path d="M250.638,377.617c0.711,0.222,1.298,0.416,1.702,0.545c6.839,2.195,13.06,3.007,20.192,3.623
			c21.143,1.832,42.1,2.627,63.293,0.526c12.903-1.279,26.574-3.655,38.832-8.012c0.011-0.003,27.228-9.679,34.487,0
			c0,0,10.891,19.362-37.511,47.194c0,0-56.876,30.855-102.253,0c0,0-36.897-18.149-34.489-41.74
			C235.54,373.407,245.902,376.139,250.638,377.617z"/>
	</g>
</g>
<path fill="#D01E47" d="M303.711,434.405c0,0,4.392-41.954,38.274-23.804c0,0,22.784-25.146,34.987,7.694
	C376.973,418.295,344.104,438.885,303.711,434.405z"/>
<path d="M288.743,303.51c0,11.027-4.877,19.966-10.894,19.966c-6.013,0-10.891-8.938-10.891-19.966s4.878-19.966,10.891-19.966
	C283.866,283.544,288.743,292.483,288.743,303.51z"/>
<ellipse cx="353.992" cy="303.51" rx="10.889" ry="19.966"/>
<ellipse fill="#D01E47" cx="317.785" cy="352.808" rx="17.546" ry="8.161"/>
<g opacity="0.32">
	<polygon fill="#FFFFFF" points="48.706,138.865 580.537,138.865 569.994,451.255 59.247,451.255 	"/>
	<g>
		<polyline fill="none" stroke="#8A8C8E" stroke-width="4" stroke-miterlimit="10" points="48.84,142.863 48.706,138.865 
			52.706,138.865 		"/>
		
			<line fill="none" stroke="#8A8C8E" stroke-width="4" stroke-miterlimit="10" stroke-dasharray="8.0589,8.0589" x1="60.765" y1="138.865" x2="572.508" y2="138.865"/>
		<polyline fill="none" stroke="#8A8C8E" stroke-width="4" stroke-miterlimit="10" points="576.537,138.865 580.537,138.865 
			580.402,142.863 		"/>
		
			<line fill="none" stroke="#8A8C8E" stroke-width="4" stroke-miterlimit="10" stroke-dasharray="7.8094,7.8094" x1="580.139" y1="150.668" x2="570.261" y2="443.355"/>
		<polyline fill="none" stroke="#8A8C8E" stroke-width="4" stroke-miterlimit="10" points="570.129,447.257 569.994,451.255 
			565.994,451.255 		"/>
		
			<line fill="none" stroke="#8A8C8E" stroke-width="4" stroke-miterlimit="10" stroke-dasharray="7.9801,7.9801" x1="558.014" y1="451.255" x2="67.237" y2="451.255"/>
		<polyline fill="none" stroke="#8A8C8E" stroke-width="4" stroke-miterlimit="10" points="63.247,451.255 59.247,451.255 
			59.112,447.257 		"/>
		
			<line fill="none" stroke="#8A8C8E" stroke-width="4" stroke-miterlimit="10" stroke-dasharray="7.8094,7.8094" x1="58.848" y1="439.453" x2="48.972" y2="146.766"/>
	</g>
</g>
<rect x="464.587" y="227.983" fill="none" stroke="#B6B8BA" stroke-width="2" stroke-miterlimit="10" stroke-dasharray="6" width="84.327" height="137.03"/>
<polygon fill="none" stroke="#B6B8BA" stroke-width="2" stroke-miterlimit="10" stroke-dasharray="6" points="145.968,379.386 
	77.933,379.386 76.494,278.769 147.405,278.769 "/>
<rect x="76.494" y="215.047" fill="#FBAB18" width="35.456" height="17.728"/>
<rect x="121.052" y="215.047" fill="#FBAB18" width="26.353" height="17.728"/>
<rect x="76.494" y="240.919" fill="#FBAB18" width="57.734" height="17.249"/>
<rect x="176.632" y="395.917" fill="#D01E47" width="11.978" height="35.696"/>
<rect x="161.3" y="404.541" fill="#D01E47" width="11.977" height="27.072"/>
<rect x="145.25" y="411.728" fill="#D01E47" width="11.978" height="19.885"/>
<rect x="129.199" y="406.218" fill="#D01E47" width="11.978" height="25.395"/>
<rect x="112.909" y="404.541" fill="#D01E47" width="11.978" height="27.072"/>
<rect x="96.379" y="412.687" fill="#D01E47" width="11.977" height="18.926"/>
<rect x="80.808" y="420.114" fill="#D01E47" width="11.978" height="11.499"/>
<rect x="531.425" y="413.405" fill="#005198" width="17.489" height="17.487"/>
<rect x="506.485" y="413.405" fill="#005198" width="17.489" height="17.487"/>
<rect x="481.548" y="413.405" fill="#005198" width="17.487" height="17.487"/>
<rect x="456.608" y="413.405" fill="#005198" width="17.488" height="17.487"/>
<rect x="431.67" y="413.405" fill="#005198" width="17.489" height="17.487"/>
<rect x="406.731" y="413.405" fill="#005198" width="17.487" height="17.487"/>
<rect x="531.425" y="390.167" fill="#005198" width="17.489" height="17.489"/>
<rect x="506.485" y="390.167" fill="#005198" width="17.489" height="17.489"/>
<rect x="481.548" y="390.167" fill="#005198" width="17.487" height="17.489"/>
<rect x="456.608" y="390.167" fill="#005198" width="17.488" height="17.489"/>
<rect x="480.158" y="335.539" fill="#008C3F" width="54.859" height="15.332"/>
<rect x="495.49" y="312.541" fill="#008C3F" width="39.527" height="15.333"/>
<rect x="482.074" y="289.543" fill="#008C3F" width="52.943" height="15.331"/>
<rect x="491.417" y="266.545" fill="#008C3F" width="43.601" height="15.332"/>
<rect x="480.158" y="243.547" fill="#008C3F" width="54.859" height="15.333"/>
<rect x="405.414" y="172.164" fill="#8CD6EC" width="15.811" height="32.82"/>
<rect x="427.312" y="181.268" fill="#8CD6EC" width="15.81" height="23.716"/>
<rect x="449.206" y="164.499" fill="#8CD6EC" width="15.812" height="40.486"/>
<rect x="471.103" y="185.46" fill="#8CD6EC" width="15.81" height="19.524"/>
<rect x="492.998" y="172.164" fill="#8CD6EC" width="15.811" height="32.82"/>
<rect x="514.895" y="165.937" fill="#8CD6EC" width="38.091" height="39.048"/>
<rect x="93.982" y="295.061" fill="#0076B6" width="36.414" height="11.738"/>
<rect x="93.982" y="314.465" fill="#0076B6" width="31.383" height="11.739"/>
<rect x="93.982" y="333.87" fill="#0076B6" width="25.154" height="11.738"/>
<rect x="93.982" y="353.274" fill="#0076B6" width="36.414" height="11.739"/>
<g>
	<rect x="163.457" y="485.993" fill="#E8E8E8" width="15.092" height="5.509"/>
	<rect x="182.621" y="485.993" fill="#E8E8E8" width="15.092" height="5.509"/>
	<rect x="199.629" y="485.993" fill="#E8E8E8" width="15.094" height="5.509"/>
	<rect x="216.397" y="485.993" fill="#E8E8E8" width="15.093" height="5.509"/>
	<rect x="263.592" y="483.236" fill="#E8E8E8" width="15.092" height="5.512"/>
	<rect x="290.663" y="483.236" fill="#E8E8E8" width="15.092" height="5.512"/>
	<rect x="311.984" y="483.236" fill="#E8E8E8" width="15.093" height="5.512"/>
	<rect x="333.306" y="481.56" fill="#E8E8E8" width="15.092" height="5.512"/>
	<rect x="355.346" y="480.481" fill="#E8E8E8" width="15.093" height="7.429"/>
	<rect x="378.345" y="480.481" fill="#E8E8E8" width="19.402" height="7.429"/>
	<rect x="403.259" y="478.564" fill="#E8E8E8" width="14.373" height="7.429"/>
	<rect x="424.483" y="478.564" fill="#E8E8E8" width="14.374" height="7.429"/>
	<rect x="443.409" y="475.689" fill="#E8E8E8" width="16.626" height="10.304"/>
</g>
<rect x="2.257" y="500.483" fill="#DADBDC" width="619.996" height="30.694"/>
<path fill="#008C3F" d="M431.67,474.319c0,4.925-11.937,8.917-26.662,8.917c-14.727,0-22.351-2.621-22.351-7.547
	s7.624-16.321,22.351-16.321C419.733,459.368,431.67,469.393,431.67,474.319z"/>
<polygon fill="#5A5A5A" points="157.228,501.564 154.113,491.025 469.858,484.316 465.353,501.564 "/>
<g>
	<path fill="#FDBA12" d="M114.585,500.126c0-9.129-9.761-16.529-21.799-16.529c-12.04,0-21.8,7.4-21.8,16.529H114.585z"/>
	<rect x="89.911" y="491.383" fill="#E6DDBE" width="6.228" height="8.743"/>
</g>
<g>
	<g>
		<polyline fill="none" stroke="#8A8C8E" stroke-width="4" stroke-miterlimit="10" points="48.84,142.863 48.706,138.865 
			52.706,138.865 		"/>
		
			<line fill="none" stroke="#8A8C8E" stroke-width="4" stroke-miterlimit="10" stroke-dasharray="8.0589,8.0589" x1="60.765" y1="138.865" x2="572.508" y2="138.865"/>
		<polyline fill="none" stroke="#8A8C8E" stroke-width="4" stroke-miterlimit="10" points="576.537,138.865 580.537,138.865 
			580.402,142.863 		"/>
		
			<line fill="none" stroke="#8A8C8E" stroke-width="4" stroke-miterlimit="10" stroke-dasharray="7.8094,7.8094" x1="580.139" y1="150.668" x2="570.261" y2="443.355"/>
		<polyline fill="none" stroke="#8A8C8E" stroke-width="4" stroke-miterlimit="10" points="570.129,447.257 569.994,451.255 
			565.994,451.255 		"/>
		
			<line fill="none" stroke="#8A8C8E" stroke-width="4" stroke-miterlimit="10" stroke-dasharray="7.9801,7.9801" x1="558.014" y1="451.255" x2="67.237" y2="451.255"/>
		<polyline fill="none" stroke="#8A8C8E" stroke-width="4" stroke-miterlimit="10" points="63.247,451.255 59.247,451.255 
			59.112,447.257 		"/>
		
			<line fill="none" stroke="#8A8C8E" stroke-width="4" stroke-miterlimit="10" stroke-dasharray="7.8094,7.8094" x1="58.848" y1="439.453" x2="48.972" y2="146.766"/>
	</g>
</g>
<g>
	<path fill="#005198" d="M109.897,194.39c-3.959,4.014-9.479,6.49-15.544,6.49c-12.07,0-21.861-9.791-21.861-21.862
		c0-12.069,9.791-21.862,21.861-21.862v21.69L109.897,194.39z"/>
	<path fill="#005198" d="M97.997,175.374v-21.862c12.069,0,21.862,9.792,21.862,21.862H97.997z"/>
	<path fill="#8CD6EC" d="M121.681,179.018c0,6.063-2.475,11.586-6.49,15.543l-15.513-15.543H121.681z"/>
</g>
<g>
	<path fill="#D01E47" d="M170.038,194.39c-3.959,4.014-9.479,6.49-15.544,6.49c-12.07,0-21.861-9.791-21.861-21.862
		c0-12.069,9.791-21.862,21.861-21.862v21.69L170.038,194.39z"/>
	<path fill="#008C3F" d="M158.138,175.374v-21.862c12.069,0,21.862,9.792,21.862,21.862H158.138z"/>
	<path fill="#005198" d="M181.822,179.018c0,6.063-2.475,11.586-6.49,15.543l-15.513-15.543H181.822z"/>
</g>
</svg>
